<?xml version="1.0" encoding="UTF-8"?>
<svg width="30px" height="19px" viewBox="0 0 30 19" version="1.1" xmlns="http://www.w3.org/2000/svg" xmlns:xlink="http://www.w3.org/1999/xlink">
    <!-- Generator: Sketch 47.1 (45422) - http://www.bohemiancoding.com/sketch -->
    <title>Behance</title>
    <desc>Created with Sketch.</desc>
    <defs></defs>
    <g id="Page-1" stroke="none" stroke-width="1" fill="none" fill-rule="evenodd">
        <g id="Artboard-Copy-7" transform="translate(-1127.000000, -41.000000)" fill-rule="nonzero" fill="#FFFFFF">
            <g id="Group-8" transform="translate(1077.000000, 33.000000)">
                <g id="behance-logo" transform="translate(50.000000, 8.000000)">
                    <path d="M27.0370302,2.63029154 L19.5354292,2.63029154 L19.5354292,0.783153435 L27.0376566,0.783153435 L27.0376566,2.63029154 L27.0370302,2.63029154 L27.0370302,2.63029154 Z M14.5414385,10.2047998 C15.0254756,10.948002 15.267355,11.850388 15.267355,12.9098186 C15.267355,14.0054054 14.9946404,14.9882457 14.4398144,15.8564075 C14.0868445,16.4309041 13.6486079,16.9161832 13.1220418,17.3068629 C12.5290023,17.7586769 11.826891,18.0684882 11.0197448,18.23402 C10.2100232,18.3998277 9.33361949,18.4835941 8.38955916,18.4835941 L0,18.4835941 L0,0.0170430748 L8.99651972,0.0170430748 C11.2641995,0.0536132351 12.8718794,0.704907092 13.8212297,1.9839657 C14.3908817,2.76843014 14.6731323,3.70973227 14.6731323,4.80387007 C14.6731323,5.93285302 14.387471,6.83620498 13.8122506,7.52255099 C13.4922738,7.90736568 13.0195824,8.25740422 12.3938283,8.5733566 C13.3416473,8.91732311 14.0608121,9.45897549 14.5414385,10.2047998 Z M4.2961949,7.29747201 L8.23809745,7.29747201 C9.04816705,7.29747201 9.70301624,7.14484334 10.2073782,6.839724 C10.7113921,6.53508766 10.962877,5.99357329 10.962877,5.21607788 C10.962877,4.35709311 10.629884,3.78694361 9.96229698,3.51252941 C9.38846868,3.32188157 8.65426914,3.22369414 7.76338747,3.22369414 L4.2961949,3.22369414 L4.2961949,7.29747201 Z M11.3424362,12.6460305 C11.3424362,11.6867883 10.9469374,11.0236263 10.1575406,10.6677918 C9.71610209,10.4655519 9.09327146,10.3621894 8.29468677,10.3548064 L4.2961949,10.3548064 L4.2961949,15.276046 L8.23280742,15.276046 C9.04155452,15.276046 9.6675174,15.1710965 10.1192575,14.9521586 C10.9339211,14.5496108 11.3424362,13.7835005 11.3424362,12.6460305 Z M29.820348,9.64182629 C29.9109745,10.2459929 29.9519722,11.1225728 29.9353364,12.2683228 L20.2199304,12.2683228 C20.2735267,13.5976826 20.7364733,14.5273237 21.614478,15.059316 C22.1439675,15.3929325 22.7859397,15.5558422 23.5376798,15.5558422 C24.330348,15.5558422 24.9764269,15.3571904 25.4737587,14.9488466 C25.7447332,14.7323926 25.9837587,14.4268593 26.1904176,14.0413546 L29.7514385,14.0413546 C29.6581671,14.826509 29.2293968,15.6228415 28.4588631,16.4320771 C27.265058,17.7183117 25.5907657,18.3632575 23.4405104,18.3632575 C21.6641763,18.3632575 20.0986775,17.8193282 18.7398376,16.7354024 C17.385522,15.6476816 16.7053364,13.8836199 16.7053364,11.4365242 C16.7053364,9.1417811 17.3159861,7.38537839 18.5413921,6.16283103 C19.7713225,4.93800666 21.3586079,4.32838898 23.3151508,4.32838898 C24.4748492,4.32838898 25.5202552,4.53387189 26.4529002,4.9469767 C27.3826218,5.36049551 28.1509977,6.01130637 28.7561485,6.90575729 C29.3038051,7.69346474 29.6560093,8.60426874 29.820348,9.64182629 Z M26.3152204,9.9864138 C26.2499304,9.06719177 25.9403248,8.37146172 25.3828538,7.89598063 C24.8299768,7.41918854 24.1392807,7.17982649 23.3151508,7.17982649 C22.4182135,7.17982649 21.7256381,7.43567961 21.2335267,7.93855382 C20.7380742,8.44039302 20.4297912,9.12266801 20.3034571,9.9864828 L26.3152204,9.9864828 L26.3152204,9.9864138 Z" id="Behance"></path>
                </g>
            </g>
        </g>
    </g>
</svg>