<svg xmlns="http://www.w3.org/2000/svg" xmlns:xlink="http://www.w3.org/1999/xlink" viewBox="0 0 1154.91 1283.45"><defs><style>.cls-1{fill:#6e3fff;}.cls-2{stroke:#2f2e3f;stroke-miterlimit:10;stroke-width:7px;fill:url(#linear-gradient);}.cls-3{opacity:0.5;}.cls-4{fill:#f95d77;}.cls-5{fill:#30b6e5;}.cls-6{fill:#a2dff9;}.cls-7,.cls-8{opacity:0.4;}.cls-8{fill:url(#linear-gradient-2);}.cls-9{fill:url(#linear-gradient-3);}</style><linearGradient id="linear-gradient" x1="999.08" y1="51.66" x2="351.92" y2="1104" gradientUnits="userSpaceOnUse"><stop offset="0" stop-color="#3b394f"/><stop offset="0.29" stop-color="#3b3952"/><stop offset="0.5" stop-color="#3a395b"/><stop offset="0.67" stop-color="#393a6a"/><stop offset="0.83" stop-color="#373a80"/><stop offset="0.98" stop-color="#353b9c"/><stop offset="1" stop-color="#353ba0"/></linearGradient><linearGradient id="linear-gradient-2" y1="1037.52" x2="301.29" y2="1037.52" gradientUnits="userSpaceOnUse"><stop offset="0" stop-color="#ffc639"/><stop offset="1" stop-color="#f9801c"/></linearGradient><linearGradient id="linear-gradient-3" x1="44.83" y1="1045.79" x2="256.46" y2="1045.79" xlink:href="#linear-gradient-2"/></defs><title>Asset 7612</title><g id="Layer_2" data-name="Layer 2"><g id="Art"><circle class="cls-1" cx="836.55" cy="132.08" r="92.78"/><circle class="cls-2" cx="589.36" cy="717.9" r="562.05"/><g class="cls-3"><path class="cls-4" d="M1128.82,774l-4.94-2.27,2.27-4.94a3.11,3.11,0,1,0-5.64-2.6l-2.28,4.94-4.93-2.27a3.1,3.1,0,0,0-4.12,1.52h0a3.1,3.1,0,0,0,1.52,4.12l4.94,2.27-2.28,4.94a3.11,3.11,0,0,0,5.65,2.6l2.27-4.94,4.94,2.28a3.11,3.11,0,0,0,4.12-1.53h0A3.11,3.11,0,0,0,1128.82,774Z"/></g><g class="cls-3"><path class="cls-5" d="M191.1,826.38l-5.43-.08.07-5.43a3.11,3.11,0,0,0-6.21-.09l-.08,5.44-5.43-.08a3.11,3.11,0,0,0-3.15,3.07h0a3.12,3.12,0,0,0,3.06,3.15l5.44.07-.07,5.44a3.11,3.11,0,0,0,6.21.08l.07-5.44,5.44.08a3.12,3.12,0,0,0,3.15-3.07h0A3.1,3.1,0,0,0,191.1,826.38Z"/></g><g class="cls-3"><path class="cls-5" d="M1028.09,925.69l-5.44-.08.08-5.44a3.11,3.11,0,0,0-6.22-.08l-.07,5.44-5.44-.08a3.1,3.1,0,0,0-3.14,3.07h0a3.1,3.1,0,0,0,3.06,3.15l5.44.07-.08,5.44a3.11,3.11,0,0,0,6.22.08l.07-5.44,5.44.08a3.1,3.1,0,0,0,3.14-3.07h0A3.1,3.1,0,0,0,1028.09,925.69Z"/></g><g class="cls-3"><path class="cls-6" d="M1039.74,470.08l-5.44-.07.07-5.44a3.11,3.11,0,1,0-6.21-.08l-.07,5.43-5.44-.07a3.1,3.1,0,0,0-3.14,3.06h0a3.09,3.09,0,0,0,3.06,3.15l5.44.07-.08,5.44a3.11,3.11,0,1,0,6.21.08l.08-5.43,5.43.07a3.11,3.11,0,0,0,3.15-3.06h0A3.1,3.1,0,0,0,1039.74,470.08Z"/></g><g class="cls-3"><path class="cls-5" d="M147.58,458.43l-5.43-.07.07-5.44a3.11,3.11,0,1,0-6.21-.08l-.08,5.43-5.43-.07a3.11,3.11,0,0,0-3.15,3.06h0a3.11,3.11,0,0,0,3.06,3.15l5.44.07-.07,5.44A3.11,3.11,0,1,0,142,470l.07-5.44,5.44.07a3.11,3.11,0,0,0,3.15-3.06h0A3.11,3.11,0,0,0,147.58,458.43Z"/></g><g class="cls-7"><circle class="cls-1" cx="841.79" cy="132.08" r="132.08"/></g><circle class="cls-8" cx="150.65" cy="1037.52" r="150.65"/><circle class="cls-9" cx="150.65" cy="1045.79" r="105.82"/><g class="cls-3"><path class="cls-4" d="M505.42,569.48l-4.94-2.27,2.28-4.94a3.11,3.11,0,1,0-5.64-2.6l-2.28,4.94-4.94-2.28a3.11,3.11,0,0,0-4.12,1.53h0A3.12,3.12,0,0,0,487.3,568l4.94,2.27L490,575.19a3.11,3.11,0,1,0,5.64,2.6l2.28-4.94,4.94,2.27A3.1,3.1,0,0,0,507,573.6h0A3.11,3.11,0,0,0,505.42,569.48Z"/></g><g class="cls-3"><path class="cls-6" d="M450.65,925.69l-5.43-.08.07-5.44a3.11,3.11,0,0,0-6.21-.08l-.07,5.44-5.44-.08a3.11,3.11,0,0,0-3.15,3.07h0a3.12,3.12,0,0,0,3.06,3.15l5.44.07-.07,5.44a3.11,3.11,0,0,0,6.21.08l.07-5.44,5.44.08a3.11,3.11,0,0,0,3.15-3.07h0A3.1,3.1,0,0,0,450.65,925.69Z"/></g></g></g></svg>