<svg xmlns="http://www.w3.org/2000/svg" xmlns:xlink="http://www.w3.org/1999/xlink" viewBox="0 0 1131.1 1131.1"><defs><style>.cls-1{stroke:#2f2e3f;stroke-miterlimit:10;stroke-width:7px;fill:url(#linear-gradient);}.cls-2{opacity:0.5;}.cls-3{fill:#f95d77;}.cls-4{fill:#30b6e5;}.cls-5{fill:#a2dff9;}</style><linearGradient id="linear-gradient" x1="975.27" y1="-100.69" x2="328.11" y2="951.64" gradientUnits="userSpaceOnUse"><stop offset="0" stop-color="#3b394f"/><stop offset="0.29" stop-color="#3b3952"/><stop offset="0.5" stop-color="#3a395b"/><stop offset="0.67" stop-color="#393a6a"/><stop offset="0.83" stop-color="#373a80"/><stop offset="0.98" stop-color="#353b9c"/><stop offset="1" stop-color="#353ba0"/></linearGradient></defs><title>Asset 70</title><g id="Layer_2" data-name="Layer 2"><g id="Art"><circle class="cls-1" cx="565.55" cy="565.55" r="562.05"/><g class="cls-2"><path class="cls-3" d="M1105,621.63l-4.94-2.28,2.28-4.93a3.11,3.11,0,0,0-5.65-2.6l-2.27,4.94-4.94-2.28a3.11,3.11,0,0,0-4.12,1.52h0a3.1,3.1,0,0,0,1.52,4.12l4.94,2.28-2.27,4.94a3.11,3.11,0,0,0,5.64,2.6l2.27-4.94,4.94,2.27a3.1,3.1,0,0,0,4.12-1.52h0A3.1,3.1,0,0,0,1105,621.63Z"/></g><g class="cls-2"><path class="cls-4" d="M167.29,674l-5.44-.07.07-5.44a3.11,3.11,0,1,0-6.21-.08l-.07,5.43-5.44-.07a3.1,3.1,0,0,0-3.14,3.07h0a3.09,3.09,0,0,0,3.06,3.14l5.44.08-.08,5.43a3.11,3.11,0,0,0,6.21.09l.08-5.44,5.43.07a3.1,3.1,0,0,0,3.15-3.06h0A3.11,3.11,0,0,0,167.29,674Z"/></g><g class="cls-2"><path class="cls-4" d="M1004.28,773.33l-5.44-.07.07-5.44a3.11,3.11,0,1,0-6.21-.08l-.07,5.43-5.44-.07a3.11,3.11,0,0,0-3.15,3.06h0a3.11,3.11,0,0,0,3.07,3.15l5.43.08-.07,5.43a3.11,3.11,0,1,0,6.21.09l.07-5.44,5.44.07a3.1,3.1,0,0,0,3.15-3.06h0A3.11,3.11,0,0,0,1004.28,773.33Z"/></g><g class="cls-2"><path class="cls-5" d="M1015.92,317.73l-5.43-.08.07-5.43a3.11,3.11,0,1,0-6.21-.09l-.07,5.44-5.44-.07a3.09,3.09,0,0,0-3.15,3.06h0a3.12,3.12,0,0,0,3.06,3.15l5.44.07-.07,5.44a3.11,3.11,0,0,0,6.21.08l.07-5.44,5.44.08a3.11,3.11,0,0,0,3.15-3.07h0A3.1,3.1,0,0,0,1015.92,317.73Z"/></g><g class="cls-2"><path class="cls-4" d="M123.77,306.08l-5.44-.08.07-5.43a3.11,3.11,0,1,0-6.21-.09l-.07,5.44-5.44-.07a3.09,3.09,0,0,0-3.14,3.06h0a3.1,3.1,0,0,0,3.06,3.15l5.44.07-.08,5.44a3.11,3.11,0,1,0,6.21.08l.08-5.44,5.43.08a3.11,3.11,0,0,0,3.15-3.07h0A3.1,3.1,0,0,0,123.77,306.08Z"/></g></g></g></svg>