<svg xmlns="http://www.w3.org/2000/svg" xmlns:xlink="http://www.w3.org/1999/xlink" viewBox="0 0 720.44 720.44"><defs><style>.cls-1{stroke:#2f2e3f;stroke-miterlimit:10;stroke-width:5px;fill:url(#linear-gradient);}.cls-2{fill:#6e3fff;}.cls-3{opacity:0.7;}.cls-4{fill:#fff540;}.cls-5{opacity:0.5;}.cls-6{fill:#ff4e5b;}.cls-7{fill:#a2dff9;}.cls-8{fill:#f95d77;}.cls-9{fill:#30b6e5;}</style><linearGradient id="linear-gradient" x1="5.28" y1="557.94" x2="468.06" y2="300.15" gradientUnits="userSpaceOnUse"><stop offset="0" stop-color="#3b394f"/><stop offset="0.29" stop-color="#3b3952"/><stop offset="0.5" stop-color="#3a395b"/><stop offset="0.67" stop-color="#393a6a"/><stop offset="0.83" stop-color="#373a80"/><stop offset="0.98" stop-color="#353b9c"/><stop offset="1" stop-color="#353ba0"/></linearGradient></defs><title>Asset 72</title><g id="Layer_2" data-name="Layer 2"><g id="Art"><circle class="cls-1" cx="360.22" cy="360.22" r="357.72"/><path class="cls-2" d="M648.77,438.72l-4.7,2.28-2.29-4.7a3,3,0,0,0-5.37,2.61l2.28,4.71L634,445.9a3,3,0,0,0-1.39,4h0a3,3,0,0,0,4,1.39l4.7-2.29,2.29,4.71a3,3,0,1,0,5.37-2.61l-2.28-4.71,4.71-2.28a3,3,0,0,0,1.38-4h0A3,3,0,0,0,648.77,438.72Z"/><g class="cls-3"><path class="cls-4" d="M132.59,524.34l-4.7,2.28-2.29-4.71a3,3,0,1,0-5.37,2.62l2.28,4.7-4.71,2.29a3,3,0,0,0-1.38,4h0a3,3,0,0,0,4,1.38l4.7-2.28,2.29,4.7a3,3,0,1,0,5.37-2.61L130.5,532l4.7-2.29a3,3,0,0,0,1.39-4h0A3,3,0,0,0,132.59,524.34Z"/></g><g class="cls-5"><path class="cls-6" d="M477.34,136.62l-4.71,2.29-2.28-4.71a3,3,0,0,0-5.38,2.61l2.29,4.71-4.71,2.28a3,3,0,0,0-1.38,4h0a3,3,0,0,0,4,1.38l4.71-2.28,2.28,4.7a3,3,0,1,0,5.38-2.61l-2.29-4.7L480,142a3,3,0,0,0,1.38-4h0A3,3,0,0,0,477.34,136.62Z"/></g><g class="cls-5"><path class="cls-7" d="M189.46,133.15l-5.23-.07.07-5.23a3,3,0,1,0-6-.08l-.07,5.23-5.23-.07a3,3,0,0,0-3,2.94h0a3,3,0,0,0,2.94,3l5.24.07-.07,5.23a3,3,0,0,0,6,.09l.07-5.24,5.23.07a3,3,0,0,0,3-2.94h0A3,3,0,0,0,189.46,133.15Z"/></g><g class="cls-5"><path class="cls-7" d="M66.18,341.92,61,341.85l.07-5.23a3,3,0,1,0-6-.08L55,341.77l-5.23-.07a3,3,0,0,0-3,2.95h0a3,3,0,0,0,2.94,3l5.23.07L54.82,353a3,3,0,0,0,6,.08l.07-5.23,5.23.07a3,3,0,0,0,3-2.95h0A3,3,0,0,0,66.18,341.92Z"/></g><g class="cls-5"><path class="cls-8" d="M346.3,52.82,341,50.36,343.42,45a3.36,3.36,0,0,0-6.1-2.8l-2.46,5.34-5.34-2.46a3.35,3.35,0,0,0-4.45,1.64h0a3.36,3.36,0,0,0,1.64,4.46l5.34,2.46L329.59,59a3.36,3.36,0,0,0,6.1,2.8l2.46-5.33,5.34,2.45A3.36,3.36,0,0,0,348,57.28h0A3.37,3.37,0,0,0,346.3,52.82Z"/></g><g class="cls-5"><path class="cls-9" d="M281.45,200.27l-5.88-.08.08-5.87a3.36,3.36,0,0,0-6.72-.1l-.08,5.88L263,200a3.37,3.37,0,0,0-3.4,3.32h0a3.37,3.37,0,0,0,3.31,3.4l5.88.08-.08,5.88a3.36,3.36,0,0,0,6.72.09l.08-5.88,5.87.08a3.37,3.37,0,0,0,3.41-3.31h0A3.37,3.37,0,0,0,281.45,200.27Z"/></g></g></g></svg>