<svg xmlns="http://www.w3.org/2000/svg" xmlns:xlink="http://www.w3.org/1999/xlink" viewBox="0 0 491.25 656.21"><defs><style>.cls-1{stroke:#2f2e3f;stroke-miterlimit:10;stroke-width:5px;fill:url(#linear-gradient);}.cls-2{fill:#35b764;}.cls-2,.cls-4{opacity:0.5;}.cls-3{fill:#6e3fff;}.cls-5{fill:#ff4e5b;}.cls-6{fill:#f95d77;}.cls-7{fill:#a2dff9;}.cls-8{fill:#30b6e5;}</style><linearGradient id="linear-gradient" x1="-16.43" y1="676.44" x2="350.14" y2="189.19" gradientUnits="userSpaceOnUse"><stop offset="0" stop-color="#3b394f"/><stop offset="0.29" stop-color="#3b3952"/><stop offset="0.5" stop-color="#3a395b"/><stop offset="0.67" stop-color="#393a6a"/><stop offset="0.83" stop-color="#373a80"/><stop offset="0.98" stop-color="#353b9c"/><stop offset="1" stop-color="#353ba0"/></linearGradient></defs><title>Asset 81</title><g id="Layer_2" data-name="Layer 2"><g id="Art"><path class="cls-1" d="M2.5,153.13v350a34.56,34.56,0,0,0,17.75,30.2L228.82,649.35a34.53,34.53,0,0,0,33.61,0L471,533.29a34.58,34.58,0,0,0,17.75-30.2v-350A34.56,34.56,0,0,0,471,122.93L262.43,6.86a34.58,34.58,0,0,0-33.61,0L20.25,122.93A34.55,34.55,0,0,0,2.5,153.13Z"/><path class="cls-2" d="M475.53,237.19l-3.84-3.84,3.84-3.85a3.1,3.1,0,0,0-4.39-4.39L467.3,229l-3.85-3.85a3.11,3.11,0,0,0-4.39,0h0a3.11,3.11,0,0,0,0,4.39l3.84,3.85-3.84,3.84a3.11,3.11,0,0,0,4.39,4.4l3.85-3.85,3.84,3.85a3.11,3.11,0,0,0,4.39,0h0A3.1,3.1,0,0,0,475.53,237.19Z"/><path class="cls-3" d="M421.06,393.18l-4.89,2.38-2.37-4.89a3.11,3.11,0,1,0-5.59,2.71l2.37,4.89-4.89,2.38a3.1,3.1,0,0,0-1.43,4.15h0a3.1,3.1,0,0,0,4.15,1.43l4.89-2.37,2.37,4.89a3.11,3.11,0,1,0,5.59-2.71l-2.37-4.89,4.89-2.38a3.11,3.11,0,0,0,1.43-4.15h0A3.1,3.1,0,0,0,421.06,393.18Z"/><g class="cls-4"><path class="cls-5" d="M371.06,117.47l-4.89,2.37L363.8,115a3.11,3.11,0,1,0-5.59,2.71l2.37,4.9-4.89,2.37a3.11,3.11,0,0,0-1.44,4.15h0a3.11,3.11,0,0,0,4.15,1.44l4.9-2.38,2.37,4.9a3.11,3.11,0,0,0,5.59-2.72l-2.38-4.89,4.89-2.37a3.1,3.1,0,0,0,1.44-4.15h0A3.1,3.1,0,0,0,371.06,117.47Z"/></g><g class="cls-4"><path class="cls-6" d="M315,512.22,310.1,510l2.27-4.94a3.11,3.11,0,0,0-5.64-2.6l-2.28,4.94-4.93-2.27a3.11,3.11,0,0,0-4.13,1.52h0a3.11,3.11,0,0,0,1.53,4.12l4.94,2.27-2.28,4.94a3.11,3.11,0,1,0,5.64,2.6l2.28-4.94,4.94,2.28a3.11,3.11,0,0,0,4.12-1.53h0A3.11,3.11,0,0,0,315,512.22Z"/></g><g class="cls-4"><path class="cls-7" d="M122.9,152.91l-5.44-.07.07-5.44a3.11,3.11,0,1,0-6.21-.08l-.07,5.43-5.44-.07a3.12,3.12,0,0,0-3.15,3.06h0a3.11,3.11,0,0,0,3.07,3.15l5.43.08-.07,5.43a3.11,3.11,0,0,0,6.21.09l.08-5.44,5.43.07a3.1,3.1,0,0,0,3.15-3.06h0A3.11,3.11,0,0,0,122.9,152.91Z"/></g><g class="cls-4"><path class="cls-8" d="M302.91,324.09l-5.43-.07.07-5.44a3.11,3.11,0,1,0-6.21-.08l-.08,5.43-5.43-.07a3.11,3.11,0,0,0-3.15,3.06h0a3.11,3.11,0,0,0,3.06,3.15l5.44.08-.07,5.43a3.11,3.11,0,1,0,6.21.09l.07-5.44,5.44.07a3.11,3.11,0,0,0,3.15-3.06h0A3.11,3.11,0,0,0,302.91,324.09Z"/></g><g class="cls-4"><path class="cls-7" d="M84.85,430.89l-5.44-.07.07-5.44a3.11,3.11,0,1,0-6.21-.08l-.07,5.43-5.44-.07a3.12,3.12,0,0,0-3.15,3.07h0a3.1,3.1,0,0,0,3.07,3.14l5.44.08L73,442.38a3.11,3.11,0,0,0,6.21.09l.08-5.44,5.43.07A3.1,3.1,0,0,0,87.91,434h0A3.11,3.11,0,0,0,84.85,430.89Z"/></g></g></g></svg>