<svg xmlns="http://www.w3.org/2000/svg" xmlns:xlink="http://www.w3.org/1999/xlink" viewBox="0 0 593.72 641.75"><defs><style>.cls-1{stroke:#2f2e3f;stroke-miterlimit:10;stroke-width:5px;fill:url(#linear-gradient);}.cls-2{fill:#35b764;}.cls-2,.cls-3{opacity:0.5;}.cls-4{fill:#ffc050;}.cls-5{fill:#ff4e5b;}.cls-6{fill:#f41e4c;}.cls-7{fill:#a2dff9;}.cls-8{fill:#ca51fc;}</style><linearGradient id="linear-gradient" x1="525.88" y1="-97.99" x2="195.82" y2="433.49" gradientUnits="userSpaceOnUse"><stop offset="0" stop-color="#3b394f"/><stop offset="1" stop-color="#313689"/></linearGradient></defs><title>Asset 83</title><g id="Layer_2" data-name="Layer 2"><g id="Art"><g id="Page-1"><g id="Home-Page-Mobile"><g id="Group-22"><g id="ngx-logo"><path id="Shape" class="cls-1" d="M296.88,2.65h0L16.75,102.52A21.47,21.47,0,0,0,2.64,125.19l42,363.71a21.48,21.48,0,0,0,10.92,16.31L296.88,638.9h0l241.3-133.69A21.45,21.45,0,0,0,549.1,488.9l42-363.71A21.44,21.44,0,0,0,577,102.52Z"/></g></g></g></g><path class="cls-2" d="M462.13,166.79l-3.85-3.85,3.85-3.84a3.11,3.11,0,0,0-4.4-4.4l-3.84,3.85L450,154.7a3.1,3.1,0,0,0-4.39,0h0a3.11,3.11,0,0,0,0,4.39l3.85,3.84-3.85,3.85a3.1,3.1,0,0,0,4.39,4.39l3.85-3.85,3.84,3.85a3.12,3.12,0,0,0,4.4,0h0A3.11,3.11,0,0,0,462.13,166.79Z"/><g class="cls-3"><path class="cls-4" d="M180.58,247.63,175.69,250l-2.37-4.89a3.11,3.11,0,1,0-5.59,2.72l2.37,4.89-4.89,2.37a3.11,3.11,0,0,0-1.44,4.15h0a3.1,3.1,0,0,0,4.15,1.44l4.89-2.37,2.38,4.89a3.11,3.11,0,0,0,5.59-2.72l-2.38-4.89,4.89-2.37a3.1,3.1,0,0,0,1.44-4.15h0A3.1,3.1,0,0,0,180.58,247.63Z"/></g><g class="cls-3"><path class="cls-5" d="M518.32,293.64,513.43,296l-2.38-4.89a3.11,3.11,0,1,0-5.59,2.71l2.38,4.89L503,301.1a3.1,3.1,0,0,0-1.44,4.15h0a3.11,3.11,0,0,0,4.15,1.44l4.89-2.38,2.38,4.89a3.1,3.1,0,1,0,5.58-2.71l-2.37-4.89,4.89-2.38a3.1,3.1,0,0,0,1.44-4.15h0A3.11,3.11,0,0,0,518.32,293.64Z"/></g><g class="cls-3"><path class="cls-6" d="M343.91,515.53,339,513.26l2.28-4.94a3.11,3.11,0,0,0-5.65-2.6l-2.27,4.94-4.94-2.27a3.1,3.1,0,0,0-4.12,1.52h0a3.1,3.1,0,0,0,1.52,4.12l4.94,2.27-2.27,4.94a3.11,3.11,0,1,0,5.64,2.6l2.27-4.94,4.94,2.28a3.12,3.12,0,0,0,4.12-1.52h0A3.11,3.11,0,0,0,343.91,515.53Z"/></g><g class="cls-3"><path class="cls-7" d="M90.43,135.11,85,135l.07-5.43a3.11,3.11,0,0,0-6.21-.09L78.78,135l-5.44-.07a3.1,3.1,0,0,0-3.15,3.06h0a3.12,3.12,0,0,0,3.07,3.15l5.43.07-.07,5.44a3.11,3.11,0,0,0,6.21.08l.07-5.44,5.44.08a3.11,3.11,0,0,0,3.15-3.07h0A3.1,3.1,0,0,0,90.43,135.11Z"/></g><g class="cls-3"><path class="cls-8" d="M113.72,434.2l-5.43-.07.07-5.44a3.11,3.11,0,1,0-6.21-.08l-.08,5.44L96.64,434A3.11,3.11,0,0,0,93.49,437h0a3.1,3.1,0,0,0,3.06,3.14l5.44.08-.07,5.43a3.11,3.11,0,1,0,6.21.09l.07-5.44,5.44.07a3.1,3.1,0,0,0,3.15-3.06h0A3.12,3.12,0,0,0,113.72,434.2Z"/></g></g></g></svg>