<svg xmlns="http://www.w3.org/2000/svg" xmlns:xlink="http://www.w3.org/1999/xlink" viewBox="0 0 778.62 778.62"><defs><style>.cls-1{stroke:#2f2e3f;stroke-miterlimit:10;stroke-width:7px;fill:url(#linear-gradient);}.cls-2{fill:#35b764;}.cls-2,.cls-4{opacity:0.5;}.cls-3{fill:#6e3fff;}.cls-5{fill:#ff4e5b;}.cls-6{fill:#a2dff9;}</style><linearGradient id="linear-gradient" x1="-38" y1="796.83" x2="621.88" y2="167.51" gradientUnits="userSpaceOnUse"><stop offset="0" stop-color="#3b394f"/><stop offset="0.29" stop-color="#3b3952"/><stop offset="0.5" stop-color="#3a395b"/><stop offset="0.67" stop-color="#393a6a"/><stop offset="0.83" stop-color="#373a80"/><stop offset="0.98" stop-color="#353b9c"/><stop offset="1" stop-color="#353ba0"/></linearGradient></defs><title>Asset 87</title><g id="Layer_2" data-name="Layer 2"><g id="Art"><rect class="cls-1" x="3.5" y="3.5" width="771.62" height="771.62" rx="63.34" ry="63.34"/><path class="cls-2" d="M381.32,470.6l-3.84-3.85,3.84-3.84a3.1,3.1,0,0,0-4.39-4.39l-3.84,3.84-3.85-3.84a3.09,3.09,0,0,0-4.39,0h0a3.11,3.11,0,0,0,0,4.39l3.84,3.84-3.84,3.85a3.1,3.1,0,0,0,4.39,4.39l3.85-3.84,3.84,3.84a3.11,3.11,0,0,0,4.39,0h0A3.09,3.09,0,0,0,381.32,470.6Z"/><path class="cls-3" d="M691,405.45l-4.89,2.38-2.37-4.89a3.11,3.11,0,0,0-5.59,2.71l2.37,4.89-4.89,2.38a3.12,3.12,0,0,0-1.44,4.15h0a3.13,3.13,0,0,0,4.16,1.44l4.89-2.38,2.37,4.89a3.11,3.11,0,1,0,5.59-2.71l-2.37-4.89,4.89-2.38a3.1,3.1,0,0,0,1.43-4.15h0A3.11,3.11,0,0,0,691,405.45Z"/><g class="cls-4"><path class="cls-5" d="M528.92,121.49,524,123.86,521.65,119a3.11,3.11,0,0,0-5.59,2.71l2.38,4.89L513.55,129a3.1,3.1,0,0,0-1.44,4.15h0a3.11,3.11,0,0,0,4.15,1.44l4.89-2.38,2.38,4.89a3.1,3.1,0,1,0,5.58-2.71l-2.37-4.89,4.89-2.38a3.1,3.1,0,0,0,1.44-4.15h0A3.11,3.11,0,0,0,528.92,121.49Z"/></g><g class="cls-4"><path class="cls-6" d="M84.7,125,79.26,125l.07-5.44a3.11,3.11,0,1,0-6.21-.08l-.07,5.43-5.44-.07a3.12,3.12,0,0,0-3.15,3.06h0A3.11,3.11,0,0,0,67.53,131l5.43.08-.07,5.43a3.11,3.11,0,1,0,6.21.09l.08-5.44,5.43.07a3.1,3.1,0,0,0,3.15-3.06h0A3.11,3.11,0,0,0,84.7,125Z"/></g><g class="cls-4"><path class="cls-6" d="M121,635.93l-5.44-.08.08-5.43a3.11,3.11,0,0,0-6.21-.09l-.08,5.44-5.43-.07a3.09,3.09,0,0,0-3.15,3.06h0a3.12,3.12,0,0,0,3.06,3.15l5.44.07-.07,5.44a3.11,3.11,0,1,0,6.21.08l.07-5.44,5.44.08a3.12,3.12,0,0,0,3.15-3.07h0A3.1,3.1,0,0,0,121,635.93Z"/></g></g></g></svg>