<svg xmlns="http://www.w3.org/2000/svg" xmlns:xlink="http://www.w3.org/1999/xlink" viewBox="0 0 746.36 746.36"><defs><style>.cls-1{stroke:#2f2e3f;stroke-miterlimit:10;stroke-width:5px;fill:url(#linear-gradient);}.cls-2{fill:#fca2ad;}.cls-3{opacity:0.8;}.cls-4{fill:#ff4e5b;}.cls-5{fill:#a2dff9;}.cls-6{opacity:0.6;}.cls-7{fill:#6e3fff;}</style><linearGradient id="linear-gradient" x1="170.08" y1="-164.96" x2="418.1" y2="492.2" gradientTransform="translate(-154.58 373.18) rotate(-45)" gradientUnits="userSpaceOnUse"><stop offset="0" stop-color="#3b394f"/><stop offset="0.29" stop-color="#3b3952"/><stop offset="0.5" stop-color="#3a395b"/><stop offset="0.67" stop-color="#393a6a"/><stop offset="0.83" stop-color="#373a80"/><stop offset="0.98" stop-color="#353b9c"/><stop offset="1" stop-color="#353ba0"/></linearGradient></defs><title>Asset 78</title><g id="Layer_2" data-name="Layer 2"><g id="Art"><rect class="cls-1" x="96.84" y="96.84" width="552.68" height="552.68" rx="48.58" ry="48.58" transform="translate(373.18 -154.58) rotate(45)"/><path class="cls-2" d="M389,636.6l-5.1-.07.07-5.1a2.91,2.91,0,1,0-5.82-.08l-.07,5.1-5.1-.07a2.92,2.92,0,0,0-2.95,2.88h0a2.91,2.91,0,0,0,2.87,3l5.1.07-.07,5.1a2.92,2.92,0,0,0,5.83.08l.07-5.1,5.1.07a2.92,2.92,0,0,0,2.95-2.88h0A2.92,2.92,0,0,0,389,636.6Z"/><g class="cls-3"><path class="cls-4" d="M448.34,200.57l-4.59,2.23-2.23-4.59a2.91,2.91,0,1,0-5.24,2.55l2.23,4.58-4.59,2.23a2.91,2.91,0,0,0-1.34,3.89h0a2.91,2.91,0,0,0,3.89,1.35l4.58-2.23,2.23,4.59a2.91,2.91,0,1,0,5.24-2.54L446.3,208l4.58-2.23a2.91,2.91,0,0,0,1.35-3.89h0A2.91,2.91,0,0,0,448.34,200.57Z"/></g><path class="cls-5" d="M568.12,314.8l-3.61-3.6,3.61-3.61a2.91,2.91,0,0,0-4.12-4.12l-3.61,3.61-3.61-3.61a2.9,2.9,0,0,0-4.11,0h0a2.91,2.91,0,0,0,0,4.12l3.6,3.61-3.6,3.6a2.91,2.91,0,1,0,4.11,4.12l3.61-3.6,3.61,3.6a2.91,2.91,0,0,0,4.12,0h0A2.93,2.93,0,0,0,568.12,314.8Z"/><g class="cls-6"><path class="cls-7" d="M298.37,494.12l-4.59,2.22-2.23-4.58a2.91,2.91,0,0,0-5.24,2.54l2.23,4.59L284,501.11a2.92,2.92,0,0,0-1.34,3.9h0a2.9,2.9,0,0,0,3.89,1.34l4.59-2.22,2.22,4.58a2.91,2.91,0,1,0,5.24-2.54l-2.22-4.59,4.58-2.22a2.92,2.92,0,0,0,1.35-3.9h0A2.9,2.9,0,0,0,298.37,494.12Z"/></g><path class="cls-5" d="M175.34,340.59l-5.1-.07.07-5.1a2.91,2.91,0,0,0-5.82-.08l-.07,5.1-5.1-.07a2.91,2.91,0,0,0-2.95,2.87h0a2.91,2.91,0,0,0,2.87,2.95l5.1.07-.07,5.1a2.92,2.92,0,0,0,5.83.08l.06-5.1,5.1.07a2.92,2.92,0,0,0,3-2.87h0A2.92,2.92,0,0,0,175.34,340.59Z"/></g></g></svg>