<?xml version="1.0" encoding="UTF-8"?>
<svg width="15px" height="27px" viewBox="0 0 15 27" version="1.1" xmlns="http://www.w3.org/2000/svg" xmlns:xlink="http://www.w3.org/1999/xlink">
    <!-- Generator: Sketch 47.1 (45422) - http://www.bohemiancoding.com/sketch -->
    <title>Shape</title>
    <desc>Created with Sketch.</desc>
    <defs></defs>
    <g id="Page-1" stroke="none" stroke-width="1" fill="none" fill-rule="evenodd">
        <g id="Artboard-Copy-7" transform="translate(-1285.000000, -33.000000)" fill-rule="nonzero" fill="#FFFFFF">
            <g id="Group-8" transform="translate(1077.000000, 33.000000)">
                <g id="facebook-logo" transform="translate(208.000000, 0.000000)">
                    <path d="M14.1761321,0.00555746141 L10.6483019,0 C6.68490566,0 4.12358491,2.58005146 4.12358491,6.57336535 L4.12358491,9.60412693 L0.576509434,9.60412693 C0.27,9.60412693 0.0217924528,9.84809949 0.0217924528,10.149036 L0.0217924528,14.5402642 C0.0217924528,14.8412007 0.270283019,15.0848954 0.576509434,15.0848954 L4.12358491,15.0848954 L4.12358491,26.1653619 C4.12358491,26.4662985 4.37179245,26.7099931 4.67830189,26.7099931 L9.30622642,26.7099931 C9.61273585,26.7099931 9.8609434,26.4660206 9.8609434,26.1653619 L9.8609434,15.0848954 L14.0083019,15.0848954 C14.3148113,15.0848954 14.5630189,14.8412007 14.5630189,14.5402642 L14.564717,10.149036 C14.564717,10.004542 14.5061321,9.86616123 14.4022642,9.76390395 C14.2983962,9.66164666 14.1568868,9.60412693 14.009717,9.60412693 L9.8609434,9.60412693 L9.8609434,7.03491252 C9.8609434,5.8000446 10.1606604,5.17316295 11.7990566,5.17316295 L14.175566,5.17232933 C14.4817925,5.17232933 14.73,4.92835678 14.73,4.62769811 L14.73,0.550188679 C14.73,0.24980789 14.4820755,0.00611320755 14.1761321,0.00555746141 Z" id="Shape"></path>
                </g>
            </g>
        </g>
    </g>
</svg>