<?xml version="1.0" encoding="UTF-8"?>
<svg width="30px" height="23px" viewBox="0 0 30 23" version="1.1" xmlns="http://www.w3.org/2000/svg" xmlns:xlink="http://www.w3.org/1999/xlink">
    <!-- Generator: Sketch 47.1 (45422) - http://www.bohemiancoding.com/sketch -->
    <title>Github__x28_alt_x29_</title>
    <desc>Created with Sketch.</desc>
    <defs></defs>
    <g id="Page-1" stroke="none" stroke-width="1" fill="none" fill-rule="evenodd">
        <g id="Artboard-Copy-7" transform="translate(-1181.000000, -37.000000)" fill-rule="nonzero" fill="#FFFFFF">
            <g id="Group-8" transform="translate(1077.000000, 33.000000)">
                <g id="github-logo" transform="translate(104.000000, 4.000000)">
                    <path d="M21.903,0 C22.293,0.873014286 22.5456667,2.323 22.1686667,3.38461429 C23.7103333,4.68214286 24.2403333,7.83642857 23.496,10.4140714 C25.6933333,10.5793429 28.3106667,10.3345571 30,10.9992571 C28.4206667,10.7991571 26.2636667,10.4065143 24.2266667,10.5432 C23.8406667,10.5691571 23.269,10.5287429 23.297,11.0639857 C25.655,11.2463429 27.9983333,11.4451286 29.9343333,12.0408286 C28.014,11.7316429 25.683,11.2604714 23.297,11.1950857 C22.3113333,13.1123 20.3276667,14.0546429 17.5893333,14.2531 C17.8836667,14.8846143 18.4473333,15.1248 18.585,16.1404143 C18.7903333,17.6577571 18.2636667,19.8798857 18.7833333,20.8912286 C19.0326667,21.3758714 19.439,21.3886857 19.713,21.8030143 C19.0423333,22.5853429 17.3796667,21.7149571 17.1903333,20.8912286 C16.866,19.4800143 17.6843333,17.2923857 16.793,16.3355857 C16.8556667,17.8749429 16.4236667,20.0366143 16.8593333,21.4116857 C17.031,21.9525143 17.5266667,22.1611571 17.3903333,22.6490857 C14.273,22.9609 15.576,18.6720571 15.0663333,16.1400857 C14.596,16.1732714 14.8026667,16.8343571 14.801,17.1166 C14.7876667,19.5887714 15.3143333,22.9796286 12.611,22.6490857 C12.532,22.1292857 12.9736667,21.9528429 13.142,21.4783857 C13.635,20.0875429 13.0496667,18.0145857 13.2756667,16.3359143 C12.244,17.1028 13.384,19.7793429 12.7446667,21.1517857 C12.3763333,21.9416714 11.1893333,22.2853571 10.289,21.9328 C10.4063333,21.3446571 11.0223333,21.4396143 11.2836667,20.8915571 C11.649,20.1279571 11.2863333,19.0272429 11.4166667,17.8979429 C9.507,18.2738286 8.02566667,17.8434 7.30066667,16.6612 C6.97633333,16.1305571 6.896,15.5046286 6.504,15.0344429 C6.114,14.5639286 5.49066667,14.5005143 5.31,13.8637429 C7.675,13.3025429 7.76566667,16.2629714 9.88966667,16.3359143 C10.541,16.3592429 10.8796667,16.1509286 11.4823333,16.0112857 C11.651,15.2647714 12.012,14.7078429 12.5443333,14.3181571 C9.90133333,13.9616571 7.71866667,13.1504143 6.70366667,11.1954143 C4.301,11.3117286 2.10233333,11.6281429 0.066,12.1058857 C1.91433333,11.4441429 4.194,11.2069143 6.63766667,11.1290429 C6.49366667,10.2760714 5.23133333,10.5106714 4.44766667,10.5435286 C2.991,10.6066143 1.15766667,10.7850286 0,10.9992571 C1.678,10.4094714 4.03266667,10.4830714 6.306,10.4784714 C5.61066667,8.32961429 5.85166667,4.91608571 7.368,3.64484286 C6.93833333,2.57731429 7.07166667,0.831285714 7.63333333,0 C9.32633333,0.0749142857 10.353,0.8027 11.4166667,1.4973 C12.7356667,1.12765714 14.1226667,0.943657143 15.93,1.04157143 C16.69,1.08297143 17.4803333,1.41975714 18.053,1.36652857 C18.6146667,1.31461429 19.2336667,0.693285714 19.779,0.456057143 C20.4893333,0.146871429 21.0903333,0.0289142857 21.903,0 Z" id="Github__x28_alt_x29_"></path>
                </g>
            </g>
        </g>
    </g>
</svg>