<?xml version="1.0" encoding="UTF-8"?>
<svg width="26px" height="25px" viewBox="0 0 26 25" version="1.1" xmlns="http://www.w3.org/2000/svg" xmlns:xlink="http://www.w3.org/1999/xlink">
    <!-- Generator: Sketch 47.1 (45422) - http://www.bohemiancoding.com/sketch -->
    <title>LinkedIn</title>
    <desc>Created with Sketch.</desc>
    <defs></defs>
    <g id="Page-1" stroke="none" stroke-width="1" fill="none" fill-rule="evenodd">
        <g id="Artboard-Copy-7" transform="translate(-1235.000000, -35.000000)" fill-rule="nonzero" fill="#FFFFFF">
            <g id="Group-8" transform="translate(1077.000000, 33.000000)">
                <g id="linkedin-logo" transform="translate(158.000000, 2.000000)">
                    <path d="M26,15.3274802 L26,25 L20.4273581,25 L20.4273581,15.9752872 C20.4273581,13.7082058 19.6213356,12.1610114 17.604224,12.1610114 C16.064415,12.1610114 15.1480737,13.203707 14.7449415,14.2123396 C14.5979303,14.5729218 14.5600895,15.074805 14.5600895,15.5795471 L14.5600895,25 L8.98557369,25 C8.98557369,25 9.06065094,9.71509871 8.98557369,8.13146895 L14.5595454,8.13146895 L14.5595454,10.5225157 C14.5482415,10.5403988 14.5335525,10.559681 14.5229135,10.5770167 L14.5595454,10.5770167 L14.5595454,10.5225157 C15.3001021,9.3747719 16.6226585,7.73518134 19.5829507,7.73518134 C23.2505528,7.73512051 26,10.1461185 26,15.3274802 Z M3.15439287,0 C1.24735828,0 0,1.25869217 0,2.91391526 C0,4.53306797 1.21127042,5.82995946 3.0804037,5.82995946 L3.11764008,5.82995946 C5.06160882,5.82995946 6.27058219,4.53331127 6.27058219,2.91391526 C6.2339503,1.25869217 5.06160882,0 3.15439287,0 Z M0.331077358,25 L5.90347743,25 L5.90347743,8.13146895 L0.331077358,8.13146895 L0.331077358,25 Z" id="LinkedIn"></path>
                </g>
            </g>
        </g>
    </g>
</svg>