<svg xmlns="http://www.w3.org/2000/svg" viewBox="0 0 1032.03 747.56"><defs><style>.cls-1{fill:#d6d3ff;}.cls-2{fill:#ccc5fe;}.cls-3{fill:#ae9eff;}.cls-4{fill:none;stroke:#a893fa;stroke-miterlimit:10;stroke-width:10px;}</style></defs><title>Asset 46</title><g id="Layer_2" data-name="Layer 2"><g id="Art"><path class="cls-1" d="M1032,191.8V381.69c0,14.38-7.24,22.32-17.13,20.32a20.82,20.82,0,0,1-6.41-2.52L860.21,313.88V215.7c0-23.8-14.47-51.44-32.32-61.74l-14.68-8.48v-80c0-6.53,1.49-11.73,4-15.28,4.24-5.87,11.39-7.2,19.49-2.52l171.74,99.15C1021.49,154.33,1032,174.47,1032,191.8Z"/><path class="cls-2" d="M836.79,512.61a25.64,25.64,0,0,1-5.09-.52,33.89,33.89,0,0,1-10.32-4L651.71,410.1V280c0-26.67-16.12-57.68-35.94-69.11l-64.89-37.46V45.31c0-9.72,2.25-18,6.51-23.89C565,10.93,577.73,9.06,590.7,16.55l221,127.6,14.68,8.48c19.52,11.27,34.82,40.29,34.82,66.07V479.3c0,12.67-3.83,22.78-10.78,28.47A21.12,21.12,0,0,1,836.79,512.61ZM661.71,404.32,826.39,499.4a24.21,24.21,0,0,0,7.28,2.89A12,12,0,0,0,844.1,500c4.52-3.7,7.11-11.26,7.11-20.73V218.7c0-22.17-13.38-47.92-29.82-57.41l-14.68-8.48-221-127.6c-4.93-2.85-14.11-6.37-20.2,2.06-3,4.19-4.62,10.43-4.62,18V167.68l59.89,34.58c23,13.25,40.94,47.41,40.94,77.77Z"/><path class="cls-2" d="M774.34,257.23V372.66c0,18.59-11.31,27.14-25.25,19.09l-92.38-53.34V280c0-28.3-17.21-61.19-38.44-73.44l-2.2-1.27V165.86c0-18.59,11.3-27.14,25.24-19.09L749.09,209C763,217.05,774.34,238.64,774.34,257.23Z"/><path class="cls-3" d="M660.71,277V587c0,23.48-11.83,36.43-28,33.18a34.75,34.75,0,0,1-10.46-4.12L456.49,520.39V308.22c0-35.77-21.75-77.33-48.58-92.82L303.46,155.1V70.78c0-10.67,2.44-19.16,6.62-25,6.92-9.58,18.59-11.75,31.82-4.12l218,125.86,60.19,34.75,2.2,1.27C643.5,215.84,660.71,248.73,660.71,277Z"/><path class="cls-4" d="M456.49,308.22V700c0,29.67-14.95,46-35.36,41.93a43.7,43.7,0,0,1-13.22-5.2L53.58,532.16C26.75,516.67,5,475.11,5,439.34V47.56C5,34.08,8.09,23.35,13.37,16c8.74-12.11,23.49-14.85,40.21-5.2L303.46,155.1l104.45,60.3C434.74,230.89,456.49,272.45,456.49,308.22Z"/></g></g></svg>