<svg xmlns="http://www.w3.org/2000/svg" viewBox="0 0 1006.63 573.26"><defs><style>.cls-1{fill:none;}.cls-1,.cls-4{stroke:#ccc5fe;stroke-miterlimit:10;stroke-width:10px;}.cls-2{fill:#ae9eff;}.cls-3{fill:#ccc5fe;opacity:0.27;}.cls-4{fill:#fff;}</style></defs><title>Asset 43</title><g id="Layer_2" data-name="Layer 2"><g id="Art"><path class="cls-1" d="M849.62,331.22l39-22.54a29.92,29.92,0,0,0,0-51.83L465.58,12.58a56.68,56.68,0,0,0-56.64,0L20,237.16A29.91,29.91,0,0,0,20,289L436,529.19a70.75,70.75,0,0,0,70.73,0L657,442.44l40.15-23.19,62.6-36.14"/><path class="cls-2" d="M714.84,267.7c0-31.95-45-57.94-100.38-57.95H514.09c-8.53,0-15.44,4-15.44,8.91s6.91,8.92,15.44,8.92H614.46c18.46,0,35.89,4.19,49.06,11.79S684,257,684,267.7,676.7,288.42,663.52,296s-30.6,11.79-49.06,11.79H483.2c-38.32,0-69.49-18-69.5-40.13,0-4.92-6.91-8.91-15.44-8.91s-15.44,4-15.44,8.91c0,16,11.26,30.47,29.44,41s43.27,17,70.94,17H614.46c26.71,0,51.9-6,70.91-17S714.84,283.13,714.84,267.7Z"/><path class="cls-2" d="M382.83,307.82H297.9c-18.47,0-35.9-4.19-49.07-11.79S228.4,278.36,228.4,267.7c0-22.12,31.18-40.12,69.49-40.12H421.44c18.46,0,35.89,4.19,49.06,11.79S490.92,257,490.93,267.7c0,4.92,6.91,8.91,15.44,8.91s15.44-4,15.44-8.91c0-31.95-45-57.95-100.38-57.95H297.88c-26.71,0-51.89,6-70.9,17s-29.46,25.52-29.46,40.94,10.46,30,29.46,40.93,44.19,17,70.91,17h84.93c8.53,0,15.44-4,15.44-8.92S391.36,307.82,382.83,307.82Z"/><path class="cls-3" d="M982.05,552.57l-31.54,18.21c-6.36,3.67-17.47,3.21-24.81-1L748.33,467.34l-38.11,42.82c-3.19,3.58-12.28,3.18-14.48-.64L610.61,362.08c-2.05-3.56,3.81-6.94,10-5.76L876,405.47c6.62,1.27,7.32,6.52,1.11,8.36l-74.16,22L980.27,538.24C987.61,542.48,988.41,548.89,982.05,552.57Z"/><path class="cls-4" d="M997.33,486.33l-31.54,18.21c-6.36,3.67-17.47,3.21-24.81-1L763.61,401.1,725.5,443.92c-3.19,3.58-12.28,3.18-14.48-.64L625.89,295.84c-2-3.56,3.81-6.94,10-5.76l255.37,49.15c6.62,1.27,7.32,6.52,1.11,8.36l-74.16,22L995.55,472C1002.89,476.24,1003.69,482.65,997.33,486.33Z"/></g></g></svg>