<svg xmlns="http://www.w3.org/2000/svg" viewBox="0 0 518.68 522.81"><defs><style>.cls-1,.cls-4{fill:none;}.cls-1{stroke:#ccc5fe;stroke-miterlimit:10;stroke-width:10px;}.cls-2{fill:#8e39f5;}.cls-3{fill:#ae9eff;}</style></defs><title>Asset 42</title><g id="Layer_2" data-name="Layer 2"><g id="Art"><path class="cls-1" d="M344.77,308.08l153.3,88.52c4.26,2.46,8.27,3.31,11.75,2.74,2.45-3.64,3.86-8.83,3.86-15.28V229.12c0-17.87-10.86-38.62-24.26-46.36L318.3,84C314,81.5,310,80.65,306.54,81.22c-2.44,3.64-3.85,8.83-3.85,15.28v70.55"/><path class="cls-1" d="M344.76,242.72c-.15-15.46-5.29-32.18-13.37-46.24h0c-6.87-12-15.86-22-25.7-27.69l-17.41-10.05-45.59-26.32L177.54,94.79,153.76,81.06,30.14,9.69c-6.87-4-13.33-5.33-18.93-4.41C7.28,11.14,5,19.5,5,29.88V279.37C5,308.15,22.5,341.58,44.08,354l65.57,37.86,26.27,15.16L319.63,513.13c6.86,4,13.32,5.33,18.92,4.41,3.94-5.86,6.22-14.22,6.22-24.6V243.44C344.77,243.2,344.77,243,344.76,242.72ZM187,204.57a8.14,8.14,0,0,1,2.82,3.81l.16.4c1.65,4.69-.59,7.74-4.7,5.73l-.25-.13a.71.71,0,0,0-.09-.07,8.93,8.93,0,0,1-2.76-3.55c-.06-.16-.11-.34-.16-.51-.27-1-.55-1.92-.83-2.87a5.2,5.2,0,0,1,0-2.3c0-.16,0-.33.07-.49.22-.33.45-.66.68-1,1.12-1.33,2.86-.32,4.62.72A4.49,4.49,0,0,1,187,204.57Z"/><polygon class="cls-2" points="56.73 85.13 56.13 85.47 56.09 85.49 56.09 85.02 56.73 85.13"/><path class="cls-3" d="M80.33,155.58l0,0-.24.3a5.27,5.27,0,0,0,0-.78A3.33,3.33,0,0,1,80.33,155.58Z"/><path class="cls-3" d="M91.46,145.15a1.34,1.34,0,0,0-.24.12c0-.2,0-.41.07-.61C91.35,144.83,91.41,145,91.46,145.15Z"/><path class="cls-3" d="M96.12,142.49l-.08,0h0a3.32,3.32,0,0,0-.22-.41Z"/><path class="cls-3" d="M109.89,138.35h0l-.41.07c.06-.2.1-.39.15-.58A2.4,2.4,0,0,1,109.89,138.35Z"/><path class="cls-3" d="M116.55,137.82h-.18a2.42,2.42,0,0,0-.25-.47A5.77,5.77,0,0,1,116.55,137.82Z"/><path class="cls-3" d="M127.84,138.82h0s0-.06,0-.08Z"/><path class="cls-3" d="M133.52,140.11a.2.2,0,0,1-.11,0,2.23,2.23,0,0,0-.31-.36A5.63,5.63,0,0,1,133.52,140.11Z"/><path class="cls-3" d="M137.73,140.92c0,.16-.09.31-.14.45l-.4-.09A2,2,0,0,1,137.73,140.92Z"/><path class="cls-3" d="M141.8,142.36c0,.17-.09.35-.14.51a2,2,0,0,1-.35-.1A6.26,6.26,0,0,1,141.8,142.36Z"/><path class="cls-3" d="M70.7,222.48a.18.18,0,0,1-.09.08v-.06Z"/><path class="cls-3" d="M71.28,236.26a3.94,3.94,0,0,1-.31-.48c0-.12,0-.24,0-.36A6.8,6.8,0,0,1,71.28,236.26Z"/><path class="cls-3" d="M71.28,236.26a3.94,3.94,0,0,1-.31-.48c0-.12,0-.24,0-.36A6.8,6.8,0,0,1,71.28,236.26Z"/><path class="cls-3" d="M70.7,222.48a.18.18,0,0,1-.09.08v-.06Z"/><path class="cls-3" d="M71.09,219.85a1.48,1.48,0,0,0,0,.21,1.71,1.71,0,0,1-.11-.14v-.06a.11.11,0,0,1,.11,0Z"/><path class="cls-3" d="M72.92,206.22l-.06.29a4,4,0,0,1-.36-.78A6.4,6.4,0,0,1,72.92,206.22Z"/><path class="cls-3" d="M78.1,191.72l-.24.15h0c.12-.07.15-.27.22-.42,0,0,0,0,0,.06A1.62,1.62,0,0,1,78.1,191.72Z"/><path class="cls-3" d="M70.7,222.48a.18.18,0,0,1-.09.08v-.06Z"/><path class="cls-3" d="M71.09,219.85a1.48,1.48,0,0,0,0,.21,1.71,1.71,0,0,1-.11-.14v-.06a.11.11,0,0,1,.11,0Z"/><path class="cls-3" d="M170.25,361a11.43,11.43,0,0,1-1.17-1.69l.57.57C169.84,360.26,170,360.63,170.25,361Z"/><path class="cls-3" d="M71.28,236.26a3.94,3.94,0,0,1-.31-.48c0-.12,0-.24,0-.36A6.8,6.8,0,0,1,71.28,236.26Z"/><path class="cls-3" d="M210.38,264.49a6,6,0,0,1-1-.86C209.68,263.94,210,264.23,210.38,264.49Z"/><path class="cls-3" d="M133.64,293.73h0a2.22,2.22,0,0,1-.1-.31c-.24-1,.1-1.69-.2-2.67C133.93,291.94,133.57,292.74,133.64,293.73Z"/><path class="cls-3" d="M171.7,361.9l0,0-.15.05a3.56,3.56,0,0,1-1.26-1,11.43,11.43,0,0,1-1.17-1.69l.57.57c.63.59,1.25,1.19,1.87,1.79Z"/><path class="cls-3" d="M153.2,186.53a2.6,2.6,0,0,0-.23.37v-.09a2.83,2.83,0,0,1,0-.29A.72.72,0,0,1,153.2,186.53Z"/><path class="cls-3" d="M157.28,178.07a1.1,1.1,0,0,1-.59-.1c0-.1.05-.2.07-.3l0,0Z"/><path class="cls-3" d="M112.92,253.45c.06.2.1.38.14.57,0,0,0,0,0,.07a17.94,17.94,0,0,0,.12,2.4C112.64,255.27,113,254.46,112.92,253.45Z"/><path class="cls-3" d="M181.2,207.38c-.46-1-.47-1.82,0-2.3A5.2,5.2,0,0,0,181.2,207.38Z"/><path class="cls-4" d="M189.83,208.38a1.07,1.07,0,0,1,.09.19l.07.21"/><path class="cls-3" d="M72.92,206.22l-.06.29a4,4,0,0,1-.36-.78A6.4,6.4,0,0,1,72.92,206.22Z"/><path class="cls-3" d="M72.92,206.22l-.06.29a4,4,0,0,1-.36-.78A6.4,6.4,0,0,1,72.92,206.22Z"/><path class="cls-3" d="M113.94,236.19a2.42,2.42,0,0,1-.2,1C113.8,236.84,113.87,236.52,113.94,236.19Z"/><path class="cls-3" d="M246,280.49c-.08.63-.18,1.24-.27,1.87A7.4,7.4,0,0,1,246,280.49Z"/><path class="cls-3" d="M179.05,369.21a2.66,2.66,0,0,1-.61-.27l-.4-.23s0,0,0,0h0a.55.55,0,0,1,.41,0c.13.1.26.19.38.3A2.39,2.39,0,0,1,179.05,369.21Z"/><path class="cls-3" d="M86.44,183.25l-.12.05a.53.53,0,0,0,0-.12s0,0,0-.05Z"/><path class="cls-3" d="M71.08,219.85l-.11.07v-.06A.11.11,0,0,1,71.08,219.85Z"/><path class="cls-3" d="M224.92,393l-.25,0-.22,0a2.19,2.19,0,0,1-.57-.43l0-.07-.19-.32a2.6,2.6,0,0,1,.4.36l.4.24A3.54,3.54,0,0,1,224.92,393Z"/><path class="cls-3" d="M78.1,191.72l-.24.15h0c.12-.07.15-.27.22-.42,0,0,0,0,0,.06A1.62,1.62,0,0,1,78.1,191.72Z"/><path class="cls-3" d="M171.7,361.9l0,0c0-.08-.09-.17-.14-.26Z"/><path class="cls-3" d="M179.05,369.21a2.66,2.66,0,0,1-.61-.27l-.4-.23s0,0,0,0h0a.55.55,0,0,1,.41,0c.13.1.26.19.38.3A2.39,2.39,0,0,1,179.05,369.21Z"/><path class="cls-3" d="M86.44,183.25l-.12.05a.53.53,0,0,0,0-.12s0,0,0-.05Z"/><path class="cls-3" d="M143.85,165.61h-.12v0l0-.06Z"/><path class="cls-3" d="M148.26,170a.76.76,0,0,1-.28-.09l0,0a3.08,3.08,0,0,1-.63-.39l-.22-.19-.07-.07a2.63,2.63,0,0,0,.08-.3l.81.48Z"/><path class="cls-3" d="M153.61,174.55l-.14,0a.76.76,0,0,0,0-.11Z"/><path class="cls-3" d="M157.28,178.07a1.1,1.1,0,0,1-.59-.1c0-.1.05-.2.07-.3l0,0Z"/><path class="cls-3" d="M115.56,164.28a2,2,0,0,0-.07.26c-.06-.24-.11-.47-.16-.71Z"/><line class="cls-4" x1="121.86" y1="183.01" x2="121.85" y2="183.01"/><path class="cls-3" d="M129.77,188.51l-.18-.1a.28.28,0,0,1,.12,0A1.47,1.47,0,0,0,129.77,188.51Z"/><path class="cls-3" d="M71.09,219.85a1.48,1.48,0,0,0,0,.21,1.71,1.71,0,0,1-.11-.14v-.06a.11.11,0,0,1,.11,0Z"/><path class="cls-3" d="M148.32,170.08c0,.08-.06.18-.08.27a1.7,1.7,0,0,1-.3-.51.64.64,0,0,1,0-.47l.35.59Z"/><line class="cls-4" x1="121.86" y1="183.01" x2="121.85" y2="183.01"/><path class="cls-3" d="M143.85,165.61h-.12v0l0-.06Z"/><path class="cls-3" d="M150.28,146.53a1.74,1.74,0,0,0-.05.22,3.06,3.06,0,0,1-.36-.36A2.49,2.49,0,0,1,150.28,146.53Z"/><path class="cls-3" d="M224.92,393l-.25,0-.22,0a2.19,2.19,0,0,1-.57-.43l0-.07-1-.2a5.82,5.82,0,0,1-.52-.68,2.65,2.65,0,0,0,.3.11h.05a3.36,3.36,0,0,1,1,.44,2.6,2.6,0,0,1,.4.36l.4.24A3.54,3.54,0,0,1,224.92,393Z"/><path class="cls-3" d="M201.43,368l-1.09-.52A5.2,5.2,0,0,1,201.43,368Z"/><path class="cls-3" d="M209.8,389.39a3.18,3.18,0,0,1-.4,0,2.82,2.82,0,0,1-.21-.31A1.36,1.36,0,0,0,209.8,389.39Z"/><path class="cls-3" d="M213.25,393.78l-.06-.07c-.15-.19-.29-.4-.43-.61l-.22-.36a2.59,2.59,0,0,0,.51.42A2,2,0,0,0,213.25,393.78Z"/><path class="cls-3" d="M152.79,174.07c0,.12,0,.24,0,.36-.06-.07-.13-.12-.2-.19A1.56,1.56,0,0,1,152.79,174.07Z"/><path class="cls-3" d="M153.61,174.55l-.14,0a.76.76,0,0,0,0-.11Z"/><path class="cls-3" d="M179.05,369.21a2.66,2.66,0,0,1-.61-.27,2.13,2.13,0,0,0,.35.06A2.39,2.39,0,0,1,179.05,369.21Z"/><path class="cls-3" d="M224.05,392.45l-.21,0-1-.2a5.82,5.82,0,0,1-.52-.68,2.65,2.65,0,0,0,.3.11h.05a3.36,3.36,0,0,1,1,.44A2.6,2.6,0,0,1,224.05,392.45Z"/><path class="cls-3" d="M239.53,261.26c-.05,3.07-1.41,4.93-2.35,7.14a32.72,32.72,0,0,1-2.56,4.59c0-3,2-4,2.69-6.36A49.52,49.52,0,0,1,239.53,261.26Z"/><path class="cls-3" d="M171.7,361.9l0,0-.15.05a3.56,3.56,0,0,1-1.26-1,11.43,11.43,0,0,1-1.17-1.69l.57.57c.63.59,1.25,1.19,1.87,1.79Z"/><path class="cls-3" d="M178,368.71s0,0,0,0h0Z"/><path class="cls-3" d="M129.77,188.51l-.18-.1a.28.28,0,0,1,.12,0A1.47,1.47,0,0,0,129.77,188.51Z"/><path class="cls-3" d="M209.8,389.39a3.18,3.18,0,0,1-.4,0,2.82,2.82,0,0,1-.21-.31A1.36,1.36,0,0,0,209.8,389.39Z"/><path class="cls-3" d="M213.25,393.78l-.06-.07c-.15-.19-.29-.4-.43-.61l-.22-.36a2.59,2.59,0,0,0,.51.42A2,2,0,0,0,213.25,393.78Z"/><path class="cls-3" d="M138.64,195.62l-.09.32,0-.42Z"/><path class="cls-3" d="M149.51,207c0-.21-.11-.42-.16-.63l.15.15C149.51,206.7,149.51,206.86,149.51,207Z"/><path class="cls-3" d="M222.82,392.21a5.82,5.82,0,0,1-.52-.68,2.65,2.65,0,0,0,.3.11Z"/><path class="cls-3" d="M234.62,273c0-3,2-4,2.69-6.36a49.52,49.52,0,0,1,2.22-5.37C240.26,267.6,238.88,271.77,234.62,273Z"/><path class="cls-3" d="M209.8,389.39a3.18,3.18,0,0,1-.4,0,2.82,2.82,0,0,1-.21-.31A1.36,1.36,0,0,0,209.8,389.39Z"/><path class="cls-3" d="M224.92,393l-.25,0-.22-.24A3.54,3.54,0,0,1,224.92,393Z"/><path class="cls-3" d="M133.64,293.73h0a2.22,2.22,0,0,1-.1-.31,7.33,7.33,0,0,1-.2-2.67C133.93,291.94,133.57,292.74,133.64,293.73Z"/><path class="cls-3" d="M113.19,256.49c-.55-1.22-.21-2-.27-3,.06.2.1.38.14.57,0,0,0,0,0,.07A9.39,9.39,0,0,1,113.19,256.49Z"/><path class="cls-3" d="M109.89,138.35h0l-.41.07c.06-.2.1-.39.15-.58A2.4,2.4,0,0,1,109.89,138.35Z"/><path class="cls-3" d="M116.55,137.82h-.18a2.42,2.42,0,0,0-.25-.47A5.77,5.77,0,0,1,116.55,137.82Z"/><path class="cls-3" d="M109.89,138.35h0l-.41.07c.06-.2.1-.39.15-.58A2.4,2.4,0,0,1,109.89,138.35Z"/><path class="cls-3" d="M116.55,137.82h-.18a2.42,2.42,0,0,0-.25-.47A5.77,5.77,0,0,1,116.55,137.82Z"/><path class="cls-3" d="M118.12,150.5a.75.75,0,0,0,0,.16l-.31-.15Z"/><path class="cls-3" d="M86.44,183.25l-.12.05a.53.53,0,0,0,0-.12s0,0,0-.05Z"/><path class="cls-3" d="M91.46,145.15a1.34,1.34,0,0,0-.24.12c0-.2,0-.41.07-.61C91.35,144.83,91.41,145,91.46,145.15Z"/><path class="cls-3" d="M96.12,142.49l-.08,0h0a3.32,3.32,0,0,0-.22-.41Z"/><path class="cls-3" d="M96.12,142.49l-.08,0h0a3.32,3.32,0,0,0-.22-.41Z"/><path class="cls-3" d="M80.33,155.58l0,0-.24.3a5.27,5.27,0,0,0,0-.78A3.33,3.33,0,0,1,80.33,155.58Z"/><path class="cls-3" d="M80.33,155.58l0,0-.24.3a5.27,5.27,0,0,0,0-.78A3.33,3.33,0,0,1,80.33,155.58Z"/><path class="cls-3" d="M78.1,191.72l-.24.15h0c.12-.07.15-.27.22-.42,0,0,0,0,0,.06A1.62,1.62,0,0,1,78.1,191.72Z"/><path class="cls-3" d="M91.46,145.15a1.34,1.34,0,0,0-.24.12c0-.2,0-.41.07-.61C91.35,144.83,91.41,145,91.46,145.15Z"/><path class="cls-3" d="M118.12,150.5a.75.75,0,0,0,0,.16l-.31-.15Z"/><path class="cls-3" d="M123.46,150.44s0,.06,0,.08l-.11,0-.25-.2Z"/><path class="cls-3" d="M127.84,138.82h0s0-.06,0-.08Z"/><path class="cls-3" d="M141.8,142.36c0,.17-.09.35-.14.51a2,2,0,0,1-.35-.1A6.26,6.26,0,0,1,141.8,142.36Z"/><path class="cls-3" d="M136.6,158.72l-.06,0a.83.83,0,0,0,0-.15Z"/><path class="cls-3" d="M123.46,150.44s0,.06,0,.08l-.11,0-.25-.2Z"/><path class="cls-3" d="M127.84,138.82h0s0-.06,0-.08Z"/><path class="cls-3" d="M128.48,151.51s0,0,0,.07l-.09-.14Z"/><path class="cls-3" d="M133.52,140.11a.2.2,0,0,1-.11,0,2.23,2.23,0,0,0-.31-.36A5.63,5.63,0,0,1,133.52,140.11Z"/><path class="cls-3" d="M136.6,158.72l-.06,0a.83.83,0,0,0,0-.15Z"/><path class="cls-3" d="M139,161.14s0,0-.07,0,0-.15,0-.22Z"/><path class="cls-3" d="M150.28,146.53a1.74,1.74,0,0,0-.05.22,3.06,3.06,0,0,1-.36-.36A2.49,2.49,0,0,1,150.28,146.53Z"/><path class="cls-3" d="M137.73,140.92c0,.16-.09.31-.14.45l-.4-.09A2,2,0,0,1,137.73,140.92Z"/><path class="cls-3" d="M141.8,142.36c0,.17-.09.35-.14.51a2,2,0,0,1-.35-.1A6.26,6.26,0,0,1,141.8,142.36Z"/><path class="cls-3" d="M128.48,151.51s0,0,0,.07l-.09-.14Z"/><path class="cls-3" d="M133.52,140.11a.2.2,0,0,1-.11,0,2.23,2.23,0,0,0-.31-.36A5.63,5.63,0,0,1,133.52,140.11Z"/><path class="cls-3" d="M137.73,140.92c0,.16-.09.31-.14.45l-.4-.09A2,2,0,0,1,137.73,140.92Z"/><path class="cls-3" d="M149.51,207c0-.21-.11-.42-.16-.63l.15.15C149.51,206.7,149.51,206.86,149.51,207Z"/><path class="cls-3" d="M153.2,186.53a2.6,2.6,0,0,0-.23.37v-.09a2.83,2.83,0,0,1,0-.29A.72.72,0,0,1,153.2,186.53Z"/><path class="cls-3" d="M153.2,186.53a2.6,2.6,0,0,0-.23.37v-.09a2.83,2.83,0,0,1,0-.29A.72.72,0,0,1,153.2,186.53Z"/><path class="cls-3" d="M157.28,178.07a1.1,1.1,0,0,1-.59-.1c0-.1.05-.2.07-.3l0,0Z"/><path class="cls-3" d="M181.2,207.38c-.46-1-.47-1.82,0-2.3A5.2,5.2,0,0,0,181.2,207.38Z"/><path class="cls-4" d="M189.83,208.38a1.07,1.07,0,0,1,.09.19l.07.21"/><path class="cls-3" d="M139,185a.3.3,0,0,1-.08,0l0,0Z"/><path class="cls-3" d="M140.59,162.79a1.37,1.37,0,0,0-.37-.32l.18,0A3.45,3.45,0,0,1,140.59,162.79Z"/><path class="cls-3" d="M143.85,165.61h-.12v0l0-.06Z"/><path class="cls-3" d="M142.4,186.41l-.08.05-.11-.16Z"/><path class="cls-3" d="M147.31,169.45l-.22-.19-.07-.07a2.63,2.63,0,0,0,.08-.3A2.27,2.27,0,0,1,147.31,169.45Z"/><path class="cls-3" d="M142.4,186.41l-.08.05-.11-.16Z"/><path class="cls-3" d="M143.66,187.13l-.11.05-.12-.18Z"/><path class="cls-3" d="M148.32,170.08c0,.08-.06.18-.08.27a1.7,1.7,0,0,1-.3-.51,3.08,3.08,0,0,1-.63-.39l-.22-.19-.07-.07a2.63,2.63,0,0,0,.08-.3l.81.48.35.59Z"/><path class="cls-3" d="M152.79,174.07c0,.12,0,.24,0,.36-.06-.07-.13-.12-.2-.19A1.56,1.56,0,0,1,152.79,174.07Z"/><path class="cls-3" d="M153.61,174.55l-.14,0a.76.76,0,0,0,0-.11Z"/><path class="cls-3" d="M115.56,164.28a2,2,0,0,0-.07.26c-.06-.24-.11-.47-.16-.71Z"/><path class="cls-3" d="M117.75,169.92c-.06.13-.12.27-.17.4,0-.06-.06-.12-.09-.19A.86.86,0,0,1,117.75,169.92Z"/><path class="cls-3" d="M118.12,150.5a.75.75,0,0,0,0,.16l-.31-.15Z"/><path class="cls-3" d="M123.46,150.44s0,.06,0,.08l-.11,0-.25-.2Z"/><path class="cls-3" d="M128.48,151.51s0,0,0,.07l-.09-.14Z"/><path class="cls-3" d="M126.83,178.83l-.1,0h.07Z"/><path class="cls-3" d="M133.18,181.8a.52.52,0,0,1-.1.11l-.24-.16A.57.57,0,0,1,133.18,181.8Z"/><path class="cls-3" d="M136.6,158.72l-.06,0a.83.83,0,0,0,0-.15Z"/><path class="cls-3" d="M139.13,161.66a2.64,2.64,0,0,1-.14-.29,1.64,1.64,0,0,1,0-.23c0-.07,0-.15,0-.22l.09.22a2,2,0,0,1,.08.31C139.12,161.52,139.13,161.59,139.13,161.66Z"/><path class="cls-3" d="M117.75,169.92c-.06.13-.12.27-.17.4,0-.06-.06-.12-.09-.19A.86.86,0,0,1,117.75,169.92Z"/><line class="cls-4" x1="121.86" y1="183.01" x2="121.85" y2="183.01"/><path class="cls-3" d="M115.56,164.28a2,2,0,0,0-.07.26c-.06-.24-.11-.47-.16-.71Z"/><path class="cls-3" d="M117.75,169.92c-.06.13-.12.27-.17.4,0-.06-.06-.12-.09-.19A.86.86,0,0,1,117.75,169.92Z"/><path class="cls-3" d="M126.83,178.83l-.1,0h.07Z"/><path class="cls-3" d="M129.77,188.51l-.18-.1a.28.28,0,0,1,.12,0A1.47,1.47,0,0,0,129.77,188.51Z"/><path class="cls-3" d="M126.83,178.83l-.1,0h.07Z"/><path class="cls-3" d="M147.68,189.93l-.26-.08,0,0,.12-.46A4.17,4.17,0,0,1,147.68,189.93Z"/><path class="cls-3" d="M152.79,174.07c0,.12,0,.24,0,.36-.06-.07-.13-.12-.2-.19A1.56,1.56,0,0,1,152.79,174.07Z"/><path class="cls-3" d="M143.66,187.13l-.11.05-.12-.18Z"/><path class="cls-3" d="M139.13,161.66a2.64,2.64,0,0,1-.14-.29,1.64,1.64,0,0,1,0-.23c0-.07,0-.15,0-.22l.09.22a2,2,0,0,1,.08.31C139.12,161.52,139.13,161.59,139.13,161.66Z"/><path class="cls-3" d="M140.59,162.79a1.37,1.37,0,0,0-.37-.32l.18,0A3.45,3.45,0,0,1,140.59,162.79Z"/><path class="cls-3" d="M138.64,195.62l-.09.32,0-.42Z"/><path class="cls-3" d="M133.18,181.8a.52.52,0,0,1-.1.11l-.24-.16A.57.57,0,0,1,133.18,181.8Z"/><path class="cls-3" d="M138.64,195.62l-.09.32,0-.42Z"/><path class="cls-3" d="M142.4,186.41l-.08.05-.11-.16Z"/><path class="cls-3" d="M143.66,187.13l-.11.05-.12-.18Z"/><path class="cls-3" d="M147.68,189.93l-.26-.08,0,0,.12-.46A4.17,4.17,0,0,1,147.68,189.93Z"/><path class="cls-3" d="M147.68,189.93l-.26-.08,0,0,.12-.46A4.17,4.17,0,0,1,147.68,189.93Z"/><path class="cls-3" d="M149.51,207c0-.21-.11-.42-.16-.63l.15.15C149.51,206.7,149.51,206.86,149.51,207Z"/><path class="cls-3" d="M181.2,207.38c-.46-1-.47-1.82,0-2.3A5.2,5.2,0,0,0,181.2,207.38Z"/><path class="cls-4" d="M189.83,208.38a1.07,1.07,0,0,1,.09.19l.07.21"/><path class="cls-3" d="M133.18,181.8a.52.52,0,0,1-.1.11l-.24-.16A.57.57,0,0,1,133.18,181.8Z"/><path class="cls-3" d="M139.13,161.66a2.64,2.64,0,0,1-.14-.29l.13.08C139.12,161.52,139.13,161.59,139.13,161.66Z"/><path class="cls-3" d="M140.59,162.79a1.37,1.37,0,0,0-.37-.32l.18,0A3.45,3.45,0,0,1,140.59,162.79Z"/><path class="cls-3" d="M126.83,178.83l-.1,0h.07Z"/><path class="cls-4" d="M189.83,208.38a1.07,1.07,0,0,1,.09.19l.07.21"/><path class="cls-3" d="M181.2,207.38c-.46-1-.47-1.82,0-2.3A5.2,5.2,0,0,0,181.2,207.38Z"/><path class="cls-3" d="M156.76,177.67l0,0,.49.45a1.34,1.34,0,0,1-.59-.1A2.82,2.82,0,0,0,156.76,177.67Zm-3.25-3.18.1.06-.14.06A.56.56,0,0,0,153.51,174.49Zm-.31,12a3.17,3.17,0,0,0-.23.36v-.08c0-.11,0-.2,0-.29A.72.72,0,0,1,153.2,186.54Zm-5.78,3.31,0,0,.12-.47a5.27,5.27,0,0,1,.18.57A1.53,1.53,0,0,1,147.42,189.85Zm5.37-15.77c0,.12,0,.24,0,.35l-.2-.18A1.1,1.1,0,0,1,152.79,174.08Zm-2.51-27.54a1.6,1.6,0,0,0-.05.21,2,2,0,0,1-.36-.36A1.87,1.87,0,0,1,150.28,146.54Zm-3.18,22.35.81.49.35.59.06.11c0,.09-.06.18-.08.27a1.66,1.66,0,0,1-.3-.5,3.59,3.59,0,0,1-.63-.39l-.22-.2-.07-.06A2.81,2.81,0,0,0,147.1,168.89Zm-3.37-3.3,0-.06.09.09h-.12Zm-.07,21.55-.11,0c0-.05-.08-.12-.12-.18Zm-1.26-.73a.18.18,0,0,1-.08.05.91.91,0,0,1-.11-.16Zm-.6-44c0,.18-.09.35-.14.51a2,2,0,0,1-.35-.1C141.47,142.63,141.63,142.49,141.8,142.36Zm-1.4,20.09a3.45,3.45,0,0,1,.19.34,1.33,1.33,0,0,0-.37-.31A.52.52,0,0,1,140.4,162.45ZM139,161.14a2.37,2.37,0,0,1,.08.31c0,.07,0,.15,0,.21a2.64,2.64,0,0,1-.14-.29,1.5,1.5,0,0,1,0-.22c0-.07,0-.15,0-.23ZM139,184.86l.06.1-.08,0Zm-.32,10.77-.09.31,0-.42Zm-.91-54.71c0,.16-.09.31-.14.46l-.4-.1A2.54,2.54,0,0,1,137.73,140.92Zm-1.13,17.81h-.06s0-.09,0-.15Zm-3.08-18.61-.11,0a1.61,1.61,0,0,0-.31-.36A3.22,3.22,0,0,1,133.52,140.12Zm-.34,41.69-.1.1-.24-.16A.58.58,0,0,1,133.18,181.81Zm-.7-27s0,0,0,0l-.06-.08Zm-2.71,33.66-.18-.09a.31.31,0,0,1,.12,0A.59.59,0,0,0,129.77,188.51Zm-.1-36.25,0,0s0-.06-.07-.08ZM71,219.86a.14.14,0,0,1,.11,0h0a1.62,1.62,0,0,0,0,.22l-.11-.15Zm-.36,2.7v-.06h.09A.22.22,0,0,1,70.61,222.56ZM71,235.79c0-.12,0-.24,0-.36a6.24,6.24,0,0,1,.32.84A3.94,3.94,0,0,1,71,235.79Zm.38,4.19v-.09l.07.09Zm1.51-33.47a3.88,3.88,0,0,1-.36-.77,6.4,6.4,0,0,1,.42.49Zm5-14.64h0c.12-.06.15-.26.22-.41,0,0,0,0,0,.05a1.69,1.69,0,0,1,0,.23Zm31.6-53.45c.06-.19.1-.38.15-.58a2.45,2.45,0,0,1,.28.52h0C109.73,138.37,109.6,138.4,109.46,138.42Zm4.63,21.35,0-.05a.35.35,0,0,1,0,.11S114.11,159.79,114.09,159.77Zm1.4,4.77c-.06-.24-.11-.47-.16-.71l.23.45C115.53,164.37,115.51,164.46,115.49,164.54Zm.88-26.71a2,2,0,0,0-.25-.47,4.48,4.48,0,0,1,.43.47Zm1.21,32.5a1.11,1.11,0,0,0-.09-.19,1.09,1.09,0,0,1,.26-.22C117.69,170.06,117.63,170.19,117.58,170.33Zm.5-19.67-.31-.15h.35A1.24,1.24,0,0,0,118.08,150.66Zm5.36-.13-.11,0-.25-.2.38.08S123.45,150.5,123.44,150.53Zm3.29,28.27h.07l0,0Zm1.08-40a.26.26,0,0,0,0-.08l.06.08Zm.64,12.76-.09-.13.12.07S128.45,151.56,128.45,151.58Zm-37.23-6.31c0-.2,0-.41.07-.61.06.17.12.33.17.49A1.34,1.34,0,0,0,91.22,145.27ZM96,142.52h0a4.24,4.24,0,0,0-.22-.41l.32.37S96.06,142.51,96,142.52ZM80.31,155.61l-.24.31a5.32,5.32,0,0,0,0-.79,2.86,2.86,0,0,1,.31.46S80.31,155.6,80.31,155.61Zm6,27.7a.53.53,0,0,0,0-.12s0,0,0-.06l.13.12ZM209.4,389.43a2.73,2.73,0,0,1-.21-.3,1.62,1.62,0,0,0,.61.27Zm3.79,4.29c-.15-.2-.29-.4-.43-.61l-.22-.36a2.55,2.55,0,0,0,.51.41,2,2,0,0,0,.2.62Zm11.48-.79h-.22a2.24,2.24,0,0,1-.57-.44s0,0,0-.06l-1-.2a8.17,8.17,0,0,1-.52-.68l.3.1.05,0a3.12,3.12,0,0,1,1,.44,2.17,2.17,0,0,1,.4.36l.4.23a3.59,3.59,0,0,1,.47.27Zm38.45-89.22c-1.77,3.19-3.33,6-4.88,8.8a1.43,1.43,0,0,0-.14.2,0,0,0,0,1,0,0c-.91,1.26-1.8,2.51-2.7,3.77l-2.07,2.5-4,3.91L246,325.22c-1.06,0-1.52,1.32-2.85.72,0-.18-.07-.37-.11-.55a8.08,8.08,0,0,0,2.06-2.56,7.26,7.26,0,0,0,2.1-3.5,2.85,2.85,0,0,0,1.15-1.69,22.66,22.66,0,0,0,2.45-5.63c.41-1.34.82-2.67,1.22-4a40.35,40.35,0,0,0,1.62-9.37c1.89-16.47-4.15-37.3-11.8-48.4a45,45,0,0,1,2.17,7.31,89.63,89.63,0,0,1,2,23c-.09.62-.19,1.24-.28,1.86v0c-.48,3.27-1,6.56-1.43,9.83-.39,1.49-.77,3-1.16,4.47q-1,3-2.05,5.92a2.83,2.83,0,0,0-.79,1.86c-.66,1.37-1.34,2.74-2,4.11-.55.94-1.09,1.89-1.64,2.82-.72,1.11-1.45,2.22-2.18,3.33-.92,1.21-1.85,2.42-2.76,3.63l-2.83,3-2.46,2.29-2.82,2.18-4.05,2.44-2.46,1.35-4.89,1.87c-1.21.31-2.56.35-3.66,1.11a25.41,25.41,0,0,0,5.31,3.58,28.31,28.31,0,0,0,7.38,3.43,8.3,8.3,0,0,0,3.59,1.24H225a14.62,14.62,0,0,0,6.1,1.17,6.63,6.63,0,0,0,3.57.12,5.73,5.73,0,0,0,3.35-.37c.6,0,1.2,0,1.8,0-.13,1.05-1.07,1-1.5,1.57l-2.47,1.31-3.62,1.43-4.12,1.19-2.06.54-2.79.51-2.85.32-2.49.2-2.43,0-3.27,0-4.42-.45-3.26-.5-3.31-.62a18.82,18.82,0,0,0-4.53-1.23,13.45,13.45,0,0,0-4.05-1.39,13.28,13.28,0,0,0-3.6-1.53l-5.91-3a99,99,0,0,0,9.93,14.32,48.13,48.13,0,0,0,7,7.65,34.05,34.05,0,0,0,4.44,4.2c.68.54,1.36,1,2,1.51a8.81,8.81,0,0,0,2.77,2,1.92,1.92,0,0,0,.28.29c1.48,1.49,3.17,1.46,4.6,3.35a4.54,4.54,0,0,0-2.35-.82,10.84,10.84,0,0,0-3.24-1.33l-7-3.36-.11-.05-1.09-.52c-.12-.15-.22-.19-.32-.13l-1.21-.68-3.26-1.88-1.61-1a1.58,1.58,0,0,0-.76-.65c-.5-.19-1.11-.79-1.6-1l-5-3.43-4.07-3.3-5.69-5.18-5.3-5.45c-1.64-1.85-3.26-3.7-4.9-5.56l-8.08-10c-6-8.35-12-16.74-17.26-25.74-2.45-4.16-5.28-8.09-7.18-12.57-.14-.31-.93-1.89-.77-.17.59,1.2.23,2,.3,3s.11,1.93.28,2.94c1.52,8.61,5.09,17.11,9.5,25.61,1.44,2.76,3.31,5.33,4.39,8.25a136.53,136.53,0,0,1-18.32-24.65c-2.06-3.48-3.78-7.16-5.64-10.76a22.25,22.25,0,0,0-1.92-4.42q-1.43-3.65-2.87-7.29-1.66-5.41-3.32-10.83c-.43-2.14-.86-4.27-1.28-6.41q-.58-3.84-1.16-7.7c0-.66-.08-1.31-.11-2-.55-1.23-.21-2-.27-3s0-2.16,0-3.23V247.4c0-.73,0-1.47.07-2.21a13.84,13.84,0,0,0,.32-4.15,12.33,12.33,0,0,0,.48-3.87c.06-.33.13-.65.2-1,.31-1.53.61-3,.93-4.56.2-.81.39-1.62.58-2.43.35-.92.68-1.85,1-2.78l1.32-2.92,2-3.1a4.15,4.15,0,0,0,1.55-1.94c.41-.4,1.1-.38,1.3-1.12l2.06-1.62,1.58-1,3-1.53,3.63-1.23a4.19,4.19,0,0,0,2.4-.51,4.63,4.63,0,0,0,2.56-.33,3.89,3.89,0,0,0,2.29-.15l4.18.11a8.19,8.19,0,0,0,3.15.35l6.92,1.55,2.79,2.83,4.14,4.48a55.57,55.57,0,0,0,5.27,5.53,29.1,29.1,0,0,0,4.08,4.2,15.68,15.68,0,0,0,2.41,2.52,6.7,6.7,0,0,0,2.06,2,36.29,36.29,0,0,0,4.5,4.38,26.25,26.25,0,0,0,4.07,3.81,19.22,19.22,0,0,0,2.81,2.7,109.14,109.14,0,0,0,11.76,10s0,0,.05,0l.08.1a5.75,5.75,0,0,0,1.94,1.5,29.85,29.85,0,0,0,5.33,4,13.33,13.33,0,0,0,3.63,2.54c.35.32.7.6,1,.87a36.7,36.7,0,0,0,5.11,3.06c1.82,1.1,3.65,2.42,5.43,2.81l1.92.95a16.88,16.88,0,0,0,5.29,1.66,9.8,9.8,0,0,0,6.49,0c0-3,2-4,2.69-6.35a49.69,49.69,0,0,1,2.22-5.38,30.54,30.54,0,0,0-2-9.63,41.11,41.11,0,0,0-2.31-6.56,44.77,44.77,0,0,0-3-6.83,40,40,0,0,0-3.59-7.36A58.82,58.82,0,0,0,224,222.8a218.42,218.42,0,0,0-17.84-26.47,16.4,16.4,0,0,0-2.5-3.21,21.57,21.57,0,0,0-3.67-4.41L194.38,182a53.24,53.24,0,0,0-5.36-5.79l-.24-.28a47,47,0,0,0-5.39-5.36,36.35,36.35,0,0,0-5.32-4.93,35.57,35.57,0,0,0-5.24-4.46l-.34-.32a22,22,0,0,0-4.21-3.24,29.69,29.69,0,0,0-4.87-3.61L161,152.46a9.62,9.62,0,0,0-1.26-1s0,0-.06,0c-2.26-1.63-4.56-2.53-6.81-4.15C147.94,138.66,142,131.67,135,126.8a36.35,36.35,0,0,0-6.5-3.72c-5-2.13-9.37-2.09-12.9,1-1.55,1.38-3.27,2.48-4.93,3.71-4.37,3.21-9.51,4.15-16.42.41a26.55,26.55,0,0,0-9.1-3,9.33,9.33,0,0,0-4.15.25A5.81,5.81,0,0,0,78.58,127a10.19,10.19,0,0,0-2.43,6c-.44,3.49-.27,7.35-.35,11-.13,6-1.61,10.36-6.17,11.46a21.12,21.12,0,0,0-7.48,3.95C59,161.8,57.92,165.93,59,172c.83,4.68,2.07,9.44,3.17,14.19,1.67,7.16,1.91,13.39-1.93,16.44s-3.25,8.26-.65,15a141.94,141.94,0,0,0,9.28,19c1.1,2.11,1.27,4.22,2.15,6.33.22.73.44,1.43.67,2.15l.09.3c.24.94.44,1.88.72,2.83a253,253,0,0,0,41,80.27q5.7,7.51,12,14.65,4.74,5.41,9.8,10.63a173,173,0,0,0,33.41,27.27l4.49,2.62a68.11,68.11,0,0,0,12.62,6.39,14,14,0,0,0,4.89,1.91,9.71,9.71,0,0,0,3.26,1.29l4.88,1.43,4.06.94,2.44.47a11.46,11.46,0,0,0,3.72.46c1.58.32,3.18.68,4.49.17.5.41.8.09,1.18.1a1.59,1.59,0,0,0,1.59.05,3.69,3.69,0,0,0,2.47-.07,11.51,11.51,0,0,0,4.51-.5c1.29.27,2-.79,3.22-.67l2.09-.46a6.43,6.43,0,0,0,3.27-1,12.12,12.12,0,0,0,4.35-1.76,5.18,5.18,0,0,0,.56-.17,5.79,5.79,0,0,0,2.37-1.4,2.42,2.42,0,0,0,1.62-.95,2,2,0,0,0,1.55-1v0h0a1.42,1.42,0,0,0,1.11-.67,1.62,1.62,0,0,0,.17-.44,2.73,2.73,0,0,0,2-1.24,11.6,11.6,0,0,0,3.27-2.8,9.39,9.39,0,0,0,2.76-2.65l2.43-2.81a19.54,19.54,0,0,0,3.38-5.09,24.35,24.35,0,0,0,3.82-9.17l-7.49,2.23-4.93.85-3.18.34-3.67.18-5.29-.25-2.45-.39-2.46-.51-3.25-.92-2.8-1.28c.34-.63,1.32.18,1.71-.33a3.32,3.32,0,0,0,2.34-.08c1.13-.1,2.42.19,3.35-.41.71.08,1.4.1,1.83-.45a7.82,7.82,0,0,0,4.23-1.15,7.33,7.33,0,0,0,3.33-1.43,7.78,7.78,0,0,0,2.85-1.65,9.33,9.33,0,0,0,3.57-2.68,9.94,9.94,0,0,0,3.13-2.94c.64-.93,1.69-1.3,2.1-2.55a7.54,7.54,0,0,0,1.93-2.65,16.7,16.7,0,0,0,2.68-5,23.43,23.43,0,0,0,2.63-6.52c.27-1,.54-2,.82-3,.13-.5.27-1,.41-1.51a40.18,40.18,0,0,0,1.24-7.72A71.83,71.83,0,0,0,263.12,303.71Zm-81.9-98.63c0-.16,0-.33.07-.49.22-.33.45-.66.68-1,1.12-1.33,2.86-.32,4.62.72a4.49,4.49,0,0,1,.42.24,8.14,8.14,0,0,1,2.82,3.81,1.07,1.07,0,0,1,.09.19l.07.21c1.65,4.69-.59,7.74-4.7,5.73l-.25-.13a.71.71,0,0,0-.09-.07,8.93,8.93,0,0,1-2.76-3.55c-.06-.16-.11-.34-.16-.51-.27-1-.55-1.92-.83-2.87C180.74,206.34,180.73,205.56,181.22,205.08Zm-31.72,1.47c0,.16,0,.32,0,.48,0-.22-.11-.43-.16-.64A1.1,1.1,0,0,1,149.5,206.55Zm22.16,155.37-.15.06a3.6,3.6,0,0,1-1.26-1,11.32,11.32,0,0,1-1.17-1.68l.57.56c.63.59,1.25,1.19,1.87,1.79l.18.24Zm6.78,7-.4-.24,0,0a.51.51,0,0,1,.41,0l.38.29.26.21A3,3,0,0,1,178.44,369Z"/><path class="cls-4" d="M189.83,208.38a1.07,1.07,0,0,1,.09.19l.07.21"/><path class="cls-3" d="M426.87,299.63l-52-30c-5.88-3.4-10.65-12.51-10.65-20.35V193.05c0-7.84,4.77-11.45,10.65-8.05l52,30c5.89,3.4,10.65,12.51,10.65,20.35v56.22C437.52,299.42,432.76,303,426.87,299.63Z"/></g></g></svg>