<svg xmlns="http://www.w3.org/2000/svg" viewBox="0 0 595.72 1140.01"><defs><style>.cls-1,.cls-2,.cls-3,.cls-6{fill:none;stroke-miterlimit:10;stroke-width:10px;}.cls-1,.cls-2,.cls-3{stroke:#ae9eff;}.cls-2{stroke-dasharray:16.09 5.36;}.cls-3{stroke-dasharray:14.89 4.96;}.cls-4{fill:#ccc5fe;}.cls-5{fill:#ae9eff;}.cls-6{stroke:#ccc5fe;}</style></defs><title>Asset 45</title><g id="Layer_2" data-name="Layer 2"><g id="Art"><line class="cls-1" x1="334.55" y1="403.75" x2="328.06" y2="400"/><line class="cls-2" x1="323.41" y1="397.32" x2="269.99" y2="366.48"/><line class="cls-1" x1="267.67" y1="365.14" x2="261.17" y2="361.39"/><line class="cls-1" x1="492.23" y1="627.62" x2="492.23" y2="635.12"/><path class="cls-3" d="M492.23,640.08V901.79a24.7,24.7,0,0,1-37.06,21.39l-194-112L115.06,726.82a24.71,24.71,0,0,1-12.36-21.4V407.63"/><line class="cls-1" x1="102.7" y1="405.14" x2="102.7" y2="397.64"/><path class="cls-4" d="M246.71,942.93,19.46,811.73c-8-4.61-14.46-17-14.46-27.64V479.81c0-10.65,6.47-15.55,14.46-10.94L246.71,600.08c8,4.61,14.46,17,14.46,27.63V932C261.17,942.65,254.7,947.54,246.71,942.93Z"/><path class="cls-5" d="M576.26,1138.27,349,1007.07c-8-4.61-14.46-17-14.46-27.63V675.15c0-10.65,6.48-15.55,14.46-10.93l227.25,131.2c8,4.61,14.46,17,14.46,27.63v304.29C590.72,1138,584.25,1142.88,576.26,1138.27Z"/><path class="cls-1" d="M246.71,480.79,19.46,349.59C11.47,345,5,332.61,5,322V17.67C5,7,11.47,2.12,19.46,6.74l227.25,131.2c8,4.61,14.46,17,14.46,27.63V469.86C261.17,480.51,254.7,485.4,246.71,480.79Z"/><path class="cls-6" d="M576.26,676.13,349,544.93c-8-4.61-14.46-17-14.46-27.63V213c0-10.65,6.48-15.54,14.46-10.93l227.25,131.2c8,4.61,14.46,17,14.46,27.63V665.2C590.72,675.85,584.25,680.74,576.26,676.13Z"/></g></g></svg>