<?xml version="1.0" encoding="UTF-8"?>
<svg width="1046px" height="319px" viewBox="0 0 1046 319" version="1.1" xmlns="http://www.w3.org/2000/svg" xmlns:xlink="http://www.w3.org/1999/xlink">
    <!-- Generator: Sketch 47.1 (45422) - http://www.bohemiancoding.com/sketch -->
    <title>Group 47</title>
    <desc>Created with Sketch.</desc>
    <defs>
        <linearGradient x1="14.6096116%" y1="8.08156995%" x2="100%" y2="100%" id="linearGradient-1">
            <stop stop-color="#426FFF" offset="0%"></stop>
            <stop stop-color="#672EF9" offset="100%"></stop>
        </linearGradient>
        <linearGradient x1="4.64936168%" y1="5.01283414%" x2="100%" y2="100%" id="linearGradient-2">
            <stop stop-color="#426FFF" offset="0%"></stop>
            <stop stop-color="#672EF9" offset="100%"></stop>
        </linearGradient>
        <linearGradient x1="-12.3757203%" y1="30.0177557%" x2="118.898368%" y2="65.9064416%" id="linearGradient-3">
            <stop stop-color="#426FFF" offset="0%"></stop>
            <stop stop-color="#672EF9" offset="100%"></stop>
        </linearGradient>
        <linearGradient x1="18.3931484%" y1="14.2223561%" x2="82.1493078%" y2="90.7049212%" id="linearGradient-4">
            <stop stop-color="#426FFF" offset="0%"></stop>
            <stop stop-color="#672EF9" offset="100%"></stop>
        </linearGradient>
        <linearGradient x1="21.3718151%" y1="0%" x2="100%" y2="100%" id="linearGradient-5">
            <stop stop-color="#426FFF" offset="0%"></stop>
            <stop stop-color="#672EF9" offset="100%"></stop>
        </linearGradient>
        <linearGradient x1="7.92310697%" y1="8.54817066%" x2="100%" y2="100%" id="linearGradient-6">
            <stop stop-color="#426FFF" offset="0%"></stop>
            <stop stop-color="#672EF9" offset="100%"></stop>
        </linearGradient>
        <linearGradient x1="7.59442728%" y1="0%" x2="100%" y2="100%" id="linearGradient-7">
            <stop stop-color="#426FFF" offset="0%"></stop>
            <stop stop-color="#672EF9" offset="100%"></stop>
        </linearGradient>
    </defs>
    <g id="Page-1" stroke="none" stroke-width="1" fill="none" fill-rule="evenodd">
        <g id="Home-Page-Copy-3" transform="translate(-185.000000, -1120.000000)">
            <g id="Group-47" transform="translate(185.000000, 1120.000000)">
                <rect id="Rectangle-12" fill="#A036F5" transform="translate(301.000000, 157.000000) rotate(90.000000) translate(-301.000000, -157.000000) " x="286" y="142" width="30" height="30"></rect>
                <polygon id="Polygon-2" fill="#3D27EE" transform="translate(350.000000, 37.000000) rotate(-20.000000) translate(-350.000000, -37.000000) " points="350 22 366 33.4589803 359.888544 52 340.111456 52 334 33.4589803"></polygon>
                <polygon id="Triangle-3" fill="#08CDED" transform="translate(233.000000, 263.000000) rotate(90.000000) translate(-233.000000, -263.000000) " points="233 248 248 278 218 278"></polygon>
                <g id="Group-9" transform="translate(134.000000, 16.000000)" stroke-width="3" opacity="0.4">
                    <polyline id="Path-9" stroke="#A036F5" stroke-dasharray="15,5" transform="translate(192.750000, 140.500000) rotate(90.000000) translate(-192.750000, -140.500000) " points="192.25 36.75 192.25 223.219148 192.25 244.25"></polyline>
                    <path d="M117.25,67.75 L117.25,110.477488 L117.25,110.477488 C117.25,116.000336 121.727153,120.477488 127.25,120.477488 L170.25,120.477488 L170.25,120.477488 C175.772847,120.477488 180.25,124.954641 180.25,130.477488 L180.25,354.25 L180.25,354.25 C180.25,359.772847 175.772847,364.25 170.25,364.25 L158.718354,364.25 L129.479734,364.25" id="Path-10" stroke="#08CDED" stroke-dasharray="15,5" transform="translate(148.750000, 216.000000) rotate(90.000000) translate(-148.750000, -216.000000) "></path>
                    <path d="M127.08289,-86.5 L127.08289,-58.4348708 L127.08289,-12.1861021 L127.08289,-12.1861021 C127.08289,-6.66325462 131.560042,-2.18610212 137.08289,-2.18610212 L180.5,-2.18610212 L180.5,-2.18610212 C186.022847,-2.18610212 190.5,2.29105038 190.5,7.81389788 L190.5,176.15054 L190.5,176.15054 C190.5,181.673387 186.022847,186.15054 180.5,186.15054 L124.5,186.15054 L124.5,186.15054 C118.977153,186.15054 114.5,190.627692 114.5,196.15054 L114.5,206.5" id="Path-10" stroke="#3D27EE" stroke-dasharray="15,5" transform="translate(152.500000, 60.000000) scale(-1, -1) rotate(90.000000) translate(-152.500000, -60.000000) "></path>
                    <polyline id="Path-11" stroke="#3D27EE" stroke-dasharray="15,5" points="803 142 518 142 497.900249 142"></polyline>
                    <path d="M802,71.9982374 L733.613359,71.9982374 L733.613359,71.9982374 C728.090512,71.9982374 723.613359,67.5210849 723.613359,61.9982374 L723.613359,10 L723.613359,10 C723.613359,4.4771525 719.136207,-2.24835492e-13 713.613359,-2.23820962e-13 L623.481975,-2.27373675e-13 L623.481975,-2.27373675e-13 C617.959127,-2.26359145e-13 613.481975,4.4771525 613.481975,10 L613.481975,82 L613.481975,82 C613.481975,87.5228475 609.004822,92 603.481975,92 L534.978339,92 L520,92 L498.476757,92" id="Path-13" stroke="#08CDED" stroke-dasharray="15,5.300000190734863"></path>
                    <path d="M812,264.998237 L799.506214,265.000972 L770.433464,264.998937 L770.433464,264.998237 C764.91089,264.997851 760.434164,260.520812 760.434164,254.998237 L760.433464,203 L760.433464,203 C760.433464,197.477153 755.956311,193 750.433464,193 L660.197643,193 L660.197643,193 C654.674795,193 650.197643,197.477153 650.197643,203 L650.197643,275 L650.197643,275 C650.197643,280.522847 645.72049,285 640.197643,285 L571.619563,285 L513,285 L493,285" id="Path-13" stroke="#A036F5" stroke-dasharray="15,5.300000190734863" transform="translate(652.500000, 239.000000) scale(1, -1) translate(-652.500000, -239.000000) "></path>
                </g>
                <polygon id="Triangle-3" fill="#08CDED" transform="translate(820.000000, 16.000000) rotate(-90.000000) translate(-820.000000, -16.000000) " points="820 1 835 31 805 31"></polygon>
                <polygon id="Polygon-2" fill="#3D27EE" transform="translate(833.000000, 159.000000) rotate(197.000000) translate(-833.000000, -159.000000) " points="833 144 849 155.45898 842.888544 174 823.111456 174 817 155.45898"></polygon>
                <rect id="Rectangle-12" fill="#A036F5" x="680" y="194" width="30" height="30"></rect>
                <g id="Group-46" transform="translate(0.000000, 81.000000)" fill-rule="nonzero">
                    <g id="024-smartphone-1" transform="translate(122.000000, 75.000000)" fill="url(#linearGradient-1)">
                        <path d="M23,18.1363636 L23,12.0909091 L23,10.3636364 L23,6.04545455 L23,4.31818182 C23,1.93713636 21.0158077,-7.10542736e-15 18.5769231,-7.10542736e-15 L4.42307692,-7.10542736e-15 C1.98419231,-7.10542736e-15 0,1.93713636 0,4.31818182 L0,6.04545455 L0,31.9545455 L0,33.6818182 C0,36.0628636 1.98419231,38 4.42307692,38 L18.5769231,38 C21.0158077,38 23,36.0628636 23,33.6818182 L23,31.9545455 L23,28.5 L23,18.1363636 Z M20.2661916,32.6818182 C20.2661916,34.1102727 19.1834277,35.2727273 17.8528992,35.2727273 L4.98200624,35.2727273 C3.65147768,35.2727273 2.56871382,34.1102727 2.56871382,32.6818182 L2.56871382,31.8181818 L20.2661916,31.8181818 L20.2661916,32.6818182 Z M20.2661916,30 L2.56871382,30 L2.56871382,8 L20.2661916,8 L20.2661916,30 Z M20.2661916,6.18181818 L2.56871382,6.18181818 L2.56871382,5.31818182 C2.56871382,3.88972727 3.65147768,2.72727273 4.98200624,2.72727273 L17.8528992,2.72727273 C19.1834277,2.72727273 20.2661916,3.88972727 20.2661916,5.31818182 L20.2661916,6.18181818 Z" id="Shape"></path>
                    </g>
                    <g id="024-smartphone-1" transform="translate(153.000000, 48.000000)" fill="url(#linearGradient-1)">
                        <path d="M48,31.0227273 L48,20.6818182 L48,17.7272727 L48,10.3409091 L48,7.38636364 C48,3.31352273 43.8590769,0 38.7692308,0 L9.23076923,0 C4.14092308,0 0,3.31352273 0,7.38636364 L0,10.3409091 L0,54.6590909 L0,57.6136364 C0,61.6864773 4.14092308,65 9.23076923,65 L38.7692308,65 C43.8590769,65 48,61.6864773 48,57.6136364 L48,54.6590909 L48,48.75 L48,31.0227273 Z M44,56.8346457 C44,59.374252 41.5527273,61.4409449 38.5454545,61.4409449 L9.45454545,61.4409449 C6.44727273,61.4409449 4,59.374252 4,56.8346457 L4,55.2992126 L44,55.2992126 L44,56.8346457 Z M44,53.2283465 L4,53.2283465 L4,12 L44,12 L44,53.2283465 Z M44,10.2125984 L4,10.2125984 L4,8.67716535 C4,6.13755906 6.44727273,4.07086614 9.45454545,4.07086614 L38.5454545,4.07086614 C41.5527273,4.07086614 44,6.13755906 44,8.67716535 L44,10.2125984 Z" id="Shape"></path>
                    </g>
                    <g id="031-computer-1" fill="url(#linearGradient-2)">
                        <path d="M104.5,0 L9.5,0 C4.2617,0 0,4.22431667 0,9.41666667 L0,80.9833333 C0,86.1756833 4.2617,90.4 9.5,90.4 L46.9661,90.4 L44.1161,101.7 L30.4,101.7 C29.3512,101.7 28.5,102.543733 28.5,103.583333 C28.5,108.775683 32.7617,113 38,113 L76,113 C81.2383,113 85.5,108.775683 85.5,103.583333 C85.5,102.543733 84.6488,101.7 83.6,101.7 L69.8839,101.7 L67.0339,90.4 L104.5,90.4 C109.7383,90.4 114,86.1756833 114,80.9833333 L114,9.41666667 C114,4.22431667 109.7383,0 104.5,0 Z M68.4,105.466667 L81.3751,105.466667 C80.5904,107.658867 78.4776,109.233333 76,109.233333 L38,109.233333 C35.5224,109.233333 33.4096,107.658867 32.6249,105.466667 L45.6,105.466667 L68.4,105.466667 Z M48.0339,101.7 L50.8839,90.4 L63.1161,90.4 L65.9661,101.7 L48.0339,101.7 Z M110.2,80.9833333 C110.2,84.0983667 107.6426,86.6333333 104.5,86.6333333 L64.6,86.6333333 L49.4,86.6333333 L9.5,86.6333333 C6.3574,86.6333333 3.8,84.0983667 3.8,80.9833333 L3.8,79.1 L110.2,79.1 L110.2,80.9833333 Z M110.2,75.3333333 L3.8,75.3333333 L3.8,9.41666667 C3.8,6.30163333 6.3574,3.76666667 9.5,3.76666667 L104.5,3.76666667 C107.6426,3.76666667 110.2,6.30163333 110.2,9.41666667 L110.2,75.3333333 Z" id="Shape"></path>
                    </g>
                </g>
                <text id="/payments" font-family="Montserrat-Regular, Montserrat" font-size="18" font-weight="normal" fill="#000000">
                    <tspan x="951" y="90">/payments</tspan>
                </text>
                <g id="ngx-logo" transform="translate(448.000000, 15.000000)">
                    <polygon id="Shape" fill="#9F82FA" points="60.345515 11.3859462 60.345515 58.0683258 79.3871742 51.2385221 79.3871742 26.7504213 79.3871742 26.7090912 79.3871742 24.2086184 83.1174075 24.880233 83.1174075 15.4776289 60.345515 11.3859462"></polygon>
                    <path d="M83.1174075,15.3000527 L83.1174075,24.624233 L83.1174075,24.624233 L88.9902077,23.5995978 L88.9902077,34.9730484 L105.030229,30.8130295 L105.030229,11.3859462 L83.1174075,15.3000527 L83.1174075,15.3000527 Z M108.166489,58.0375867 L108.166489,36.5202476 L106.875088,36.00793 L85.5362222,41.5512064 L85.5362222,50.0044468 L94.7605158,47.6887712 L94.7605158,53.3037721 L108.084495,58.0683258 L108.084495,58.0683258 L108.166489,58.0375867 Z" id="Shape" fill="#9F82FA"></path>
                    <path d="M0,0 L0,79.7016236 L20.1618729,72.3741825 C20.1110212,72.2752463 20.0522022,72.1807167 19.9860125,72.0915526 L19.9860125,37.212933 L31.3652122,68.3754932 L52.3753527,60.7968256 L52.3753527,9.4209957 L32.5962347,5.83054956 L32.5962347,34.5436509 L20.7722118,3.71605941 L0,0 L0,0 Z" id="Shape" fill="#9F82FA"></path>
                    <path d="M125.122222,45.345664 L110.095432,15.0346722 C109.850127,14.4514483 109.498541,13.9203508 109.059102,13.4692172 C108.52021,12.8388326 108.046953,12.31001 107.639329,11.8827493 C107.398777,11.6675683 107.192524,11.4159381 107.027895,11.1367942 L128.355573,7.0813201 L136.480402,26.7913446 L144.201063,4.06598053 L165.549468,0 L164.938033,0.977096097 C164.799856,1.13119011 164.53041,1.48140376 164.129696,2.02773706 C163.838257,2.42872687 163.488893,2.78291522 163.093365,3.07837803 L150.512315,43.7486898 L164.533864,75.6461495 C164.776085,76.209066 165.082136,76.7414737 165.445835,77.2326173 C165.844227,77.7879402 166.284243,78.3113084 166.761975,78.7980724 C167.00203,78.9935344 167.208617,79.227824 167.37341,79.4914954 L166.285263,79.7016236 L140.89517,70.5190216 L138.148894,63.836945 L135.547705,68.6173614 L120.230743,63.0384579 L121.971778,57.5225928 C122.849204,54.7208836 123.560818,52.2518773 124.106618,50.115574 C124.535384,48.5312112 124.881309,46.9249954 125.142949,45.3036384 L125.142949,45.3036384 L125.122222,45.345664 Z" id="Shape" fill="#9F82FA"></path>
                    <polygon id="Shape" fill="#8D6AF8" points="83.6919082 58.0683258 83.6919082 58.0683258 83.6919082 58.0683258 0 87.9246166 12.7692081 198.654278 83.6919082 237.966276 83.6919082 237.966276 83.6919082 237.966276 154.604201 198.654278 167.37341 87.9246166 83.6919082 58.0683258"></polygon>
                    <polygon id="Shape" fill="#A884FC" points="83.1174075 58.0683258 83.1174075 78.031531 83.1174075 77.9482208 83.1174075 169.058332 83.1174075 169.058332 83.1174075 237.966276 83.1174075 237.966276 153.551684 198.654278 166.234815 87.9246166 83.1174075 58.0683258"></polygon>
                    <path d="M48.9700794,191.160753 L53.8259925,191.160753 L53.8259925,181.924942 L60.0167562,191.160753 L65.9447539,191.160753 L60.4687134,182.951143 C61.8837833,182.579624 63.114846,181.723695 63.9372228,180.53957 C64.9479011,179.262173 65.4884747,177.689658 65.4717754,176.075595 L65.4717754,175.346993 C65.5541079,173.273112 64.678243,171.272747 63.0858614,169.897864 C61.3944005,168.309391 59.1259608,167.441935 56.7794808,167.486292 L48.9595688,167.486292 L48.9595688,191.160753 L48.9595688,191.160753 L48.9700794,191.160753 Z M53.8049712,178.846339 L53.8049712,172.186293 L56.5272255,172.186293 C57.6090936,172.131466 58.6731468,172.471664 59.5122457,173.14066 C60.1643379,173.739146 60.5140824,174.587196 60.4687134,175.459875 C60.5224599,176.37618 60.1747227,177.271596 59.5122457,177.922758 C58.9644811,178.564152 58.1379478,178.914351 57.2839912,178.866863 L53.8154819,178.866863 L53.8049712,178.846339 Z M68.1835191,167.496554 L68.1835191,191.09918 L82.7197264,191.09918 L82.7197264,186.378655 L73.0394322,186.378655 L73.0394322,181.627344 L80.3022805,181.627344 L80.3022805,176.988914 L73.0394322,176.988914 L73.0394322,172.237603 L82.7197264,172.237603 L82.7197264,167.517078 L68.1940297,167.517078 L68.1835191,167.496554 Z M92.1582761,186.491537 C91.5069476,186.494267 90.8813369,186.243559 90.4197887,185.794854 C89.9582405,185.346149 89.6987816,184.736416 89.6987876,184.100489 L84.8113427,184.100489 C84.8113427,188.067775 88.1053826,191.283897 92.1687867,191.283897 C96.2321909,191.283897 99.5262308,188.067775 99.5262308,184.100489 C99.565651,182.918243 99.1953195,181.757599 98.4751674,180.806383 C97.2703143,179.328505 95.6248574,178.2527 93.7664032,177.727779 C92.6784006,177.545446 91.6469752,177.12439 90.7498511,176.496338 C90.0616487,176.086998 89.6582521,175.342613 89.6987876,174.556818 C89.6987878,173.236278 90.7952324,172.165769 92.1477655,172.165769 C93.5002985,172.165769 94.5967432,173.236278 94.5967433,174.556818 L99.4841883,174.556818 C99.4841883,170.589531 96.1901483,167.37341 92.1267442,167.37341 C88.06334,167.37341 84.7693001,170.589531 84.7693001,174.556818 C84.7265975,175.723712 85.0733337,176.872568 85.7572998,177.830399 C86.9154794,179.341871 88.5120232,180.478778 90.3399363,181.093719 C92.0426591,181.668392 91.6222337,181.514462 93.366999,182.11992 C94.1940046,182.409789 94.7077466,183.217434 94.6072539,184.069702 C94.5901458,185.387253 93.4972981,186.44969 92.1477655,186.460751 L92.1477655,186.460751 L92.1477655,186.460751 L92.1582761,186.491537 Z M107.503802,167.496554 L101.449677,167.496554 L101.449677,172.217079 L107.503802,172.217079 L107.503802,191.15049 L112.359715,191.15049 L112.359715,172.227341 L118.413841,172.227341 L118.413841,167.506816 L107.514313,167.506816 L107.503802,167.496554 Z" id="Shape" fill="#FFFFFF" fill-rule="nonzero"></path>
                    <path d="M83.7497686,83.1174075 L48.9595688,160.541842 L61.9296916,160.541842 L68.9192635,143.214708 L98.4541461,143.214708 L105.443718,160.541842 L118.413841,160.541842 L83.7287473,83.1174075 L83.7287473,83.1174075 L83.7497686,83.1174075 Z M94.5033537,132.076976 L74.0086505,132.076976 L84.2613034,108.166489 L94.5033537,132.076976 L94.5033537,132.076976 Z" id="Shape" fill="#FFFFFF"></path>
                </g>
                <text id="/comment" font-family="Montserrat-Regular, Montserrat" font-size="18" font-weight="normal" fill="#000000">
                    <tspan x="951" y="316">/comment</tspan>
                </text>
                <text id="/user" font-family="Montserrat-Regular, Montserrat" font-size="18" font-weight="normal" fill="#000000">
                    <tspan x="977" y="201">/user</tspan>
                </text>
                <g id="Group-45" transform="translate(964.000000, 0.000000)" fill-rule="nonzero">
                    <g id="Group-7" transform="translate(10.000000, 14.000000)" fill="url(#linearGradient-3)">
                        <g id="Group-4">
                            <path d="M39.6076342,7.90335398 L36.6417378,3.15692748 C36.4202947,2.8025445 35.9695767,2.68472671 35.635031,2.89377409 L8.37634219,19.9268933 C8.04179645,20.1359407 7.95010862,20.5926912 8.17155168,20.9470742 L11.1374481,25.6935007 L39.6076342,7.90335398 Z M40.6957807,9.64475239 L12.2255946,27.4348991 L17.7945469,36.3470858 C18.01599,36.7014688 18.466708,36.8192866 18.8012537,36.6102392 L46.0599425,19.57712 C46.3944883,19.3680726 46.4861761,18.9113221 46.264733,18.5569391 L40.6957807,9.64475239 Z M7.17346778,18.0018919 L34.4321566,0.968772643 C35.7703395,0.132583134 37.5732114,0.603854276 38.4589837,2.0213862 L48.081979,17.4213978 C48.9677512,18.8389297 48.6009999,20.6659319 47.2628169,21.5021214 L20.0041281,38.5352406 C18.6659452,39.3714301 16.8630733,38.900159 15.977301,37.4826271 L6.35430576,22.0826155 C5.46853351,20.6650836 5.83528484,18.8380814 7.17346778,18.0018919 Z M1.07142857,41.3135593 C0.479694911,41.3135593 0,40.8392847 0,40.2542373 C0,39.6691899 0.479694911,39.1949153 1.07142857,39.1949153 L13.5918201,39.1949153 C14.1835538,39.1949153 14.6632487,39.6691899 14.6632487,40.2542373 C14.6632487,40.8392847 14.1835538,41.3135593 13.5918201,41.3135593 L1.07142857,41.3135593 Z M24.2857143,41.3135593 C23.6939806,41.3135593 23.2142857,40.8392847 23.2142857,40.2542373 C23.2142857,39.6691899 23.6939806,39.1949153 24.2857143,39.1949153 L48.9285714,39.1949153 C49.5203051,39.1949153 50,39.6691899 50,40.2542373 C50,40.8392847 49.5203051,41.3135593 48.9285714,41.3135593 L24.2857143,41.3135593 Z" id="Combined-Shape"></path>
                        </g>
                    </g>
                    <path d="M34.5,68.5 C15.7223185,68.5 0.5,53.2776815 0.5,34.5 C0.5,15.7223185 15.7223185,0.5 34.5,0.5 C53.2776815,0.5 68.5,15.7223185 68.5,34.5 C68.5,53.2776815 53.2776815,68.5 34.5,68.5 Z M34.5,65.5 C51.6208272,65.5 65.5,51.6208272 65.5,34.5 C65.5,17.3791728 51.6208272,3.5 34.5,3.5 C17.3791728,3.5 3.5,17.3791728 3.5,34.5 C3.5,51.6208272 17.3791728,65.5 34.5,65.5 Z" id="Oval-5" fill="url(#linearGradient-4)"></path>
                </g>
                <g id="Group-44" transform="translate(964.000000, 108.000000)" fill-rule="nonzero">
                    <g id="Group-8" transform="translate(16.000000, 15.000000)" fill="url(#linearGradient-5)">
                        <path d="M25.7550833,18.7184615 C27.921125,16.7476923 29.2916667,13.9184615 29.2916667,10.7692308 C29.2916667,4.83230769 24.4508333,0 18.5,0 C12.5491667,0 7.70833333,4.83230769 7.70833333,10.7692308 C7.70833333,13.9184615 9.078875,16.7476923 11.2449167,18.7184615 C4.84854167,19.9492308 0,25.5707692 0,32.3076923 L0,38.4615385 C0,39.3123077 0.690666667,40 1.54166667,40 L35.4583333,40 C36.3093333,40 37,39.3123077 37,38.4615385 L37,32.3076923 C37,25.5707692 32.1514583,19.9492308 25.7550833,18.7184615 Z M9.78958333,10.7669227 C9.78958333,5.97525689 13.6960387,2.07692308 18.4976871,2.07692308 C23.2993355,2.07692308 27.2057908,5.97525689 27.2057908,10.7669227 C27.2057908,15.5585884 23.2993355,19.4569222 18.4976871,19.4569222 C13.6960387,19.4569222 9.78958333,15.5585884 9.78958333,10.7669227 Z M35.0729167,38 L2.00416667,38 L2.00416667,32.7860003 C2.00416667,26.0790586 7.19596042,20.6200008 13.5782292,20.6200008 L23.4988542,20.6200008 C29.8811229,20.6200008 35.0729167,26.0790586 35.0729167,32.7860003 L35.0729167,38 Z" id="Shape"></path>
                    </g>
                    <path d="M34.5,68.5 C15.7223185,68.5 0.5,53.2776815 0.5,34.5 C0.5,15.7223185 15.7223185,0.5 34.5,0.5 C53.2776815,0.5 68.5,15.7223185 68.5,34.5 C68.5,53.2776815 53.2776815,68.5 34.5,68.5 Z M34.5,65.5 C51.6208272,65.5 65.5,51.6208272 65.5,34.5 C65.5,17.3791728 51.6208272,3.5 34.5,3.5 C17.3791728,3.5 3.5,17.3791728 3.5,34.5 C3.5,51.6208272 17.3791728,65.5 34.5,65.5 Z" id="Oval-5-Copy" fill="url(#linearGradient-4)"></path>
                </g>
                <g id="Group-43" transform="translate(964.000000, 224.000000)">
                    <g id="Group-11" transform="translate(13.000000, 19.000000)">
                        <path d="M42.4752531,30.5880369 L38.9259259,19.9400554 L38.9259259,10.2222222 C38.9259259,5.25165947 34.8964887,1.22222222 29.9259259,1.22222222 L10,1.22222222 C5.02943725,1.22222222 1,5.25165947 1,10.2222222 L1,18.7407407 C1,23.7113035 5.02943725,27.7407407 10,27.7407407 L31.0860686,27.7407407 L42.4752531,30.5880369 Z" id="Rectangle-14" stroke="url(#linearGradient-6)" stroke-width="2"></path>
                        <path d="M9,16 C7.8954305,16 7,15.1045695 7,14 C7,12.8954305 7.8954305,12 9,12 C10.1045695,12 11,12.8954305 11,14 C11,15.1045695 10.1045695,16 9,16 Z M16,16 C14.8954305,16 14,15.1045695 14,14 C14,12.8954305 14.8954305,12 16,12 C17.1045695,12 18,12.8954305 18,14 C18,15.1045695 17.1045695,16 16,16 Z M23,16 C21.8954305,16 21,15.1045695 21,14 C21,12.8954305 21.8954305,12 23,12 C24.1045695,12 25,12.8954305 25,14 C25,15.1045695 24.1045695,16 23,16 Z M30,16 C28.8954305,16 28,15.1045695 28,14 C28,12.8954305 28.8954305,12 30,12 C31.1045695,12 32,12.8954305 32,14 C32,15.1045695 31.1045695,16 30,16 Z" id="Combined-Shape" fill="url(#linearGradient-7)"></path>
                    </g>
                    <path d="M34.5,68.5 C15.7223185,68.5 0.5,53.2776815 0.5,34.5 C0.5,15.7223185 15.7223185,0.5 34.5,0.5 C53.2776815,0.5 68.5,15.7223185 68.5,34.5 C68.5,53.2776815 53.2776815,68.5 34.5,68.5 Z M34.5,65.5 C51.6208272,65.5 65.5,51.6208272 65.5,34.5 C65.5,17.3791728 51.6208272,3.5 34.5,3.5 C17.3791728,3.5 3.5,17.3791728 3.5,34.5 C3.5,51.6208272 17.3791728,65.5 34.5,65.5 Z" id="Oval-5-Copy-2" fill="url(#linearGradient-4)" fill-rule="nonzero"></path>
                </g>
            </g>
        </g>
    </g>
</svg>