<?xml version="1.0" encoding="UTF-8"?>
<svg width="178px" height="597px" viewBox="0 0 178 597" version="1.1" xmlns="http://www.w3.org/2000/svg" xmlns:xlink="http://www.w3.org/1999/xlink">
    <!-- Generator: Sketch 47.1 (45422) - http://www.bohemiancoding.com/sketch -->
    <title>Group 13</title>
    <desc>Created with Sketch.</desc>
    <defs>
        <linearGradient x1="14.6096116%" y1="8.08156995%" x2="100%" y2="100%" id="linearGradient-1">
            <stop stop-color="#426FFF" offset="0%"></stop>
            <stop stop-color="#672EF9" offset="100%"></stop>
        </linearGradient>
        <linearGradient x1="4.64936168%" y1="5.01283414%" x2="100%" y2="100%" id="linearGradient-2">
            <stop stop-color="#426FFF" offset="0%"></stop>
            <stop stop-color="#672EF9" offset="100%"></stop>
        </linearGradient>
        <linearGradient x1="-12.3757203%" y1="30.0177557%" x2="118.898368%" y2="65.9064416%" id="linearGradient-3">
            <stop stop-color="#426FFF" offset="0%"></stop>
            <stop stop-color="#672EF9" offset="100%"></stop>
        </linearGradient>
        <linearGradient x1="21.3718151%" y1="0%" x2="100%" y2="100%" id="linearGradient-4">
            <stop stop-color="#426FFF" offset="0%"></stop>
            <stop stop-color="#672EF9" offset="100%"></stop>
        </linearGradient>
        <linearGradient x1="7.92310697%" y1="8.54817066%" x2="100%" y2="100%" id="linearGradient-5">
            <stop stop-color="#426FFF" offset="0%"></stop>
            <stop stop-color="#672EF9" offset="100%"></stop>
        </linearGradient>
        <linearGradient x1="7.59442728%" y1="0%" x2="100%" y2="100%" id="linearGradient-6">
            <stop stop-color="#426FFF" offset="0%"></stop>
            <stop stop-color="#672EF9" offset="100%"></stop>
        </linearGradient>
        <linearGradient x1="18.3931484%" y1="14.2223561%" x2="82.1493078%" y2="90.7049212%" id="linearGradient-7">
            <stop stop-color="#426FFF" offset="0%"></stop>
            <stop stop-color="#672EF9" offset="100%"></stop>
        </linearGradient>
    </defs>
    <g id="Page-1" stroke="none" stroke-width="1" fill="none" fill-rule="evenodd">
        <g id="iPhone-8" transform="translate(-103.000000, -982.000000)">
            <g id="Group-13" transform="translate(103.000000, 982.000000)">
                <g id="Group-10">
                    <g id="Group" transform="translate(89.500000, 307.500000) rotate(90.000000) translate(-89.500000, -307.500000) translate(-125.000000, 225.000000)">
                        <polyline id="Path-9" stroke="#A036F5" stroke-width="2" opacity="0.4" stroke-dasharray="15,5" transform="translate(74.881011, 82.937687) rotate(90.000000) translate(-74.881011, -82.937687) " points="74.3810107 10.0566762 74.3810107 106.49314 74.3810107 115.468441 74.3810107 150.386088 74.3810107 155.818698"></polyline>
                        <path d="M54.9060403,69.0823529 L54.9060403,97.1692222 L54.9060403,97.1692222 C54.9060403,102.69207 59.3831928,107.169222 64.9060403,107.169222 L81.9530201,107.169222 L81.9530201,107.169222 C87.4758676,107.169222 91.9530201,111.646375 91.9530201,117.169222 L91.9530201,210.070588" id="Path-10" stroke="#08CDED" stroke-width="2" opacity="0.4" stroke-dasharray="15,5" transform="translate(73.429530, 139.576471) rotate(90.000000) translate(-73.429530, -139.576471) "></path>
                        <path d="M58.1963755,-49.8700553 L58.1963755,-45.7299447 L58.1963755,-33.8117127 L58.1963755,-19.9249216 L58.1963755,-19.9249216 C58.1963755,-14.4020741 62.673528,-9.92492162 68.1963755,-9.92492162 L85.2923608,-9.92492162 L85.2923608,-9.92492162 C90.8152083,-9.92492162 95.2923608,-5.44776912 95.2923608,0.075078381 L95.2923608,60.0547493 L95.2923608,60.0547493 C95.2923608,65.5775968 90.8152083,70.0547493 85.2923608,70.0547493 L60.835985,70.0547493 L60.835985,70.0547493 C55.3131375,70.0547493 50.835985,74.5319018 50.835985,80.0547493 L50.835985,95.2582906" id="Path-10" stroke="#3D27EE" stroke-width="2" opacity="0.4" stroke-dasharray="15,5" transform="translate(73.064173, 22.694118) scale(-1, -1) rotate(90.000000) translate(-73.064173, -22.694118) "></path>
                        <polygon id="Triangle-3" fill="#08CDED" transform="translate(60.996860, 158.203061) rotate(90.000000) translate(-60.996860, -158.203061) " points="60.9968601 150.703061 67.4968601 165.703061 54.4968601 165.703061"></polygon>
                        <polygon id="Triangle-3-Copy" fill="#08CDED" transform="translate(420.895683, 37.422306) rotate(90.000000) translate(-420.895683, -37.422306) " points="420.895683 29.9223056 427.395683 44.9223056 414.395683 44.9223056"></polygon>
                    </g>
                    <g id="Group-3" transform="translate(90.000000, 469.500000) rotate(90.000000) translate(-90.000000, -469.500000) translate(7.000000, 402.000000)" stroke-width="2" opacity="0.4">
                        <polyline id="Path-11" stroke="#3D27EE" stroke-dasharray="15,5" points="165.009614 67.5 113 67.5 21 67.5"></polyline>
                        <path d="M165,22.6950966 L113,22.6950966 L97.7050201,22.6950966 L97.7050201,22.6950966 C92.1821726,22.6950966 87.7050201,18.2179441 87.7050201,12.6950966 L87.7050201,10 L87.7050201,10 C87.7050201,4.4771525 83.2278676,-2.28388206e-13 77.7050201,-2.27373675e-13 L62.1661691,-2.27373675e-13 L62.1661691,-2.29150032e-13 C56.6433216,-2.23230228e-13 52.1661691,4.4771525 52.1661691,10 L52.1661691,19 L52.1661691,19 C52.1661691,24.5228475 47.6890166,29 42.1661691,29 L26.8334356,29 L22,29 L0.994048462,29" id="Path-13" stroke="#08CDED" stroke-dasharray="15,5.300000190734863"></path>
                        <path d="M163.518306,128.695097 L117,128.695097 L112.946832,128.695959 L110.271057,128.695777 L110.271057,128.695097 C104.748475,128.694721 100.271737,124.217679 100.271737,118.695097 L100.271057,116 L100.271057,116 C100.271057,110.477153 95.7939044,106 90.2710569,106 L74.5089343,106 L74.5089343,106 C68.9860868,106 64.5089343,110.477153 64.5089343,116 L64.5089343,125 L64.5089343,125 C64.5089343,130.522847 60.0317818,135 54.5089343,135 L39.0170488,135 L20,135 L0.993422191,135" id="Path-13" stroke="#A036F5" stroke-dasharray="15,5.300000190734863" transform="translate(82.255864, 120.500000) scale(1, -1) translate(-82.255864, -120.500000) "></path>
                    </g>
                    <polygon id="Polygon-2-Copy" fill="#3D27EE" transform="translate(171.500000, 156.500000) rotate(181.000000) translate(-171.500000, -156.500000) " points="171.5 150 178 154.965558 175.517221 163 167.482779 163 165 154.965558"></polygon>
                    <polygon id="Polygon-2-Copy-2" fill="#3D27EE" transform="translate(89.500000, 462.500000) rotate(181.000000) translate(-89.500000, -462.500000) " points="89.5 456 96 460.965558 93.5172209 469 85.4827791 469 83 460.965558"></polygon>
                    <rect id="Rectangle-12" fill="#A036F5" x="83" y="138" width="13" height="13"></rect>
                    <rect id="Rectangle-12-Copy" fill="#A036F5" x="39" y="522" width="13" height="13"></rect>
                    <g id="Group-2" fill-rule="nonzero">
                        <g id="024-smartphone-1" transform="translate(90.444444, 53.114754)" fill="url(#linearGradient-1)">
                            <path d="M17.8148148,13.3088674 L17.8148148,8.87257824 L17.8148148,7.60506706 L17.8148148,4.43628912 L17.8148148,3.16877794 C17.8148148,1.42151379 16.2779444,-7.10542736e-15 14.3888889,-7.10542736e-15 L3.42592593,-7.10542736e-15 C1.53687037,-7.10542736e-15 0,1.42151379 0,3.16877794 L0,4.43628912 L0,23.4489568 L0,24.716468 C0,26.4637321 1.53687037,27.8852459 3.42592593,27.8852459 L14.3888889,27.8852459 C16.2779444,27.8852459 17.8148148,26.4637321 17.8148148,24.716468 L17.8148148,23.4489568 L17.8148148,20.9139344 L17.8148148,13.3088674 Z M15.6973239,23.9826457 C15.6973239,25.0308774 14.8586614,25.8839125 13.828091,25.8839125 L3.85884863,25.8839125 C2.82827821,25.8839125 1.98961569,25.0308774 1.98961569,23.9826457 L1.98961569,23.3488901 L15.6973239,23.3488901 L15.6973239,23.9826457 Z M15.6973239,22.0146678 L1.98961569,22.0146678 L1.98961569,5.87057808 L15.6973239,5.87057808 L15.6973239,22.0146678 Z M15.6973239,4.53635579 L1.98961569,4.53635579 L1.98961569,3.9026002 C1.98961569,2.85436846 2.82827821,2.00133344 3.85884863,2.00133344 L13.828091,2.00133344 C14.8586614,2.00133344 15.6973239,2.85436846 15.6973239,3.9026002 L15.6973239,4.53635579 Z" id="Shape"></path>
                        </g>
                        <g id="024-smartphone-1" transform="translate(113.740741, 33.196721)" fill="url(#linearGradient-1)">
                            <path d="M34.2592593,22.1814456 L34.2592593,14.7876304 L34.2592593,12.6751118 L34.2592593,7.3938152 L34.2592593,5.28129657 C34.2592593,2.36918964 31.3037393,0 27.6709402,0 L6.58831909,0 C2.95551994,0 0,2.36918964 0,5.28129657 L0,7.3938152 L0,39.0815946 L0,41.1941133 C0,44.1062202 2.95551994,46.4754098 6.58831909,46.4754098 L27.6709402,46.4754098 C31.3037393,46.4754098 34.2592593,44.1062202 34.2592593,41.1941133 L34.2592593,39.0815946 L34.2592593,34.8565574 L34.2592593,22.1814456 Z M31.404321,40.63713 C31.404321,42.4529645 29.6576178,43.930663 27.5112233,43.930663 L6.74803591,43.930663 C4.60164141,43.930663 2.85493827,42.4529645 2.85493827,40.63713 L2.85493827,39.5392857 L31.404321,39.5392857 L31.404321,40.63713 Z M31.404321,38.0586033 L2.85493827,38.0586033 L2.85493827,8.58007566 L31.404321,8.58007566 L31.404321,38.0586033 Z M31.404321,7.30207227 L2.85493827,7.30207227 L2.85493827,6.20422794 C2.85493827,4.38839342 4.60164141,2.91069496 6.74803591,2.91069496 L27.5112233,2.91069496 C29.6576178,2.91069496 31.404321,4.38839342 31.404321,6.20422794 L31.404321,7.30207227 Z" id="Shape"></path>
                        </g>
                        <g id="031-computer-1" fill="url(#linearGradient-2)">
                            <path d="M76.6265432,0 L6.96604938,0 C3.12496975,0 0,2.92876967 0,6.52868852 L0,56.1467213 C0,59.7466402 3.12496975,62.6754098 6.96604938,62.6754098 L34.4387549,62.6754098 L32.3489401,70.5098361 L22.291358,70.5098361 C21.5223062,70.5098361 20.8981481,71.0948066 20.8981481,71.8155738 C20.8981481,75.4154926 24.0231179,78.3442623 27.8641975,78.3442623 L55.7283951,78.3442623 C59.5694747,78.3442623 62.6944444,75.4154926 62.6944444,71.8155738 C62.6944444,71.0948066 62.0702864,70.5098361 61.3012346,70.5098361 L51.2436525,70.5098361 L49.1538377,62.6754098 L76.6265432,62.6754098 C80.4676228,62.6754098 83.5925926,59.7466402 83.5925926,56.1467213 L83.5925926,6.52868852 C83.5925926,2.92876967 80.4676228,0 76.6265432,0 Z M50.1555556,73.1213115 L59.6697858,73.1213115 C59.0943901,74.6411902 57.5451407,75.7327869 55.7283951,75.7327869 L27.8641975,75.7327869 C26.0474519,75.7327869 24.4982025,74.6411902 23.9228068,73.1213115 L33.437037,73.1213115 L50.1555556,73.1213115 Z M35.2217389,70.5098361 L37.3115537,62.6754098 L46.2810389,62.6754098 L48.3708537,70.5098361 L35.2217389,70.5098361 Z M80.8061728,56.1467213 C80.8061728,58.3064115 78.9309123,60.0639344 76.6265432,60.0639344 L47.3691358,60.0639344 L36.2234568,60.0639344 L6.96604938,60.0639344 C4.66168025,60.0639344 2.78641975,58.3064115 2.78641975,56.1467213 L2.78641975,54.8409836 L80.8061728,54.8409836 L80.8061728,56.1467213 Z M80.8061728,52.2295082 L2.78641975,52.2295082 L2.78641975,6.52868852 C2.78641975,4.36899836 4.66168025,2.61147541 6.96604938,2.61147541 L76.6265432,2.61147541 C78.9309123,2.61147541 80.8061728,4.36899836 80.8061728,6.52868852 L80.8061728,52.2295082 Z" id="Shape"></path>
                        </g>
                    </g>
                    <g id="Group-7" transform="translate(35.000000, 570.000000)" fill-rule="nonzero" fill="url(#linearGradient-3)">
                        <g id="Group-4">
                            <path d="M15.8706756,2.82931713 L14.7483427,1.03320907 C14.6639834,0.898206031 14.4871156,0.856550996 14.3532973,0.940169947 L3.44982175,7.75341763 C3.31600345,7.83703658 3.27590898,8.01426472 3.36026825,8.14926776 L4.48260112,9.94537582 L15.8706756,2.82931713 Z M16.2852076,3.49270699 L4.89713312,10.6087657 L7.0261712,14.0159388 C7.11053047,14.1509419 7.28739832,14.1925969 7.42121662,14.108978 L18.3246921,7.29573029 C18.4585104,7.21211134 18.4986049,7.03488319 18.4142456,6.89988015 L16.2852076,3.49270699 Z M2.99158388,7.02008375 L13.8950594,0.206836062 C14.4303326,-0.127639742 15.137804,0.0389803976 15.475241,0.578992559 L19.141144,6.44566364 C19.4785811,6.9856758 19.3182032,7.69458837 18.78293,8.02906417 L7.87945449,14.8423119 C7.34418131,15.1767877 6.63670989,15.0101675 6.29927284,14.4701554 L2.63336988,8.60348427 C2.29593283,8.06347211 2.4563107,7.35455955 2.99158388,7.02008375 Z M0.428571429,15.7384988 C0.191877964,15.7384988 0,15.5578227 0,15.3349475 C0,15.1120723 0.191877964,14.9313963 0.428571429,14.9313963 L5.43672804,14.9313963 C5.67342151,14.9313963 5.86529947,15.1120723 5.86529947,15.3349475 C5.86529947,15.5578227 5.67342151,15.7384988 5.43672804,15.7384988 L0.428571429,15.7384988 Z M9.71428571,15.7384988 C9.47759225,15.7384988 9.28571429,15.5578227 9.28571429,15.3349475 C9.28571429,15.1120723 9.47759225,14.9313963 9.71428571,14.9313963 L19.5714286,14.9313963 C19.808122,14.9313963 20,15.1120723 20,15.3349475 C20,15.5578227 19.808122,15.7384988 19.5714286,15.7384988 L9.71428571,15.7384988 Z" id="Combined-Shape"></path>
                        </g>
                    </g>
                    <g id="ngx-logo" transform="translate(33.000000, 243.000000)">
                        <polygon id="Shape" fill="#9F82FA" points="41 8 41 39 53.54287 34.4645861 53.54287 18.2029659 53.54287 18.1755201 53.54287 16.5150509 56 16.9610447 56 10.7171315 41 8"></polygon>
                        <path d="M56,10.5992098 L56,16.7910448 L56,16.7910448 L59.7512275,16.1106234 L59.7512275,23.6633011 L69.9967267,20.9007902 L69.9967267,8 L56,10.5992098 L56,10.5992098 Z M72,38.9795874 L72,24.6907375 L71.1751227,24.3505268 L57.5450082,28.0316067 L57.5450082,33.6450834 L63.4369885,32.107331 L63.4369885,35.8360404 L71.9476268,39 L71.9476268,39 L72,38.9795874 Z" id="Shape" fill="#9F82FA"></path>
                        <path d="M0,0 L0,53 L13.4732372,48.1273969 C13.4392554,48.0616063 13.3999494,47.998746 13.355718,47.9394536 L13.355718,24.7458629 L20.9599052,45.4683478 L35,40.428684 L35,6.26477541 L21.78254,3.87719989 L21.78254,22.9708432 L13.8810982,2.47110586 L0,0 L0,0 Z" id="Shape" fill="#9F82FA"></path>
                        <path d="M84.2936631,30.1539678 L74.0841491,9.99775903 C73.9174836,9.60992667 73.6786086,9.25675741 73.3800447,8.95676246 C73.0139104,8.53756921 72.6923693,8.18591265 72.4154216,7.90179278 C72.251985,7.75870164 72.1118524,7.5913726 72,7.40574743 L86.4904688,4.70893752 L92.0106474,17.8157132 L97.2562253,2.70379647 L111.760776,0 L111.345355,0.649749539 C111.251474,0.752219 111.068407,0.985104139 110.796153,1.34840496 C110.598144,1.61505523 110.360779,1.85058346 110.092049,2.04706037 L101.544221,29.0920116 L111.070754,50.3031901 C111.235324,50.6775184 111.443261,51.031559 111.690366,51.3581598 C111.961042,51.7274385 112.259998,52.0754679 112.584578,52.3991563 C112.747677,52.5291347 112.888037,52.6849326 113,52.8602689 L112.26069,53 L95.0101322,46.8937516 L93.1442555,42.4503032 L91.3769535,45.6291853 L80.9702902,41.9193251 L82.1531856,38.2513841 C82.7493274,36.388303 83.2328124,34.7464628 83.6036407,33.3258634 C83.8949528,32.2722935 84.1299816,31.2041919 84.3077451,30.1260216 L84.3077451,30.1260216 L84.2936631,30.1539678 Z" id="Shape" fill="#9F82FA"></path>
                        <polygon id="Shape" fill="#8D6AF8" points="56.503513 38 56.503513 38 56.503513 38 0 57.5835601 8.62096624 130.214182 56.503513 156 56.503513 156 56.503513 156 104.379034 130.214182 113 57.5835601 56.503513 38"></polygon>
                        <polygon id="Shape" fill="#A884FC" points="56 38 56 51.0944139 56 51.0397685 56 110.801389 56 110.801389 56 156 56 156 103.454794 130.214182 112 57.5835601 56 38"></polygon>
                        <path d="M33.0069613,125.917597 L36.223063,125.917597 L36.223063,119.737339 L40.3232446,125.917597 L44.2493947,125.917597 L40.6225787,120.424034 C41.5597884,120.175427 42.3751289,119.602672 42.9197942,118.8103 C43.5891728,117.955514 43.947198,116.903246 43.936138,115.823176 L43.936138,115.335622 C43.9906674,113.94786 43.4105766,112.60929 42.3559322,111.68927 C41.2356671,110.626324 39.7332652,110.045855 38.1791768,110.075536 L33,110.075536 L33,125.917597 L33,125.917597 L33.0069613,125.917597 Z M36.2091404,117.677253 L36.2091404,113.220601 L38.0121065,113.220601 C38.7286345,113.183913 39.4333636,113.41156 39.9891041,113.859227 C40.4209889,114.259712 40.6526269,114.827195 40.6225787,115.411159 C40.6581753,116.024316 40.4278668,116.623495 39.9891041,117.059227 C39.6263162,117.488424 39.078898,117.722765 38.5133172,117.690987 L36.2161017,117.690987 L36.2091404,117.677253 Z M45.7321429,110.082403 L45.7321429,125.876395 L55.3595642,125.876395 L55.3595642,122.717597 L48.9482446,122.717597 L48.9482446,119.538197 L53.7584746,119.538197 L53.7584746,116.434335 L48.9482446,116.434335 L48.9482446,113.254936 L55.3595642,113.254936 L55.3595642,110.096137 L45.7391041,110.096137 L45.7321429,110.082403 Z M61.6107748,122.793133 C61.1793959,122.794959 60.76505,122.627195 60.4593637,122.326939 C60.1536775,122.026682 59.9818362,121.618672 59.9818402,121.193133 L56.7448547,121.193133 C56.7448547,123.847892 58.926518,126 61.6177361,126 C64.3089541,126 66.4906174,123.847892 66.4906174,121.193133 C66.5167257,120.402019 66.2714528,119.625359 65.7944915,118.988841 C64.9965098,117.999901 63.9067134,117.280013 62.6758475,116.928755 C61.9552566,116.806745 61.272137,116.52499 60.6779661,116.104721 C60.2221654,115.830806 59.9549932,115.332691 59.9818402,114.806867 C59.9818403,113.923211 60.7080225,113.206867 61.6038136,113.206867 C62.4996047,113.206867 63.2257868,113.923211 63.2257869,114.806867 L66.4627724,114.806867 C66.4627724,112.152108 64.2811091,110 61.589891,110 C58.898673,110 56.7170097,112.152108 56.7170097,114.806867 C56.6887275,115.587709 56.918373,116.35648 57.371368,116.997425 C58.1384377,118.008845 59.1958387,118.76962 60.406477,119.181116 C61.534201,119.565665 61.2557506,119.462661 62.4113196,119.867811 C62.9590506,120.061781 63.2993051,120.602226 63.2327482,121.172532 C63.2214174,122.054188 62.4976175,122.765131 61.6038136,122.772532 L61.6038136,122.772532 L61.6038136,122.772532 L61.6107748,122.793133 Z M71.7742131,110.082403 L67.7645278,110.082403 L67.7645278,113.241202 L71.7742131,113.241202 L71.7742131,125.91073 L74.9903148,125.91073 L74.9903148,113.248069 L79,113.248069 L79,110.08927 L71.7811743,110.08927 L71.7742131,110.082403 Z" id="Shape" fill="#FFFFFF" fill-rule="nonzero"></path>
                        <path d="M56.0417676,54 L33,104 L41.5901937,104 L46.219431,92.8102937 L65.780569,92.8102937 L70.4098063,104 L79,104 L56.027845,54 L56.027845,54 L56.0417676,54 Z M63.1639344,85.6176471 L49.5901639,85.6176471 L56.3805602,70.1764706 L63.1639344,85.6176471 L63.1639344,85.6176471 Z" id="Shape" fill="#FFFFFF"></path>
                    </g>
                    <g id="Group-8" transform="translate(125.000000, 568.000000)" fill-rule="nonzero" fill="url(#linearGradient-4)">
                        <path d="M13.9216667,10.2951538 C15.0925,9.21123077 15.8333333,7.65515385 15.8333333,5.92307692 C15.8333333,2.65776923 13.2166667,0 10,0 C6.78333333,0 4.16666667,2.65776923 4.16666667,5.92307692 C4.16666667,7.65515385 4.9075,9.21123077 6.07833333,10.2951538 C2.62083333,10.9720769 0,14.0639231 0,17.7692308 L0,21.1538462 C0,21.6217692 0.373333333,22 0.833333333,22 L19.1666667,22 C19.6266667,22 20,21.6217692 20,21.1538462 L20,17.7692308 C20,14.0639231 17.3791667,10.9720769 13.9216667,10.2951538 Z M5.29166667,5.92180746 C5.29166667,3.28639129 7.40326415,1.14230769 9.99874977,1.14230769 C12.5942354,1.14230769 14.7058329,3.28639129 14.7058329,5.92180746 C14.7058329,8.55722363 12.5942354,10.7013072 9.99874977,10.7013072 C7.40326415,10.7013072 5.29166667,8.55722363 5.29166667,5.92180746 Z M18.9583333,20.9 L1.08333333,20.9 L1.08333333,18.0323001 C1.08333333,14.3434822 3.88970833,11.3410005 7.33958333,11.3410005 L12.7020833,11.3410005 C16.1519583,11.3410005 18.9583333,14.3434822 18.9583333,18.0323001 L18.9583333,20.9 Z" id="Shape"></path>
                    </g>
                    <g id="Group-11" transform="translate(80.000000, 573.000000)">
                        <path d="M19.2376265,13.839473 L17.6738065,9.14801287 L17.6481481,8.98989899 C17.6481481,4.35684359 13.8923147,0.601010101 9.25925926,0.601010101 L6.48148148,0.601010101 C3.17800048,0.601010101 0.5,3.27901058 0.5,6.58249158 C0.5,9.88597259 3.17800048,12.5639731 6.48148148,12.5639731 L14.0740741,12.5639731 L14.1953419,12.5789018 L19.2376265,13.839473 Z" id="Rectangle-14" stroke="url(#linearGradient-5)"></path>
                        <path d="M4.09090909,7.27272727 C3.58883205,7.27272727 3.18181818,6.86571341 3.18181818,6.36363636 C3.18181818,5.86155932 3.58883205,5.45454545 4.09090909,5.45454545 C4.59298614,5.45454545 5,5.86155932 5,6.36363636 C5,6.86571341 4.59298614,7.27272727 4.09090909,7.27272727 Z M7.27272727,7.27272727 C6.77065023,7.27272727 6.36363636,6.86571341 6.36363636,6.36363636 C6.36363636,5.86155932 6.77065023,5.45454545 7.27272727,5.45454545 C7.77480432,5.45454545 8.18181818,5.86155932 8.18181818,6.36363636 C8.18181818,6.86571341 7.77480432,7.27272727 7.27272727,7.27272727 Z M10.4545455,7.27272727 C9.95246841,7.27272727 9.54545455,6.86571341 9.54545455,6.36363636 C9.54545455,5.86155932 9.95246841,5.45454545 10.4545455,5.45454545 C10.9566225,5.45454545 11.3636364,5.86155932 11.3636364,6.36363636 C11.3636364,6.86571341 10.9566225,7.27272727 10.4545455,7.27272727 Z M13.6363636,7.27272727 C13.1342866,7.27272727 12.7272727,6.86571341 12.7272727,6.36363636 C12.7272727,5.86155932 13.1342866,5.45454545 13.6363636,5.45454545 C14.1384407,5.45454545 14.5454545,5.86155932 14.5454545,6.36363636 C14.5454545,6.86571341 14.1384407,7.27272727 13.6363636,7.27272727 Z" id="Combined-Shape" fill="url(#linearGradient-6)"></path>
                    </g>
                    <circle id="Oval-5-Copy-2" stroke="url(#linearGradient-7)" cx="45" cy="580" r="16"></circle>
                    <circle id="Oval-5-Copy-3" stroke="url(#linearGradient-7)" cx="90" cy="580" r="16"></circle>
                    <circle id="Oval-5-Copy-4" stroke="url(#linearGradient-7)" cx="135" cy="580" r="16"></circle>
                </g>
            </g>
        </g>
    </g>
</svg>