<svg xmlns="http://www.w3.org/2000/svg" viewBox="0 0 1413.07 820.06"><defs><style>.cls-1{fill:none;stroke:#ccc5fe;stroke-miterlimit:10;stroke-width:10px;}.cls-2{fill:#ccc5fe;}.cls-3{fill:#ae9eff;}</style></defs><title>Asset 47</title><g id="Layer_2" data-name="Layer 2"><g id="Art"><path class="cls-1" d="M663.66,805.83,21,434.79C-2.69,421.12.28,397.23,27.62,381.44L657,18.06c27.34-15.79,68.71-17.5,92.4-3.83l642.66,371c23.69,13.68,20.72,37.56-6.63,53.35L756.06,802C728.71,817.79,687.34,819.51,663.66,805.83Z"/><path class="cls-2" d="M674.45,369.2,417.14,220.64c-17.73-10.23-15.5-28.1,5-39.92L669.48,37.9C690,26.08,720.9,24.8,738.62,35L995.94,183.59c17.72,10.23,15.5,28.11-5,39.92L743.59,366.34C723.13,378.15,692.17,379.44,674.45,369.2Z"/><path class="cls-3" d="M1013.65,573.12,756.33,424.56c-17.72-10.23-15.5-28.11,5-39.92l247.38-142.83c20.46-11.81,51.42-13.09,69.14-2.86l257.31,148.56c17.73,10.23,15.5,28.1-5,39.92L1082.79,570.25C1062.32,582.07,1031.37,583.35,1013.65,573.12Z"/><path class="cls-3" d="M341.07,573.12,83.76,424.56c-17.72-10.23-15.5-28.11,5-39.92L336.1,241.81c20.47-11.81,51.42-13.09,69.15-2.86L662.56,387.51c17.72,10.23,15.5,28.1-5,39.92L410.21,570.25C389.75,582.07,358.79,583.35,341.07,573.12Z"/><path class="cls-2" d="M680.27,777,423,628.47c-17.73-10.23-15.5-28.1,5-39.92L675.3,445.73c20.47-11.82,51.42-13.1,69.14-2.87l257.32,148.56c17.72,10.23,15.5,28.1-5,39.92L749.41,774.17C729,786,698,787.26,680.27,777Z"/></g></g></svg>