<svg xmlns="http://www.w3.org/2000/svg" xmlns:xlink="http://www.w3.org/1999/xlink" viewBox="0 0 569.13 1040.08"><defs><style>.cls-1{fill:#020202;opacity:0.3;}.cls-2{fill:url(#linear-gradient);}.cls-3{fill:#fff;}.cls-4{fill:url(#linear-gradient-2);}.cls-5{fill:url(#linear-gradient-3);}.cls-6{fill:url(#linear-gradient-4);}.cls-7{fill:url(#linear-gradient-5);}.cls-8{fill:url(#linear-gradient-6);}.cls-9{fill:url(#linear-gradient-7);}.cls-10{fill:#6d7b99;}.cls-11{fill:url(#linear-gradient-8);}.cls-12{fill:url(#linear-gradient-9);}.cls-13{fill:#00a551;}.cls-14{fill:url(#linear-gradient-10);}.cls-15{fill:url(#linear-gradient-11);}.cls-16{fill:url(#linear-gradient-12);}.cls-17{fill:url(#linear-gradient-13);}.cls-18{fill:url(#linear-gradient-14);}.cls-19{fill:url(#linear-gradient-15);}</style><linearGradient id="linear-gradient" x1="77.33" y1="589.06" x2="74.83" y2="716.24" gradientUnits="userSpaceOnUse"><stop offset="0.03" stop-color="#ff4e5b"/><stop offset="0.24" stop-color="#ff4f57"/><stop offset="0.45" stop-color="#ff544b"/><stop offset="0.67" stop-color="#ff5b36"/><stop offset="0.89" stop-color="#ff661a"/><stop offset="1" stop-color="#ff6c08"/></linearGradient><linearGradient id="linear-gradient-2" x1="471.91" y1="528.4" x2="468.77" y2="688.15" xlink:href="#linear-gradient"/><linearGradient id="linear-gradient-3" x1="1543.67" y1="906.79" x2="1541.67" y2="1008.79" gradientTransform="translate(1386.62 2091.79) rotate(-168.52)" xlink:href="#linear-gradient"/><linearGradient id="linear-gradient-4" x1="971.05" y1="689.87" x2="969.05" y2="791.87" gradientTransform="matrix(-0.77, 0.64, -0.64, -0.77, 1444.31, 711.89)" xlink:href="#linear-gradient"/><linearGradient id="linear-gradient-5" x1="342.59" y1="363.27" x2="340.58" y2="465.27" gradientTransform="matrix(0.99, 0.16, 0.16, -0.99, -19.22, 1140.93)" xlink:href="#linear-gradient"/><linearGradient id="linear-gradient-6" x1="239.03" y1="843.57" x2="235.14" y2="1041.11" xlink:href="#linear-gradient"/><linearGradient id="linear-gradient-7" x1="247.94" y1="47.91" x2="274.6" y2="47.91" gradientUnits="userSpaceOnUse"><stop offset="0" stop-color="#dcdce2"/><stop offset="1" stop-color="#a4a4a5"/></linearGradient><linearGradient id="linear-gradient-8" x1="204.73" y1="515.54" x2="248.92" y2="515.54" xlink:href="#linear-gradient-7"/><linearGradient id="linear-gradient-9" x1="285.19" y1="515.54" x2="329.37" y2="515.54" xlink:href="#linear-gradient-7"/><linearGradient id="linear-gradient-10" x1="245.22" y1="455.92" x2="288.89" y2="455.92" xlink:href="#linear-gradient-7"/><linearGradient id="linear-gradient-11" x1="234.16" y1="103.11" x2="299.94" y2="103.11" xlink:href="#linear-gradient-7"/><linearGradient id="linear-gradient-12" x1="205.37" y1="404.32" x2="248.28" y2="404.32" xlink:href="#linear-gradient-7"/><linearGradient id="linear-gradient-13" x1="285.83" y1="404.32" x2="328.74" y2="404.32" xlink:href="#linear-gradient-7"/><linearGradient id="linear-gradient-14" x1="245.22" y1="351.29" x2="288.89" y2="351.29" xlink:href="#linear-gradient-7"/><linearGradient id="linear-gradient-15" x1="235.16" y1="163.14" x2="298.94" y2="163.14" xlink:href="#linear-gradient-7"/></defs><title>Asset 802z</title><g id="Layer_2" data-name="Layer 2"><g id="Art"><path class="cls-1" d="M33.68,730.8c116.29-1.31,129.09-83.43,129.09-83.43l-23.08-41.72s-12.8,82.12-129.08,83.44Z"/><path class="cls-2" d="M23.08,715.23c116.28-1.32,129.08-83.44,129.08-83.44l-23.07-41.71S116.28,672.2,0,673.51Z"/><path class="cls-3" d="M46.61,678.14l2,9.47.1,0a5.94,5.94,0,0,1,1.94-2.82,6.79,6.79,0,0,1,2.74-1.34,8.79,8.79,0,0,1,3.41-.15,4.89,4.89,0,0,1,2.34,1.09,6,6,0,0,1,1.54,2.14,14.79,14.79,0,0,1,1,3L64,700.72l-5,1.06L56.84,691.5a6.5,6.5,0,0,0-1.42-3.21,2.76,2.76,0,0,0-2.74-.58,3.55,3.55,0,0,0-2.7,1.84,6.92,6.92,0,0,0-.07,4.19l2,9.54-5,1.06L41.61,679.2Z"/><path class="cls-3" d="M74.59,677.43l1.16,3.22-3.53,1.27,3.12,8.67a2.52,2.52,0,0,0,1,1.48,2.53,2.53,0,0,0,1.77-.18c.27-.1.53-.2.77-.31a6.06,6.06,0,0,0,.67-.36L80.88,695a12.25,12.25,0,0,1-1.3.62c-.49.2-1,.39-1.45.56a14.75,14.75,0,0,1-2.17.6,5.06,5.06,0,0,1-2,0,3.3,3.3,0,0,1-1.66-.82,4.71,4.71,0,0,1-1.21-2l-3.71-10.34-2.91,1.05-1.16-3.22,2.91-1-1.88-5.26,4.81-1.72,1.89,5.25Z"/><path class="cls-3" d="M87.06,671.28l1.55,3.05L85.27,676l4.17,8.22q.59,1.15,1.17,1.35a2.56,2.56,0,0,0,1.74-.4c.25-.13.49-.27.72-.41a7.55,7.55,0,0,0,.62-.44l1.8,3.53a13,13,0,0,1-1.22.78c-.46.26-.92.51-1.37.74a15.11,15.11,0,0,1-2.08.87,5.47,5.47,0,0,1-1.95.29,3.42,3.42,0,0,1-1.74-.61,4.83,4.83,0,0,1-1.45-1.81l-5-9.79L78,679.74l-1.55-3,2.76-1.4-2.53-5L81.19,668l2.53,5Z"/><path class="cls-3" d="M94.11,666.65l1.47,1.87.06,0a5.68,5.68,0,0,1,.51-3.2,7.34,7.34,0,0,1,2.08-2.49,8,8,0,0,1,3.49-1.67,7.72,7.72,0,0,1,3.42.11,9.38,9.38,0,0,1,3.18,1.55,14.76,14.76,0,0,1,2.74,2.68,13.15,13.15,0,0,1,1.82,3.15,9.32,9.32,0,0,1,.68,3.35,7.5,7.5,0,0,1-.71,3.25,7.6,7.6,0,0,1-2.33,2.83,7.27,7.27,0,0,1-2.94,1.41,6.06,6.06,0,0,1-3.16-.15l-.06,0,5.43,6.95-4,3.15-15.48-19.8Zm14.33,7.53a4,4,0,0,0,.27-1.87,5.52,5.52,0,0,0-.59-1.95,11.42,11.42,0,0,0-1.18-1.86,10.53,10.53,0,0,0-1.54-1.59,5.93,5.93,0,0,0-1.79-1,4.41,4.41,0,0,0-1.94-.22,3.87,3.87,0,0,0-2,.86,4,4,0,0,0-1.34,1.71,4.17,4.17,0,0,0-.24,1.91,5.51,5.51,0,0,0,.59,2A11.38,11.38,0,0,0,99.94,674a10.46,10.46,0,0,0,1.54,1.58,5.47,5.47,0,0,0,1.75,1,4.36,4.36,0,0,0,5.21-2.41Z"/><path class="cls-3" d="M121.69,659.91a3,3,0,0,0,1.31-.12,3.71,3.71,0,0,0,1.2-.65,5.64,5.64,0,0,0,1-1,6.18,6.18,0,0,0,.58-1,3.58,3.58,0,0,0,.34-1.1,2.32,2.32,0,0,0-.08-1.08,1.85,1.85,0,0,0-.7-1,1.92,1.92,0,0,0-2.3.17,30.84,30.84,0,0,0-3.51,2.69c-.58.49-1.18.95-1.79,1.37a7.17,7.17,0,0,1-1.86,1,4.53,4.53,0,0,1-1.93.21,4,4,0,0,1-2-.86,5.66,5.66,0,0,1-1.92-2.35,5.13,5.13,0,0,1-.32-2.57,8,8,0,0,1,.83-2.63,15.5,15.5,0,0,1,1.58-2.51,15.28,15.28,0,0,1,2-2.16,7.8,7.8,0,0,1,2.32-1.43,5.85,5.85,0,0,1,2.57-.37,6.08,6.08,0,0,1,2.81,1l-3,3.86a2.25,2.25,0,0,0-2.27-.33,5.14,5.14,0,0,0-1.85,1.58,8.55,8.55,0,0,0-.53.77,3.25,3.25,0,0,0-.37.87,1.87,1.87,0,0,0,0,.88,1.4,1.4,0,0,0,.55.79,1.44,1.44,0,0,0,1.2.27,3.84,3.84,0,0,0,1.35-.62,15,15,0,0,0,1.51-1.18c.54-.46,1.09-.93,1.66-1.4s1.19-.94,1.81-1.36a7.13,7.13,0,0,1,1.91-.92,4.58,4.58,0,0,1,2-.17,4.4,4.4,0,0,1,2,.92,5.63,5.63,0,0,1,2.41,5.2,7.65,7.65,0,0,1-.8,2.81,16.33,16.33,0,0,1-1.65,2.66,15,15,0,0,1-2.18,2.32,8.16,8.16,0,0,1-2.53,1.53,5.93,5.93,0,0,1-2.78.36,6.18,6.18,0,0,1-3-1.21l3-3.87A2.74,2.74,0,0,0,121.69,659.91Z"/><path class="cls-1" d="M531.11,710c-151-1.71-167.62-108.34-167.62-108.34l30-54.17S396,651.44,547,653.15Z"/><path class="cls-4" d="M569.13,635.35,540,688.05l-.81,1.47-2.33,0c-5.9-.1-11.58-.38-17.07-.8-116.36-8.89-142.55-84.46-147.29-103.27-.68-2.7-.92-4.23-.92-4.23l30-54.17s13.37,85.75,125,104.68c6.3,1.07,12.9,1.93,19.84,2.54Q557.2,635.2,569.13,635.35Z"/><path class="cls-5" d="M84.36,798.08C79.7,859.26,16,849.42,16,849.42L45.73,894s63.76,9.84,68.42-51.34Z"/><path class="cls-1" d="M204.64,730.8c44.86,41.86-2.65,85.5-2.65,85.5l53.4,4.58s47.52-43.64,2.65-85.5Z"/><path class="cls-6" d="M199.15,720.09c44.87,41.86-2.65,85.5-2.65,85.5l53.4,4.57s47.52-43.63,2.65-85.5Z"/><path class="cls-1" d="M371.76,746.39c-17.12,58.93,46,72.1,46,72.1l-43.53,31.27s-63.16-13.17-46-72.1Z"/><path class="cls-7" d="M382.55,734.05c-17.12,58.93,46,72.1,46,72.1l-43.53,31.27s-63.16-13.17-46-72.1Z"/><path class="cls-8" d="M323.29,880.82a63.58,63.58,0,0,1-3.54,17.58c-6.07,18.09-22.54,45.42-67.24,58.44-70.09,20.41-69.7,83.24-69.7,83.24l-31.92-36.22S150.5,941,220.6,920.62a127.62,127.62,0,0,0,24.92-10A98.42,98.42,0,0,0,264,897.79c27-23.88,27.38-53.19,27.38-53.19l27.72,31.46Z"/><rect class="cls-9" x="247.94" y="47.21" width="26.67" height="1.41"/><polygon class="cls-10" points="274.61 47.21 247.94 47.21 247.94 48.62 274.61 48.62 274.61 47.21 274.61 47.21"/><path class="cls-11" d="M248.92,692.18H204.73V420.42a206.82,206.82,0,0,1,14.68-76.49h0a8,8,0,0,1,14.83,0h0a206.62,206.62,0,0,1,14.68,76.49Z"/><path class="cls-10" d="M226.83,342.6a4.19,4.19,0,0,1,4,2.7,202.15,202.15,0,0,1,14.41,75.12V688.48H208.43V420.42a202,202,0,0,1,14.42-75.12,4.17,4.17,0,0,1,4-2.7Zm0-3.7a7.88,7.88,0,0,0-7.42,5h0a206.81,206.81,0,0,0-14.67,76.49V692.18h44.18V420.42a206.62,206.62,0,0,0-14.68-76.49h0a7.86,7.86,0,0,0-7.41-5Z"/><path class="cls-10" d="M204.73,692.18V663.52s-10.18,12.29-13.4,28.66Z"/><path class="cls-10" d="M329.37,692.18V663.52s10.19,12.29,13.4,28.66Z"/><path class="cls-12" d="M329.37,692.18H285.19V420.42a206.62,206.62,0,0,1,14.68-76.49h0a8,8,0,0,1,14.83,0h0a206.81,206.81,0,0,1,14.67,76.49Z"/><path class="cls-10" d="M307.28,342.6a4.18,4.18,0,0,1,4,2.7,202,202,0,0,1,14.42,75.12V688.48H288.89V420.42A202.15,202.15,0,0,1,303.3,345.3a4.19,4.19,0,0,1,4-2.7Zm0-3.7a7.85,7.85,0,0,0-7.41,5h0a206.62,206.62,0,0,0-14.68,76.49V692.18h44.18V420.42a206.81,206.81,0,0,0-14.67-76.49h0a7.88,7.88,0,0,0-7.42-5Z"/><path class="cls-13" d="M256.42,692.18H277L270,666.57a3.48,3.48,0,0,0-6.71,0Z"/><rect class="cls-14" x="245.22" y="219.67" width="43.67" height="472.5"/><path class="cls-10" d="M245.22,219.67v472.5h43.67V219.67Zm40,468.81H248.92V223.37h36.27Z"/><path class="cls-15" d="M298.28,73c-.29-.94-.63-1.9-1-2.9L277.94,11.06c-6.51-14.74-18.42-14.74-23.62,0L236.66,69.89A30.33,30.33,0,0,0,235.25,74a40.09,40.09,0,0,0-1.09,9.7V206.22h65.78V84.75A39.24,39.24,0,0,0,298.28,73Z"/><path class="cls-10" d="M265.64,2.7c3.06,0,7.44,4.32,9.85,9.68l19.24,58.91,0,.13.05.12c.35.85.65,1.7.93,2.59a36,36,0,0,1,1.5,10.62l-1,117.77H237.86l-1-118.78a36.56,36.56,0,0,1,1-8.81,26.37,26.37,0,0,1,1.25-3.63l.07-.17,0-.17L256.83,12.2c1.9-5.32,5.81-9.5,8.81-9.5Zm0-2.7c-4.44,0-8.72,3.69-11.32,11.06L236.66,69.89A30.33,30.33,0,0,0,235.25,74a40.09,40.09,0,0,0-1.09,9.7V206.22h65.78V84.75A39.24,39.24,0,0,0,298.28,73c-.29-.94-.63-1.9-1-2.9L277.94,11.06C274.69,3.69,270.08,0,265.64,0Z"/><rect class="cls-16" x="205.37" y="403.39" width="42.91" height="1.85"/><polygon class="cls-10" points="248.28 403.39 205.37 403.39 205.37 405.24 248.28 405.24 248.28 403.39 248.28 403.39"/><rect class="cls-17" x="285.83" y="403.39" width="42.91" height="1.85"/><polygon class="cls-10" points="328.74 403.39 285.83 403.39 285.83 405.24 328.74 405.24 328.74 403.39 328.74 403.39"/><rect class="cls-18" x="245.22" y="350.36" width="43.67" height="1.85"/><polygon class="cls-10" points="288.89 350.37 245.22 350.37 245.22 352.21 288.89 352.21 288.89 350.37 288.89 350.37"/><rect class="cls-10" x="208.36" y="668.36" width="117.24" height="1.85"/><path class="cls-10" d="M216.56,692.18h20.53l-6.91-25.61a3.48,3.48,0,0,0-6.71,0Z"/><path class="cls-10" d="M297,692.18h20.52l-6.9-25.61a3.48,3.48,0,0,0-6.71,0Z"/><path class="cls-10" d="M256.79,692.18h20.53l-6.91-25.61a3.48,3.48,0,0,0-6.71,0Z"/><path class="cls-19" d="M245.79,237.16l-8.07-13.48a18.09,18.09,0,0,1-2.56-9.26V89.12h63.78v125.3a18.08,18.08,0,0,1-2.55,9.26l-8.07,13.48Z"/><path class="cls-10" d="M297.94,90.12v124.3a17,17,0,0,1-2.41,8.74l-7.78,13h-41.4l-7.77-13a17,17,0,0,1-2.42-8.74V90.12h61.78m2-2H234.16v126.3a19.09,19.09,0,0,0,2.7,9.77l8.36,14h43.67l8.36-14a19.08,19.08,0,0,0,2.69-9.77V88.12Z"/><path class="cls-3" d="M428.85,636.33a13.14,13.14,0,0,1-3.08-3,5.89,5.89,0,0,1-1.16-3.05,7.16,7.16,0,0,1,.53-3.18,16.67,16.67,0,0,1,2.05-3.51l12.05-16.38,5.72,4.2L432.2,628.78a9.38,9.38,0,0,0-.56.86,4.63,4.63,0,0,0-.37.86,1.41,1.41,0,0,0,0,1,1.62,1.62,0,0,0,.61.79,1.68,1.68,0,0,0,.94.36,1.52,1.52,0,0,0,.9-.3,5,5,0,0,0,.71-.63c.19-.21.4-.47.64-.79l12.76-17.35,5.73,4.22-12.05,16.38a16.08,16.08,0,0,1-2.75,3,7.16,7.16,0,0,1-2.87,1.45,5.83,5.83,0,0,1-3.26-.19A13.68,13.68,0,0,1,428.85,636.33Z"/><path class="cls-3" d="M442.38,645.1l14.2-25.45,7.6,4.24a24.79,24.79,0,0,1,2.79,1.78,11.86,11.86,0,0,1,2,2,6.05,6.05,0,0,1,1.21,2.23,6.3,6.3,0,0,1,.08,2.58,9.45,9.45,0,0,1-1.14,3,12.33,12.33,0,0,1-2.92,3.73,5.87,5.87,0,0,1-3.85,1.09l-3.34,14.12-6.52-3.64,3.64-12.72-1.29-.72-6.28,11.25Zm14.42-11.2,1.63.91a2.75,2.75,0,0,0,2.62.31,5.23,5.23,0,0,0,2-2.18,5.14,5.14,0,0,0,.79-2.73,2.36,2.36,0,0,0-1.38-1.89l-1.93-1.08Z"/><path class="cls-3" d="M464.44,656.88l11.9-26.6,6.51,2.91-10,22.26,5.91,2.65-1.94,4.34Z"/></g></g></svg>