<svg xmlns="http://www.w3.org/2000/svg" xmlns:xlink="http://www.w3.org/1999/xlink" viewBox="0 0 871.54 704.01"><defs><style>.cls-1{fill:#a83644;}.cls-2{fill:#ff4e5b;}.cls-3{fill:url(#linear-gradient);}.cls-13,.cls-4{opacity:0.9;}.cls-4{fill:url(#linear-gradient-2);}.cls-5,.cls-7{fill:#6d7b99;}.cls-6{fill:url(#linear-gradient-3);}.cls-7,.cls-9{stroke:#6d7b99;stroke-linecap:round;stroke-miterlimit:10;stroke-width:2px;}.cls-8{fill:#e2b771;}.cls-9{fill:none;}.cls-10{fill:url(#linear-gradient-4);}.cls-11{fill:url(#linear-gradient-5);}.cls-12{fill:url(#linear-gradient-6);}.cls-13{fill:url(#linear-gradient-7);}.cls-14{fill:#c12727;}.cls-15{fill:url(#linear-gradient-8);}.cls-16{fill:url(#linear-gradient-9);}.cls-17{fill:url(#linear-gradient-10);}.cls-18{fill:url(#linear-gradient-11);}.cls-19{fill:url(#linear-gradient-12);}.cls-20{fill:url(#linear-gradient-13);}</style><linearGradient id="linear-gradient" x1="165.83" y1="439.5" x2="1130.75" y2="431.12" gradientUnits="userSpaceOnUse"><stop offset="0" stop-color="#3b394f"/><stop offset="1" stop-color="#6574e0"/></linearGradient><linearGradient id="linear-gradient-2" x1="165.82" y1="439.95" x2="1130.74" y2="431.57" xlink:href="#linear-gradient"/><linearGradient id="linear-gradient-3" x1="641.58" y1="42.63" x2="467.42" y2="182.33" gradientUnits="userSpaceOnUse"><stop offset="0" stop-color="#ffc639"/><stop offset="1" stop-color="#f9801c"/></linearGradient><linearGradient id="linear-gradient-4" x1="513.89" y1="194.56" x2="526.91" y2="194.56" xlink:href="#linear-gradient-3"/><linearGradient id="linear-gradient-5" x1="512.43" y1="198.55" x2="527.46" y2="198.55" xlink:href="#linear-gradient-3"/><linearGradient id="linear-gradient-6" x1="325.14" y1="76.17" x2="1290.06" y2="67.79" gradientTransform="translate(1030.85 505.2) rotate(180)" xlink:href="#linear-gradient"/><linearGradient id="linear-gradient-7" x1="325.12" y1="76.63" x2="1290.05" y2="68.25" gradientTransform="translate(1030.85 505.2) rotate(180)" xlink:href="#linear-gradient"/><linearGradient id="linear-gradient-8" x1="613.16" y1="574.24" x2="739.79" y2="708.73" gradientUnits="userSpaceOnUse"><stop offset="0.03" stop-color="#ff4e5b"/><stop offset="0.24" stop-color="#ff4f57"/><stop offset="0.45" stop-color="#ff544b"/><stop offset="0.67" stop-color="#ff5b36"/><stop offset="0.89" stop-color="#ff661a"/><stop offset="1" stop-color="#ff6c08"/></linearGradient><linearGradient id="linear-gradient-9" x1="119.3" y1="78.4" x2="245.93" y2="212.89" xlink:href="#linear-gradient-8"/><linearGradient id="linear-gradient-10" x1="597.14" y1="589.32" x2="723.77" y2="723.82" xlink:href="#linear-gradient-8"/><linearGradient id="linear-gradient-11" x1="621.96" y1="565.95" x2="748.59" y2="700.45" xlink:href="#linear-gradient-8"/><linearGradient id="linear-gradient-12" x1="398.92" y1="335.17" x2="490.52" y2="432.45" gradientTransform="matrix(0, -1, -1, 0, 945.26, 1095.29)" xlink:href="#linear-gradient-8"/><linearGradient id="linear-gradient-13" x1="284.02" y1="334.33" x2="123.25" y2="175.26" xlink:href="#linear-gradient-8"/></defs><title>Asset 80</title><g id="Layer_2" data-name="Layer 2"><g id="Art"><path class="cls-1" d="M748.65,451.33a115.26,115.26,0,0,1-70.78,106.28q-2.65,1.13-5.37,2.1a114.7,114.7,0,0,1-39,6.82H467.76A115.33,115.33,0,0,1,352.57,451.33c0-.23,0-.47,0-.7a3.11,3.11,0,0,1,0-.32,3.47,3.47,0,0,1,.06-.45l.09-.37a1.42,1.42,0,0,1,0-.22c.05-.17.1-.34.16-.5v0a8.52,8.52,0,0,1,.78-1.64s0,0,0,0,.19-.29.3-.43a.28.28,0,0,1,.08-.11,3.47,3.47,0,0,1,.34-.42,5.57,5.57,0,0,1,.41-.45,6.94,6.94,0,0,1,.93-.79,5.65,5.65,0,0,1,.51-.34,6.41,6.41,0,0,1,1.1-.58,6.59,6.59,0,0,1,.67-.23,2.46,2.46,0,0,1,.59-.16,2.42,2.42,0,0,1,.45-.1,5.4,5.4,0,0,1,.58-.08,5.46,5.46,0,0,1,.8-.05,8,8,0,0,1,8,8,99.32,99.32,0,0,0,99.2,99.21H633.45a98.8,98.8,0,0,0,23.09-2.72A97.6,97.6,0,0,0,677.87,540a99.15,99.15,0,0,0,54.76-86.29q0-1.2,0-2.4,0-3.12-.21-6.18v0a99.31,99.31,0,0,0-54.58-82.46V345A115.43,115.43,0,0,1,748.48,445.1C748.6,447.16,748.65,449.24,748.65,451.33Z"/><path class="cls-2" d="M748.65,437.67A115.26,115.26,0,0,1,677.87,544q-2.65,1.13-5.37,2.1a114.7,114.7,0,0,1-39,6.82H467.76A115.33,115.33,0,0,1,352.57,437.67c0-.23,0-.47,0-.7a3.11,3.11,0,0,1,0-.32,3.47,3.47,0,0,1,.06-.45l.09-.37a1.42,1.42,0,0,1,0-.22c.05-.17.1-.34.16-.5v0a8.52,8.52,0,0,1,.78-1.64s0,0,0,0,.19-.29.3-.43a.28.28,0,0,1,.08-.11,3.47,3.47,0,0,1,.34-.42,5.57,5.57,0,0,1,.41-.45,6.94,6.94,0,0,1,.93-.79,5.65,5.65,0,0,1,.51-.34,6.41,6.41,0,0,1,1.1-.58,6.59,6.59,0,0,1,.67-.23,2.46,2.46,0,0,1,.59-.16,2.42,2.42,0,0,1,.45-.1,5.4,5.4,0,0,1,.58-.08,5.46,5.46,0,0,1,.8-.05,8,8,0,0,1,8,8,99.32,99.32,0,0,0,99.2,99.21H633.45a98.8,98.8,0,0,0,23.09-2.72,97.6,97.6,0,0,0,21.33-7.79,99.15,99.15,0,0,0,54.76-86.29q0-1.2,0-2.4,0-3.12-.21-6.18v-.05A99.31,99.31,0,0,0,677.87,349v-17.6a115.43,115.43,0,0,1,70.61,100.06C748.6,433.5,748.65,435.58,748.65,437.67Z"/><path class="cls-1" d="M505,451.14a8.32,8.32,0,0,1-.16,1.59c-.06.25-.12.51-.19.75a8,8,0,0,1-1.42,2.68l-.18.21-.2.21a5.55,5.55,0,0,1-.42.42,4.13,4.13,0,0,1-.39.34,6.07,6.07,0,0,1-.57.43c-.17.12-.35.22-.54.33a4.25,4.25,0,0,1-.64.32l-.05,0a4.65,4.65,0,0,1-.52.2,1.25,1.25,0,0,1-.25.09,3.66,3.66,0,0,1-.44.13l-.29.07a1,1,0,0,1-.23.05,2.28,2.28,0,0,1-.39.06H498l-.75.07H497a8,8,0,0,1-8-8c0-1.79,0-3.56-.14-5.33v0c-.05-.93-.11-1.86-.19-2.79,0-.49-.08-1-.14-1.46,0-.31-.05-.62-.08-.93-.15-1.39-.32-2.77-.54-4.14,0-.3-.08-.6-.13-.91-.1-.65-.22-1.3-.33-1.95s-.24-1.27-.37-1.9c0-.1,0-.2,0-.3s-.05-.25-.07-.38c-.07-.34-.15-.67-.23-1s-.18-.83-.28-1.24c-.12-.58-.27-1.17-.41-1.74,0-.1-.06-.19-.08-.29-.09-.41-.2-.83-.32-1.24l-.12-.48c-.15-.54-.3-1.08-.46-1.62s-.34-1.15-.53-1.72c-.23-.78-.49-1.55-.75-2.32s-.47-1.37-.72-2.06-.52-1.4-.8-2.1c-.18-.48-.37-1-.57-1.43-.08-.19-.15-.38-.24-.57s-.22-.55-.34-.81-.22-.55-.35-.81c-.23-.55-.47-1.09-.73-1.63s-.48-1-.72-1.55-.55-1.15-.84-1.72c0-.06-.07-.11-.1-.18-.17-.35-.35-.7-.53-1.05h0c-.17-.35-.35-.69-.54-1l-.56-1-1.09-1.92c-.24-.43-.5-.85-.76-1.27l-.48-.8c-.24-.39-.49-.79-.74-1.17-.36-.6-.75-1.19-1.15-1.77-.25-.4-.52-.79-.78-1.18s-.57-.84-.88-1.24a1.87,1.87,0,0,0-.2-.29l-.22-.32c-.39-.53-.77-1.07-1.17-1.59l-1.11-1.47-1-1.29s-.05-.08-.08-.11L466,387.69c-.24-.3-.49-.59-.75-.88l-.74-.88-.95-1.06-1-1.05c-.39-.43-.8-.85-1.21-1.28l-1.05-1.09c-.18-.19-.37-.37-.56-.55-1.08-1.09-2.2-2.15-3.33-3.18-.43-.39-.86-.78-1.29-1.15l-1.31-1.13c-.88-.75-1.77-1.47-2.68-2.19l-.93-.72-.08-.06-1-.79q-3.66-2.76-7.58-5.15c-.6-.37-1.19-.73-1.8-1.08h0l-1.63-.94-.13-.08-.37-.2,0,0-.73-.39-.78-.42c-.19-.11-.4-.21-.59-.31l-1.34-.68c-.94-.48-1.89-.94-2.85-1.37-.5-.24-1-.47-1.52-.69l-.63-.28-1.9-.8-2-.79-.38-.13c-.54-.22-1.11-.42-1.66-.62l-.09,0c-.5-.19-1-.36-1.5-.53s-.95-.32-1.42-.46-1.2-.39-1.82-.57-1.3-.4-2-.58l-.12,0-.61-.16-.84-.22-.84-.22-.68-.17c-.56-.14-1.13-.27-1.69-.39l-.43-.1c-.3-.07-.59-.14-.88-.19l-.89-.18c-.68-.14-1.37-.28-2.07-.39-.49-.1-1-.18-1.47-.25s-1-.17-1.46-.23c-.7-.11-1.41-.21-2.11-.29-.49-.07-1-.13-1.49-.18l-.36,0c-.4-.05-.81-.09-1.22-.12-.6-.07-1.21-.12-1.81-.16-.84-.07-1.68-.12-2.52-.16-1.69-.09-3.39-.13-5.1-.13H233.86a99.27,99.27,0,0,0-99,93c-.12,2.05-.19,4.11-.19,6.19a98.45,98.45,0,0,0,.86,13h0A98.13,98.13,0,0,0,143,491a99.81,99.81,0,0,0,41.86,46.39v18a115.85,115.85,0,0,1-44.27-36.7,114.63,114.63,0,0,1-21.94-67.55c0-2.08,0-4.14.17-6.19,0,0,0,0,0,0a115.36,115.36,0,0,1,66-98c1.2-.58,2.43-1.13,3.66-1.65a113.07,113.07,0,0,1,17.66-5.93,114.68,114.68,0,0,1,27.66-3.37H389.8c1,0,2,0,3,.05s1.77.05,2.64.09l.61,0,.6,0c.68,0,1.36.08,2,.13.94.07,1.88.15,2.82.25l.43.05.24,0c.69.07,1.39.15,2.07.24h.05c.21,0,.43,0,.64.09.77.09,1.53.2,2.27.31l.48.08,2.09.34,1.19.22.22.05c.33.05.66.11,1,.19l.23,0,.67.13c.38.07.75.16,1.14.25a4.64,4.64,0,0,1,.51.11c.65.13,1.29.28,1.93.44.42.1.83.19,1.25.31s.91.22,1.36.35.67.17,1,.27l.11,0,1.62.46.24.06c.25.08.51.15.76.24l.09,0c.49.14,1,.29,1.45.45s.72.22,1.08.34a3.71,3.71,0,0,1,.39.14l1.46.49c.43.13.84.28,1.26.44l1.26.46,2.49,1,2.34,1,2,.89c.19.07.36.15.53.23.5.23,1,.45,1.48.69s1.15.55,1.73.84l.18.08c.86.43,1.71.87,2.56,1.31l.18.1c.41.2.82.43,1.22.65.74.39,1.48.81,2.2,1.23s1.45.83,2.17,1.26,1.21.75,1.82,1.12l.06,0a5.6,5.6,0,0,1,.49.31c.43.26.87.55,1.29.83l0,0,0,0c.7.46,1.4.93,2.08,1.4.48.32.95.65,1.42,1,.64.45,1.25.91,1.88,1.36l.12.09c.38.29.78.58,1.15.87s.54.4.81.62c.45.34.89.69,1.33,1.05s1.17.94,1.75,1.43l.05,0c.55.46,1.1.92,1.63,1.39h0a1.44,1.44,0,0,1,.24.21c.57.48,1.14,1,1.69,1.49a4.81,4.81,0,0,1,.42.38c.62.56,1.25,1.15,1.87,1.74,0,0,0,0,0,0,.46.42.9.86,1.35,1.31s.69.66,1,1c.52.52,1.05,1.06,1.56,1.6.37.38.73.78,1.1,1.17.17.18.34.35.5.55l.5.54c1.16,1.28,2.3,2.6,3.4,3.93.39.47.78.95,1.15,1.43s.82,1,1.22,1.55,1,1.28,1.45,1.93c.06.07.11.16.18.23l1,1.44c.33.47.66.94,1,1.42s.59.84.87,1.27l0,.05c.42.62.82,1.23,1.22,1.86s1,1.56,1.47,2.36.9,1.5,1.34,2.26.72,1.24,1.06,1.87.64,1.14.94,1.73c.1.19.2.38.29.58.35.63.67,1.26,1,1.89.08.13.14.27.21.41.31.61.6,1.22.88,1.83h0q.48,1,.93,2c.35.76.68,1.52,1,2.29s.61,1.43.89,2.16c.1.27.22.55.33.83.27.67.52,1.35.77,2l.17.45c.19.51.37,1,.54,1.55s.41,1.16.59,1.74c.13.35.24.71.35,1.06.17.51.32,1,.48,1.53.07.22.14.46.2.69.17.54.33,1.1.48,1.65.09.29.17.59.25.89.15.53.28,1.08.42,1.62.41,1.58.78,3.17,1.12,4.77a1.94,1.94,0,0,0,.05.2c0,.15.05.3.09.45.17.85.33,1.7.49,2.57s.31,1.73.44,2.6c.06.45.14.89.2,1.35s.14.9.19,1.36c.12.9.24,1.82.33,2.74s.2,1.83.27,2.75c.05.55.1,1.11.13,1.66,0,.07,0,.14,0,.2l.09,1.36a.45.45,0,0,0,0,.11c0,.33,0,.65,0,1a.41.41,0,0,1,0,.11c0,.8.07,1.61.08,2.42C505,449.16,505,450.15,505,451.14Z"/><path class="cls-2" d="M505,437.67a8.32,8.32,0,0,1-.16,1.59c-.06.26-.12.51-.19.76a8.08,8.08,0,0,1-1.42,2.67l-.18.22-.2.2a5.66,5.66,0,0,1-.42.43l-.39.34a4.65,4.65,0,0,1-.57.42,4.86,4.86,0,0,1-.54.33,4.25,4.25,0,0,1-.64.32l-.05,0-.52.19a1.25,1.25,0,0,1-.25.09,2.44,2.44,0,0,1-.44.13l-.29.08-.23,0a2.28,2.28,0,0,1-.39.06H498a6.15,6.15,0,0,1-.75.07H497a8,8,0,0,1-8-8c0-1.79,0-3.56-.14-5.33v0c-.05-.93-.11-1.86-.19-2.79,0-.49-.08-1-.14-1.46,0-.31-.05-.61-.08-.92-.15-1.4-.32-2.78-.54-4.15,0-.3-.08-.6-.13-.91-.1-.65-.22-1.3-.33-1.95s-.24-1.27-.37-1.9c0-.09,0-.2,0-.3s-.05-.25-.07-.38c-.07-.34-.15-.67-.23-1s-.18-.83-.28-1.25c-.12-.58-.27-1.16-.41-1.74,0-.09-.06-.19-.08-.29-.09-.41-.2-.83-.32-1.23l-.12-.48c-.15-.55-.3-1.09-.46-1.62s-.34-1.16-.53-1.73c-.23-.78-.49-1.55-.75-2.32s-.47-1.37-.72-2.05-.52-1.41-.8-2.1c-.18-.48-.37-1-.57-1.43-.08-.2-.15-.39-.24-.58s-.22-.54-.34-.81-.22-.54-.35-.81c-.23-.54-.47-1.09-.73-1.63s-.48-1-.72-1.55-.55-1.15-.84-1.71c0-.07-.07-.12-.1-.19-.17-.35-.35-.7-.53-1h0c-.17-.34-.35-.68-.54-1l-.56-1L475.65,388c-.24-.43-.5-.85-.76-1.27l-.48-.8c-.24-.39-.49-.79-.74-1.17-.36-.6-.75-1.18-1.15-1.77-.25-.4-.52-.79-.78-1.17s-.57-.85-.88-1.25a2.51,2.51,0,0,0-.2-.29l-.22-.32c-.39-.53-.77-1.07-1.17-1.59l-1.11-1.47-1-1.29a1,1,0,0,1-.08-.11L466,374.22c-.24-.29-.49-.59-.75-.88l-.74-.88-.95-1.06-1-1-1.21-1.28q-.51-.54-1.05-1.08c-.18-.2-.37-.38-.56-.56-1.08-1.09-2.2-2.15-3.33-3.18l-1.29-1.15L453.85,362c-.88-.74-1.77-1.47-2.68-2.18-.3-.25-.62-.49-.93-.73l-.08-.06-1-.79q-3.66-2.76-7.58-5.15c-.6-.36-1.19-.73-1.8-1.08h0l-1.63-.94L438,351l-.37-.21,0,0-.73-.39-.78-.42-.59-.31-1.34-.68c-.94-.48-1.89-.94-2.85-1.36-.5-.25-1-.47-1.52-.7l-.63-.27c-.63-.28-1.26-.55-1.9-.8s-1.32-.54-2-.79a2.46,2.46,0,0,0-.38-.14l-1.66-.62-.09,0-1.5-.52c-.47-.16-.95-.32-1.42-.46s-1.2-.4-1.82-.58-1.3-.39-2-.57l-.12,0-.61-.16-.84-.22c-.28-.08-.57-.14-.84-.21s-.45-.12-.68-.17c-.56-.14-1.13-.28-1.69-.4l-.43-.09c-.3-.08-.59-.14-.88-.2l-.89-.18c-.68-.14-1.37-.28-2.07-.39-.49-.1-1-.17-1.47-.25s-1-.17-1.46-.23c-.7-.11-1.41-.2-2.11-.29-.49-.06-1-.13-1.49-.18l-.36,0c-.4-.06-.81-.1-1.22-.13-.6-.07-1.21-.12-1.81-.16-.84-.07-1.68-.12-2.52-.16-1.69-.09-3.39-.13-5.1-.13H233.86a99.29,99.29,0,0,0-99,93c-.12,2-.19,4.1-.19,6.18a98.22,98.22,0,0,0,.86,13h0a98,98,0,0,0,7.5,26.8,99.76,99.76,0,0,0,41.86,46.39v18a115.88,115.88,0,0,1-44.27-36.71,114.56,114.56,0,0,1-21.94-67.55c0-2.08,0-4.14.17-6.18,0,0,0,0,0,0a115.33,115.33,0,0,1,66-98c1.2-.59,2.43-1.13,3.66-1.66a112,112,0,0,1,17.66-5.92,114.19,114.19,0,0,1,27.66-3.37H389.8c1,0,2,0,3,0s1.77.05,2.64.09c.2,0,.41,0,.61,0l.6,0c.68,0,1.36.08,2,.14.94.06,1.88.15,2.82.24a2.79,2.79,0,0,1,.43.06l.24,0c.69.06,1.39.15,2.07.23h.05l.64.09c.77.09,1.53.2,2.27.32l.48.07,2.09.34c.4.08.79.14,1.19.23l.22,0c.33,0,.66.12,1,.19l.23,0,.67.13,1.14.25a4.64,4.64,0,0,1,.51.11c.65.13,1.29.28,1.93.44.42.1.83.19,1.25.31l1.36.35c.34.09.67.17,1,.27l.11,0,1.62.46.24.06c.25.08.51.15.76.24l.09,0c.49.14,1,.29,1.45.45s.72.22,1.08.34a3.71,3.71,0,0,1,.39.14l1.46.49c.43.14.84.29,1.26.45l1.26.45,2.49,1c.78.31,1.56.64,2.34,1l2,.89c.19.07.36.15.53.23.5.23,1,.45,1.48.7s1.15.54,1.73.83l.18.08c.86.43,1.71.87,2.56,1.32l.18.09c.41.2.82.43,1.22.65.74.4,1.48.81,2.2,1.23s1.45.83,2.17,1.27l1.82,1.12.06,0c.16.1.32.19.49.31l1.29.83,0,0,0,0c.7.46,1.4.93,2.08,1.4.48.32.95.65,1.42,1,.64.45,1.25.91,1.88,1.37l.12.08c.38.29.78.58,1.15.88s.54.39.81.62c.45.34.89.68,1.33,1s1.17.94,1.75,1.43l.05,0c.55.46,1.1.92,1.63,1.39h0a2.11,2.11,0,0,1,.24.21c.57.48,1.14,1,1.69,1.49a4.81,4.81,0,0,1,.42.38c.62.56,1.25,1.15,1.87,1.75l0,0c.46.42.9.86,1.35,1.31s.69.66,1,1c.52.52,1.05,1.06,1.56,1.6l1.1,1.17c.17.19.34.36.5.55l.5.54c1.16,1.28,2.3,2.6,3.4,3.94.39.47.78,1,1.15,1.43s.82,1,1.22,1.54,1,1.28,1.45,1.93c.06.08.11.16.18.24l1,1.44c.33.47.66.93,1,1.41s.59.85.87,1.27l0,.06c.42.62.82,1.22,1.22,1.85.5.78,1,1.56,1.47,2.36s.9,1.5,1.34,2.26.72,1.25,1.06,1.88.64,1.14.94,1.72l.29.58c.35.63.67,1.26,1,1.9.08.13.14.26.21.4.31.61.6,1.22.88,1.84h0c.32.66.63,1.33.93,2s.68,1.53,1,2.29.61,1.43.89,2.16c.1.28.22.55.33.83.27.67.52,1.35.77,2,.06.15.11.3.17.44.19.52.37,1,.54,1.55s.41,1.16.59,1.74c.13.35.24.71.35,1.07s.32,1,.48,1.52c.07.22.14.46.2.69.17.55.33,1.1.48,1.66.09.28.17.58.25.88.15.53.28,1.08.42,1.62.41,1.58.78,3.17,1.12,4.77a1.46,1.46,0,0,0,.05.2c0,.15.05.3.09.45.17.85.33,1.71.49,2.57s.31,1.74.44,2.6c.06.45.14.9.2,1.35s.14.9.19,1.36c.12.91.24,1.82.33,2.74s.2,1.83.27,2.75c.05.56.1,1.11.13,1.66,0,.07,0,.14,0,.21q0,.66.09,1.35a.41.41,0,0,0,0,.11c0,.33,0,.65,0,1a.45.45,0,0,1,0,.12c0,.8.07,1.61.08,2.42C505,435.69,505,436.68,505,437.67Z"/><path class="cls-3" d="M768.31,517.5a5.33,5.33,0,0,1-3.61-9.26,100.4,100.4,0,0,0,0-147.95,5.33,5.33,0,0,1,7.21-7.86,111.08,111.08,0,0,1,0,163.67A5.34,5.34,0,0,1,768.31,517.5Z"/><path class="cls-4" d="M818.63,544.1h0a5.32,5.32,0,0,1,.2-7.4,141.38,141.38,0,0,0-3.53-204.56,5.5,5.5,0,0,1-.87-7.3,5.34,5.34,0,0,1,7.88-.74,152,152,0,0,1,4,220.21A5.34,5.34,0,0,1,818.63,544.1Z"/><line class="cls-5" x1="587.45" y1="194.42" x2="574.15" y2="319.5"/><path class="cls-5" d="M573.51,320.77a1.4,1.4,0,0,1-.78-1.42L586,194.27a1.43,1.43,0,1,1,2.84.3l-13.3,125.08a1.42,1.42,0,0,1-1.57,1.26A1.16,1.16,0,0,1,573.51,320.77Z"/><line class="cls-5" x1="486.29" y1="144.21" x2="394.71" y2="230.44"/><path class="cls-5" d="M394.08,231.72a1.73,1.73,0,0,1-.41-.3,1.43,1.43,0,0,1,.07-2l91.57-86.23a1.43,1.43,0,1,1,2,2.08l-91.58,86.23A1.44,1.44,0,0,1,394.08,231.72Z"/><circle class="cls-6" cx="572.66" cy="97.91" r="97.89"/><line class="cls-7" x1="481.54" y1="281.49" x2="440.6" y2="363.99"/><polygon class="cls-5" points="480.75 278.31 521.22 181.45 537.23 189.4 484.56 280.2 480.75 278.31"/><path class="cls-5" d="M522.5,184.87l11.23,5.58-48.49,83.6,37.26-89.18M519.94,178l-42.4,101.49,8,4,55.19-95.13L519.94,178Z"/><path class="cls-8" d="M581.43,214.61c-1.92-2.06-4.34-6.59-4.75-16.49l6.65-.51Z"/><path class="cls-5" d="M580.51,200.33l-.53,4.79a40.15,40.15,0,0,1-.65-4.7l1.18-.09m5.64-5.45-12,.93c.2,21.88,9.36,22.93,9.36,22.93l2.67-23.86Z"/><path class="cls-8" d="M475.11,161c-.36,0-.69,0-1-.05L486.57,149l3.6,5.74C482.79,159.84,478,161,475.11,161Z"/><path class="cls-5" d="M486.08,152.9l.68,1.08a41.52,41.52,0,0,1-4.33,2.43l3.65-3.51m1-7.86-17.43,16.73s1.63,1.7,5.49,1.7,9.74-1.63,18.43-8.11L487.05,145Z"/><line class="cls-5" x1="674.4" y1="148.41" x2="471.82" y2="47.86"/><path class="cls-5" d="M673.77,149.69,471.18,49.14a1.43,1.43,0,0,1,1.27-2.56L675,147.13a1.43,1.43,0,0,1-1.27,2.56Z"/><path class="cls-9" d="M522.12,42.05s14.22-19,45.34-21.67"/><path class="cls-10" d="M525.53,198.28l-11.64-5.77.74-1.76,11.75,5.83a1,1,0,0,1,.43,1.28h0A1,1,0,0,1,525.53,198.28Z"/><path class="cls-11" d="M526,202.72,512.43,196l.73-1.76L526.8,201a1,1,0,0,1,.57,1.34h0A1,1,0,0,1,526,202.72Z"/><path class="cls-12" d="M103.23,351a5.33,5.33,0,0,1,3.61,9.26,100.4,100.4,0,0,0,0,148,5.33,5.33,0,0,1-7.21,7.86,111.08,111.08,0,0,1,0-163.67A5.29,5.29,0,0,1,103.23,351Z"/><path class="cls-13" d="M52.91,324.43h0a5.33,5.33,0,0,1-.2,7.4,141.34,141.34,0,0,0,3.53,204.55,5.53,5.53,0,0,1,.87,7.31,5.33,5.33,0,0,1-7.88.73,152,152,0,0,1-4-220.2A5.34,5.34,0,0,1,52.91,324.43Z"/><polygon class="cls-14" points="717.53 689.99 717.53 661.44 689.92 661.44 689.92 656.79 684.33 661.44 684.33 694.64 717.53 694.64 723.12 689.99 717.53 689.99"/><rect class="cls-15" x="689.92" y="656.79" width="33.2" height="33.2"/><polygon class="cls-14" points="223.68 194.15 223.68 165.6 196.06 165.6 196.06 160.95 190.47 165.6 190.47 198.81 223.68 198.81 229.26 194.15 223.68 194.15"/><rect class="cls-16" x="196.06" y="160.95" width="33.2" height="33.2"/><polygon class="cls-14" points="673.54 656.02 679 650.49 673.54 650.49 673.54 622.82 645.48 622.82 640.33 622.82 617.74 622.82 617.74 617.28 612.27 622.82 612.27 642.52 612.27 656.02 612.27 675.72 645.48 675.72 650.94 670.18 645.48 670.18 645.48 656.02 673.54 656.02"/><polygon class="cls-17" points="645.8 617.28 617.74 617.28 617.74 636.98 617.74 650.49 617.74 670.18 650.94 670.18 650.94 650.49 679 650.49 679 617.28 650.94 617.28 645.8 617.28"/><polygon class="cls-14" points="672.66 607.87 672.66 578.43 644.61 578.43 639.46 578.43 615.17 578.43 615.17 574.67 611.4 578.43 611.4 611.64 639.46 611.64 644.61 611.64 672.66 611.64 676.43 607.87 672.66 607.87"/><polygon class="cls-18" points="648.37 607.87 676.43 607.87 676.43 574.67 648.37 574.67 643.23 574.67 615.17 574.67 615.17 607.87 643.23 607.87 648.37 607.87"/><polygon class="cls-14" points="256.01 309.9 256.01 281.54 239.25 281.54 239.25 269.69 239.25 256.19 239.25 236.49 222.65 236.49 206.05 236.49 197.01 236.49 189.45 236.49 175.74 236.49 175.74 207.45 148.66 207.45 148.66 202.61 142.53 207.45 142.53 236.49 142.53 240.65 142.53 269.69 163.81 269.69 175.74 269.69 189.45 269.69 197.01 269.69 206.05 269.69 206.05 281.54 196.02 281.54 196.02 276.71 189.89 281.54 189.89 281.54 189.89 314.75 222.81 314.75 223.09 314.75 256.01 314.75 262.14 309.9 256.01 309.9"/><polygon class="cls-14" points="579.76 659.7 601.06 659.7 601.06 679.99 601.06 683.71 601.06 701.29 603.78 701.29 601.06 704.01 577.04 704.01 577.04 683.71 577.04 679.99 577.04 659.7 579.76 656.97 579.76 659.7"/><polygon class="cls-19" points="579.76 677.27 579.76 656.97 603.78 656.97 603.78 677.27 603.78 680.99 603.78 701.29 579.76 701.29 579.76 680.99 579.76 677.27"/><polygon class="cls-20" points="245.38 276.7 245.38 264.85 245.38 251.35 245.38 231.65 228.78 231.65 212.18 231.65 203.14 231.65 195.58 231.65 181.87 231.65 181.87 202.61 148.66 202.61 148.66 231.65 148.66 235.81 148.66 264.85 169.94 264.85 181.87 264.85 195.58 264.85 203.14 264.85 212.18 264.85 212.18 276.7 196.02 276.7 196.02 309.9 228.94 309.9 229.22 309.9 262.14 309.9 262.14 276.7 245.38 276.7"/></g></g></svg>