<svg xmlns="http://www.w3.org/2000/svg" xmlns:xlink="http://www.w3.org/1999/xlink" viewBox="0 0 979.88 729.94"><defs><style>.cls-1,.cls-27{opacity:0.4;}.cls-2{fill:#4eb4d8;}.cls-3{fill:url(#linear-gradient);}.cls-4{fill:#6d7b99;}.cls-5{fill:url(#linear-gradient-2);}.cls-6{fill:url(#linear-gradient-3);}.cls-7{fill:url(#linear-gradient-4);}.cls-8{fill:url(#linear-gradient-5);}.cls-9{fill:url(#linear-gradient-6);}.cls-10{fill:#52536e;}.cls-11{fill:url(#linear-gradient-7);}.cls-12{fill:url(#linear-gradient-8);}.cls-13{fill:url(#linear-gradient-9);}.cls-14{fill:url(#linear-gradient-10);}.cls-15{fill:url(#linear-gradient-11);}.cls-16{fill:url(#linear-gradient-12);}.cls-17{fill:url(#linear-gradient-13);}.cls-18{fill:url(#linear-gradient-14);}.cls-19{fill:url(#linear-gradient-15);}.cls-20{fill:url(#linear-gradient-16);}.cls-21{fill:url(#linear-gradient-17);}.cls-22{fill:url(#linear-gradient-18);}.cls-23{fill:url(#linear-gradient-19);}.cls-24{fill:url(#linear-gradient-20);}.cls-25{fill:#6e3fff;}.cls-26{fill:url(#linear-gradient-21);}.cls-27{fill:url(#linear-gradient-22);}.cls-28{fill:url(#linear-gradient-23);}.cls-29{fill:url(#linear-gradient-24);}.cls-30{fill:url(#linear-gradient-25);}.cls-31{fill:url(#linear-gradient-26);}.cls-32{fill:url(#linear-gradient-27);}.cls-33{fill:url(#linear-gradient-28);}.cls-34{fill:url(#linear-gradient-29);}.cls-35{fill:url(#linear-gradient-30);}</style><linearGradient id="linear-gradient" x1="551.95" y1="559.13" x2="673.03" y2="559.13" gradientUnits="userSpaceOnUse"><stop offset="0.07" stop-color="#dcdce2"/><stop offset="1" stop-color="#a4a4a5"/></linearGradient><linearGradient id="linear-gradient-2" x1="676.54" y1="559.13" x2="962.73" y2="559.13" gradientUnits="userSpaceOnUse"><stop offset="0.03" stop-color="#ff4e5b"/><stop offset="0.24" stop-color="#ff4f57"/><stop offset="0.45" stop-color="#ff544b"/><stop offset="0.67" stop-color="#ff5b36"/><stop offset="0.89" stop-color="#ff661a"/><stop offset="1" stop-color="#ff6c08"/></linearGradient><linearGradient id="linear-gradient-3" x1="628.47" y1="545.93" x2="669.92" y2="561.51" gradientUnits="userSpaceOnUse"><stop offset="0.04" stop-color="#298fff"/><stop offset="1" stop-color="#125acc"/></linearGradient><linearGradient id="linear-gradient-4" x1="312" y1="288.29" x2="511.56" y2="288.29" xlink:href="#linear-gradient"/><linearGradient id="linear-gradient-5" x1="0" y1="288.29" x2="324.66" y2="288.29" xlink:href="#linear-gradient-2"/><linearGradient id="linear-gradient-6" x1="328.51" y1="98.84" x2="320.42" y2="212.94" gradientUnits="userSpaceOnUse"><stop offset="0" stop-color="#dcdce2"/><stop offset="1" stop-color="#b2b2b2"/></linearGradient><linearGradient id="linear-gradient-7" x1="648.97" y1="615.35" x2="642.12" y2="711.99" gradientTransform="translate(630.73 1602.09) rotate(-135)" xlink:href="#linear-gradient-6"/><linearGradient id="linear-gradient-8" x1="327.56" y1="358.33" x2="318.94" y2="479.91" gradientTransform="matrix(0.63, 0.77, -0.77, 0.63, 430.67, -79.27)" xlink:href="#linear-gradient-6"/><linearGradient id="linear-gradient-9" x1="474.88" y1="175.92" x2="467.84" y2="275.27" gradientTransform="translate(1059.75 760.61) rotate(-167.95)" xlink:href="#linear-gradient-6"/><linearGradient id="linear-gradient-10" x1="755.37" y1="896.14" x2="748.25" y2="902.84" gradientTransform="translate(49.93 -481.26) scale(0.84 1)" xlink:href="#linear-gradient-6"/><linearGradient id="linear-gradient-11" x1="738.66" y1="909.77" x2="735.83" y2="912.44" gradientTransform="translate(-63.84 -477.96)" xlink:href="#linear-gradient-6"/><linearGradient id="linear-gradient-12" x1="750.48" y1="917.68" x2="744.85" y2="922.99" gradientTransform="translate(-61.54 -480.99)" xlink:href="#linear-gradient-6"/><linearGradient id="linear-gradient-13" x1="746.05" y1="929.63" x2="741.81" y2="933.63" gradientTransform="translate(-58.41 -480.48)" xlink:href="#linear-gradient-6"/><linearGradient id="linear-gradient-14" x1="451.42" y1="537.06" x2="444.31" y2="543.76" gradientTransform="translate(-160.8 -387.64)" xlink:href="#linear-gradient-6"/><linearGradient id="linear-gradient-15" x1="438.32" y1="553.58" x2="435.49" y2="556.25" gradientTransform="translate(-151.79 -384.39)" xlink:href="#linear-gradient-6"/><linearGradient id="linear-gradient-16" x1="444.55" y1="563.63" x2="438.92" y2="568.94" gradientTransform="translate(-145.96 -388.6)" xlink:href="#linear-gradient-6"/><linearGradient id="linear-gradient-17" x1="443.55" y1="577.8" x2="439.31" y2="581.8" gradientTransform="translate(-138.77 -390.73)" xlink:href="#linear-gradient-6"/><linearGradient id="linear-gradient-18" x1="319.08" y1="724.35" x2="311.97" y2="731.04" gradientTransform="translate(-41.6 -293.09)" xlink:href="#linear-gradient-6"/><linearGradient id="linear-gradient-19" x1="332.18" y1="745.35" x2="326.55" y2="750.65" gradientTransform="translate(-65.45 -335.59)" xlink:href="#linear-gradient-6"/><linearGradient id="linear-gradient-20" x1="307.66" y1="755.32" x2="303.42" y2="759.31" gradientTransform="translate(-17.06 -348.52)" xlink:href="#linear-gradient-6"/><linearGradient id="linear-gradient-21" x1="357.22" y1="251.21" x2="433.42" y2="279.86" xlink:href="#linear-gradient-3"/><linearGradient id="linear-gradient-22" x1="638.3" y1="150.65" x2="939.59" y2="150.65" gradientUnits="userSpaceOnUse"><stop offset="0" stop-color="#ffc639"/><stop offset="1" stop-color="#f9801c"/></linearGradient><linearGradient id="linear-gradient-23" x1="683.13" y1="158.92" x2="894.76" y2="158.92" xlink:href="#linear-gradient-22"/><linearGradient id="linear-gradient-24" x1="927.13" y1="535.43" x2="962.73" y2="535.43" xlink:href="#linear-gradient-2"/><linearGradient id="linear-gradient-25" x1="913.28" y1="636.31" x2="979.88" y2="636.31" xlink:href="#linear-gradient-2"/><linearGradient id="linear-gradient-26" x1="3.14" y1="311.98" x2="36.44" y2="311.98" xlink:href="#linear-gradient-2"/><linearGradient id="linear-gradient-27" x1="695.25" y1="644.24" x2="688.13" y2="650.95" gradientTransform="translate(87.85 52.72) scale(0.85 1)" xlink:href="#linear-gradient-6"/><linearGradient id="linear-gradient-28" x1="683.71" y1="659.38" x2="680.88" y2="662.05" gradientTransform="translate(4 30.07)" xlink:href="#linear-gradient-6"/><linearGradient id="linear-gradient-29" x1="696.86" y1="666.26" x2="691.23" y2="671.56" gradientTransform="translate(-16.01 10.24)" xlink:href="#linear-gradient-6"/><linearGradient id="linear-gradient-30" x1="692.43" y1="678.21" x2="688.19" y2="682.21" gradientTransform="translate(-6.78 -10.73)" xlink:href="#linear-gradient-6"/></defs><title>Asset 86</title><g id="Layer_2" data-name="Layer 2"><g id="Art"><g class="cls-1"><path class="cls-2" d="M578.47,547.12c0,91.88,21.95,168.72,49,168.72s49-76.84,49-168.72-21.95-166.36-49-166.36S578.47,455.24,578.47,547.12Z"/></g><path class="cls-3" d="M576.22,645.5A24.3,24.3,0,0,1,552,621.24V497a24.29,24.29,0,0,1,24.27-24.26h91.06A495.91,495.91,0,0,1,673,550.7c0,34.44-3,67.16-8.83,94.8Z"/><path class="cls-4" d="M665.15,475.27a498.07,498.07,0,0,1,5.38,75.44c0,33.44-2.89,65.24-8.37,92.29H576.22a21.8,21.8,0,0,1-21.77-21.76V497a21.79,21.79,0,0,1,21.77-21.76h88.93m4.26-5H576.22A26.77,26.77,0,0,0,549.45,497V621.24A26.77,26.77,0,0,0,576.22,648h90c5.61-26,9.31-58.83,9.31-97.29a496.61,496.61,0,0,0-6.12-80.44Z"/><path class="cls-5" d="M838.23,497.13h27.2V497a11.81,11.81,0,0,0,1.8.16h83.95c6.38,0,11.55-5.62,11.55-12.57S957.56,472,951.18,472H867.23a10.66,10.66,0,0,0-1.8.17V472H727.07l-10.65-.4a26.89,26.89,0,0,0-8.32-1.32H679.58a521.1,521.1,0,0,1,5.95,80.44c0,35.11-3.14,68.69-9,97.29H892.18c6.38,0,11.55-5.62,11.55-12.57s-5.17-12.57-11.55-12.57H828.23c-6.37,0-11.55-5.63-11.55-12.57s5.18-12.57,11.55-12.57H942.18c6.38,0,11.55-5.63,11.55-12.57s-5.17-12.58-11.55-12.58H818.23c-6.37,0-11.55-5.62-11.55-12.57s5.18-12.57,11.55-12.57h83.95c6.38,0,11.55-5.64,11.55-12.58s-5.17-12.57-11.55-12.57H838.23c-6.37,0-11.55-5.63-11.55-12.57S831.86,497.13,838.23,497.13Z"/><g class="cls-1"><ellipse class="cls-2" cx="266.44" cy="275.94" rx="49.09" ry="169.06"/></g><path class="cls-6" d="M641,511.28h35.49a0,0,0,0,1,0,0v91.28a0,0,0,0,1,0,0H641a12,12,0,0,1-12-12V523.33A12,12,0,0,1,641,511.28Z"/><path class="cls-7" d="M312,378.26c.38-1.74.76-3.51,1.12-5.31,5.91-28.91,9-62.72,9-97.78a525.56,525.56,0,0,0-5.37-76.84h25.48a85.94,85.94,0,0,1,64.22,28.86l99.05,111.64a23.7,23.7,0,0,1-17.72,39.43Z"/><path class="cls-4" d="M342.27,200.83a83.42,83.42,0,0,1,62.35,28l99.05,111.64a21.2,21.2,0,0,1-15.85,35.27H315.09c.17-.77.32-1.53.48-2.3,5.95-29.08,9.09-63.07,9.09-98.29a530.54,530.54,0,0,0-5-74.34h22.59m0-5H313.88a522.4,522.4,0,0,1,5.78,79.34c0,35.11-3.14,68.69-9,97.29q-.85,4.23-1.8,8.3h179c22.59,0,34.59-26.68,19.59-43.58L408.36,225.54a88.34,88.34,0,0,0-66.09-29.71Z"/><path class="cls-8" d="M281.71,379.94l-46-.78-138.36-1V378a9.83,9.83,0,0,1-1.81.18H11.56c-6.38,0-11.56-5.83-11.56-13s5.18-13,11.56-13H95.5a10.78,10.78,0,0,1,1.81.17v-.17H124.5c6.38,0,11.56-5.84,11.56-13s-5.18-13-11.56-13H60.56c-6.38,0-11.56-5.82-11.56-13s5.18-13,11.56-13H144.5c6.38,0,11.56-5.84,11.56-13s-5.18-13-11.56-13H20.56C14.18,274,9,268.14,9,260.94s5.18-13,11.56-13H134.5c6.38,0,11.56-5.83,11.56-13s-5.18-13-11.56-13H70.56c-6.38,0-11.56-5.83-11.56-13s5.18-13,11.56-13H318.88a522.4,522.4,0,0,1,5.78,79.34c0,35.11-3.14,68.69-9,97.29q-.85,4.23-1.8,8.3l-32.55-.83"/><path class="cls-9" d="M352.67,157.49,342.07,144l-19-24.18a2.74,2.74,0,0,0-.75-.66,2.07,2.07,0,0,0-.58-.28,2.11,2.11,0,0,0-.48-.12,2.82,2.82,0,0,0-1.41.11,2.47,2.47,0,0,0-.87.47l-22.27,17.47.74,2.5L312,188.82l.86,3a3.1,3.1,0,0,0,.75-.13,3,3,0,0,0,.86-.47l26.59-20.87,11.12-8.72A2.9,2.9,0,0,0,352.67,157.49Z"/><path class="cls-4" d="M352.67,157.49,342.07,144l-19-24.18a2.74,2.74,0,0,0-.75-.66,2.07,2.07,0,0,0-.58-.28,2.11,2.11,0,0,0-.48-.12,2,2,0,0,0-.49,0l-.21,0h0a2.42,2.42,0,0,0-.69.14,2.47,2.47,0,0,0-.87.47l-22.27,17.47.74,2.5,23-18.07a.44.44,0,0,1,.3-.11.47.47,0,0,1,.39.19L350.77,159a.53.53,0,0,1,.11.36.52.52,0,0,1-.19.34L313,189.26a.43.43,0,0,1-.3.11.48.48,0,0,1-.4-.19l-.28-.36.86,3h-.52l.34,0a.55.55,0,0,0,.18,0,2.69,2.69,0,0,0,.75-.14,3,3,0,0,0,.86-.47l26.59-20.87,11.12-8.72A2.9,2.9,0,0,0,352.67,157.49Z"/><g id="Facebook_Places" data-name="Facebook Places"><path class="cls-10" d="M321.11,142.28a10,10,0,0,0-1-.7,9.67,9.67,0,0,0-13.91,12.57l.66,1s.29.41.43.58c1.84,2.16,5.33,3.43,8.26,4.87,3.14,1.54,6.31,3,9.47,4.47-.12-2.23-.25-4.49-.37-6.67,0-.62-.06-1.28-.1-1.88,0-.41.11-.91.07-1.28-.3-3.7.29-8-1.48-10.73l-.73-1.11A10.21,10.21,0,0,0,321.11,142.28Zm-4.46,10.17a3.45,3.45,0,0,1-4.06-.16,3.4,3.4,0,0,1-.56-.68l-.43-.65a3.27,3.27,0,0,1,1.17-4.61,3.56,3.56,0,0,1,5,1.06A3.66,3.66,0,0,1,316.65,152.45Z"/></g><path class="cls-11" d="M651.38,655.28l-7.23-.87-12.9-1.56a2.68,2.68,0,0,0-3,2.34l-1.9,15.7L623,699a2.8,2.8,0,0,0,.26,1.48c.07.13.15.26.23.39a1.57,1.57,0,0,0,.21.24l.08.1a.88.88,0,0,0,.15.12s0,0,0,0a2.9,2.9,0,0,0,.55.36,2.22,2.22,0,0,0,.86.26l9.61,1.16,16.24,2,1.14-2.11,5.21-9.54q2.55-6.75,4.86-14.41c1.87-6.18,3.61-12.71,5.19-19.53.17-.71.33-1.44.5-2.17Z"/><path class="cls-4" d="M644.15,654.41l-12.9-1.56a2.68,2.68,0,0,0-3,2.34l-1.9,15.7L623,699a2.8,2.8,0,0,0,.26,1.48c.07.13.15.26.23.39a1.57,1.57,0,0,0,.21.24l.08.1a.88.88,0,0,0,.15.12s0,0,0,0a2.9,2.9,0,0,0,.55.36,2.22,2.22,0,0,0,.86.26l9.61,1.16,16.24,2,1.14-2.11L636,701l-10.41-1.26a.37.37,0,0,1-.27-.12.47.47,0,0,1-.12-.38l5.28-43.76a.46.46,0,0,1,.17-.3.51.51,0,0,1,.34-.1l19.88,2.4,16.71,2c.17-.71.33-1.44.5-2.17l-16.7-2Z"/><g id="Facebook_Places-2" data-name="Facebook Places"><path class="cls-10" d="M658.24,676.3a10.31,10.31,0,0,0-.2-1.11,8.9,8.9,0,0,0-17.23-.88l-.22,1.09s-.08.45-.1.66c-.21,2.6,1.23,5.7,2.2,8.54,1,3,2.16,6.06,3.25,9.06l4.1-4.57c.38-.44.8-.87,1.16-1.29s.66-.52.88-.78c2.21-2.61,5.41-5,6-7.95l.25-1.2A9.59,9.59,0,0,0,658.24,676.3Zm-9.52,3.7a3.17,3.17,0,0,1-2.54-2.74,2.9,2.9,0,0,1,.08-.8l.15-.7a3,3,0,0,1,3.75-2.24,3.25,3.25,0,0,1,2.53,3.91A3.34,3.34,0,0,1,648.72,680Z"/></g><path class="cls-12" d="M329.63,460.84l4-17.88,7.08-32a2.78,2.78,0,0,0,0-1.07,2.19,2.19,0,0,0-.16-.67,2.35,2.35,0,0,0-.23-.48,3.07,3.07,0,0,0-1-1.08,2.67,2.67,0,0,0-1-.4l-29.44-6.52-1.56,2.29-31,45.48-1.85,2.71a3.41,3.41,0,0,0,.61.53,3.17,3.17,0,0,0,1,.38l35.17,7.8,14.69,3.26A3.11,3.11,0,0,0,329.63,460.84Z"/><path class="cls-4" d="M329.63,460.84l4-17.88,7.08-32a2.78,2.78,0,0,0,0-1.07,2.19,2.19,0,0,0-.16-.67,2.35,2.35,0,0,0-.23-.48,2,2,0,0,0-.29-.43,1.14,1.14,0,0,0-.15-.16l0,0a3,3,0,0,0-.58-.47,2.67,2.67,0,0,0-1-.4l-29.44-6.52-1.56,2.29,30.45,6.75a.47.47,0,0,1,.3.18.5.5,0,0,1,.1.45l-11,49.85a.55.55,0,0,1-.23.33.51.51,0,0,1-.41.07l-49.85-11a.5.5,0,0,1-.29-.17.51.51,0,0,1-.11-.46l.11-.48-1.85,2.71a3.73,3.73,0,0,1-.36-.43l.21.29.14.15a3.11,3.11,0,0,0,.62.52,3.17,3.17,0,0,0,1,.38l35.17,7.8,14.69,3.26A3.11,3.11,0,0,0,329.63,460.84Z"/><path class="cls-10" d="M327.35,414.67a4.08,4.08,0,0,0-4.9,3.05,4,4,0,0,0,0,2l-8,5a5.42,5.42,0,0,0-6.49-1.51l-3.9-6.25a3,3,0,0,0,.39-.54l.05-.09a2.72,2.72,0,0,0,.22-.56s0,0,0-.07a0,0,0,0,0,0,0c0-.09,0-.19,0-.29s0-.18,0-.26v0a1.49,1.49,0,0,0,0-.21,1.36,1.36,0,0,0,0-.29,1.29,1.29,0,0,0-.08-.28,1.41,1.41,0,0,0-.06-.22c0-.1-.09-.19-.14-.29s-.06-.12-.1-.17a2.35,2.35,0,0,0-.19-.25c-.05-.06-.09-.12-.14-.17l-.22-.19a1.3,1.3,0,0,0-.18-.15,2.2,2.2,0,0,0-.26-.15l-.2-.11a1.92,1.92,0,0,0-.31-.11l-.17-.06h0l-.3,0-.25,0h0l-.22,0-.28,0-.29.08-.21.07-.29.14-.18.1a2,2,0,0,0-.24.19,1.09,1.09,0,0,0-.17.13c-.07.07-.13.15-.19.22s-.11.12-.15.18a1.74,1.74,0,0,0-.15.26,2,2,0,0,0-.11.2,1.73,1.73,0,0,0-.11.32l-.06.17v0a2.54,2.54,0,0,0,0,.29l0,.26v0c0,.08,0,.15,0,.22a2.85,2.85,0,0,0,0,.29c0,.09.05.19.08.28a1.87,1.87,0,0,0,.07.22,2.44,2.44,0,0,0,.14.28,1,1,0,0,0,.1.18,1.5,1.5,0,0,0,.19.25l.13.17.22.19.18.15a2.2,2.2,0,0,0,.26.15l.2.11.32.11.17.05h0a2.88,2.88,0,0,0,.59.07h.16a2.77,2.77,0,0,0,.65-.12h0l3.91,6.26a5.39,5.39,0,0,0-1.51,6.49L295,436.88a4.06,4.06,0,0,0-2.43-1.66,4.11,4.11,0,1,0,3,2.9L306,431.59a5.47,5.47,0,0,0,2.33,1.67L306.8,440a4.08,4.08,0,1,0,1.33.31l1.56-6.73a5.43,5.43,0,0,0,2.83-.48l3.9,6.27a2.68,2.68,0,0,0-.68,1.25,2.76,2.76,0,1,0,1.84-2l-3.9-6.26a5.52,5.52,0,0,0,1.87-3,5.45,5.45,0,0,0-.37-3.51l7.89-4.91a4.08,4.08,0,1,0,4.28-6.3Zm1.17,2.26c0-.06-.09-.12-.14-.17S328.47,416.87,328.52,416.93Zm-.36-.36a1.3,1.3,0,0,0-.18-.15A1.3,1.3,0,0,1,328.16,416.57Zm-.44-.3-.2-.11Zm-.51-.22a1.52,1.52,0,0,0-.2-.06h0Zm-.49-.1-.26,0Zm-2,.6a1.09,1.09,0,0,0-.17.13A1.09,1.09,0,0,1,324.71,416.55Zm1.49-.61-.28,0A2.66,2.66,0,0,1,326.2,415.94Zm-.57.11-.21.07Zm-.5.21-.18.1Zm-1.3,1.6a1.17,1.17,0,0,0-.06.2v0Zm.52-1c-.05.06-.11.12-.15.18S324.3,417,324.35,416.9Zm-.3.44a2,2,0,0,0-.11.2A2,2,0,0,1,324.05,417.34Zm-.32,1,0,.26Zm.6,2,.13.17Zm-.61-1.5a2.85,2.85,0,0,0,0,.29A2.85,2.85,0,0,1,323.72,418.86Zm.11.57a1.87,1.87,0,0,0,.07.22A1.87,1.87,0,0,1,323.83,419.43Zm.21.5a1,1,0,0,0,.1.18A1.62,1.62,0,0,1,324,419.93Zm.64.79.18.15Zm.44.3.2.11Zm.52.22.2.06h0Zm.49.1.26,0Zm2-.6.16-.14Zm-1.5.6a1.27,1.27,0,0,0,.28,0A1.27,1.27,0,0,1,326.64,421.34Zm.57-.1.22-.07Zm.5-.21.18-.1Zm1.31-1.6.06-.2a0,0,0,0,1,0,0C329.06,419.32,329,419.37,329,419.43Zm-.52.95c.05-.06.1-.11.15-.18S328.55,420.32,328.5,420.38Zm.3-.43a2.12,2.12,0,0,0,.11-.21A1.39,1.39,0,0,1,328.8,420Zm.31-1a2.3,2.3,0,0,0,0-.26A2.6,2.6,0,0,1,329.11,418.94Zm-.4-1.77c0,.06.06.12.1.18A1.62,1.62,0,0,1,328.71,417.17Zm.24.47a1.41,1.41,0,0,1,.06.22A1.41,1.41,0,0,0,329,417.64Zm.14.5a2.66,2.66,0,0,1,0,.28A2.66,2.66,0,0,0,329.09,418.14Z"/><path class="cls-13" d="M668.35,459.63l-.27-3.55c-.39-2-.78-4-1.19-5.91-.29-1.37-.59-2.74-.88-4.09q-2-9.12-4.4-17.55-.86-3.07-1.75-6.06l-.07-.24c-.91-3-1.83-5.86-2.79-8.63-.25-.74-.5-1.46-.77-2.17l-15.63,7.65-6.51,3.19-12,5.88a2.75,2.75,0,0,0-1.26,3.69L628,446.47l12.8,26.15a2.72,2.72,0,0,0,.56.77,1.6,1.6,0,0,0,.49.36,1.38,1.38,0,0,0,.42.21,2.33,2.33,0,0,0,.53.16h.12a2.15,2.15,0,0,0,.67,0,2.55,2.55,0,0,0,.91-.26l8.63-4.23,15.44-7.56Z"/><path class="cls-4" d="M668.35,459.63l-15.67,7.67-9.24,4.52a.45.45,0,0,1-.3,0,.46.46,0,0,1-.32-.25l-20-40.77a.46.46,0,0,1,0-.36.48.48,0,0,1,.24-.28l18.27-8.94L657,413.6c-.25-.74-.5-1.46-.77-2.17l-15.63,7.65-6.51,3.19-12,5.88a2.75,2.75,0,0,0-1.26,3.69L628,446.47l12.8,26.15a2.72,2.72,0,0,0,.56.77,1.6,1.6,0,0,0,.49.36,1.38,1.38,0,0,0,.42.21,2.28,2.28,0,0,0,.44.15h.21a2.15,2.15,0,0,0,.67,0,2.55,2.55,0,0,0,.91-.26l8.63-4.23,15.44-7.56Z"/><rect class="cls-14" x="676.85" y="417.38" width="12.2" height="4.71" rx="2.17" ry="2.17" transform="matrix(0.96, -0.27, 0.27, 0.96, -88.42, 201.58)"/><rect class="cls-15" x="670.42" y="431.39" width="4.71" height="4.71" rx="2.35" ry="2.35" transform="translate(-92.61 199.34) rotate(-15.78)"/><rect class="cls-16" x="679.33" y="438.17" width="11.09" height="4.71" rx="2.35" ry="2.35" transform="translate(-94 202.89) rotate(-15.78)"/><rect class="cls-17" x="680.61" y="449.69" width="7.92" height="4.71" rx="2.35" ry="2.35" transform="matrix(0.96, -0.27, 0.27, 0.96, -97.15, 203.24)"/><rect class="cls-18" x="278.25" y="151.91" width="14.46" height="4.71" rx="2.35" ry="2.35" transform="translate(-37.99 180.04) rotate(-32.94)"/><rect class="cls-19" x="282.13" y="168.77" width="4.71" height="4.71" rx="2.35" ry="2.35" transform="translate(-47.32 182.21) rotate(-32.94)"/><rect class="cls-20" x="288.97" y="176.51" width="11.09" height="4.71" rx="2.35" ry="2.35" transform="translate(-49.92 188.91) rotate(-32.94)"/><rect class="cls-21" x="297.74" y="187.61" width="7.92" height="4.71" rx="2.35" ry="2.35" transform="translate(-54.79 194.61) rotate(-32.94)"/><rect class="cls-22" x="265.11" y="433.75" width="14.46" height="4.71" rx="2.35" ry="2.35" transform="translate(447.57 919.48) rotate(-167.94)"/><rect class="cls-23" x="257.11" y="411.24" width="11.09" height="4.71" rx="2.35" ry="2.35" transform="translate(433.12 872.93) rotate(-167.94)"/><rect class="cls-24" x="283.58" y="407.33" width="7.92" height="4.71" rx="2.35" ry="2.35" transform="translate(483.15 870.39) rotate(-167.94)"/><path class="cls-10" d="M666,446.08l-.21-.06-.19,0a1.18,1.18,0,0,0-.26,0h-.2l-.27.05-.2,0a1.36,1.36,0,0,0-.28.11l-.15,0h0a3.12,3.12,0,0,0-.45.29l-.06.06,0,0a2.27,2.27,0,0,0-.38.45h0l-6.18-2.19a4.81,4.81,0,0,0-2.55-5.35l3.61-10.2a3.65,3.65,0,0,0,2.61-.2,3.19,3.19,0,0,0,.83-.56q-.86-3.07-1.75-6.06l-.07-.24a3.63,3.63,0,0,0-3.84,5.14,3.5,3.5,0,0,0,1.13,1.38l-3.66,10.34a4.83,4.83,0,0,0-2.55.13l-2.64-5.54a3.63,3.63,0,0,0-3.65-6.24,3.63,3.63,0,0,0,2.56,6.76l2.64,5.55a4.78,4.78,0,0,0-1.71,1.89l-.9-.32-5.28-1.87a2.49,2.49,0,0,0-.21-1.25,2.42,2.42,0,1,0-1.15,3.22,2.33,2.33,0,0,0,1-.82l6,2.13.14,0a1.75,1.75,0,0,0,0,.33,4.71,4.71,0,0,0,.4,2.79,5.47,5.47,0,0,0,.44.75,4.88,4.88,0,0,0,1.77,1.49l-.87,2.44-1.9,5.35a3.69,3.69,0,1,0,1.09.54l1.3-3.66,1.51-4.27a4.8,4.8,0,0,0,5.35-2.56l6.18,2.2a1.88,1.88,0,0,0,0,.58.24.24,0,0,0,0,.09,2.23,2.23,0,0,0,.15.52s0,0,0,.06v0l.13.23a1.56,1.56,0,0,0,.13.19l0,0,.13.13c.07.07.11.13.18.19l.22.16.16.1a1.49,1.49,0,0,0,.25.13l.18.07.26.06a.72.72,0,0,0,.19,0h.46l.28,0,.19,0a2.29,2.29,0,0,0,.28-.09l.15-.06h0l.23-.14.2-.12s0,0,0,0a.26.26,0,0,0,.09-.09C666.6,448.8,666.3,447.43,666,446.08Z"/><path class="cls-25" d="M679.58,470.27q-1.12-7.09-2.44-13.87c-.34-1.74-.68-3.45-1-5.15-.25-1.2-.51-2.39-.77-3.57q-1.77-7.95-3.83-15.3-.75-2.69-1.53-5.28l-.06-.21q-1.18-3.9-2.43-7.53c-.22-.64-.44-1.27-.67-1.89-10.68-30.15-24.69-46-40.78-46-17.73,0-32.93,19.23-43.95,55.63a325.14,325.14,0,0,0-9.61,43.17h15.18c8.79-53.22,25.38-83.8,38.38-83.8,8.58,0,18.72,13.32,27.15,37.67.22.63.44,1.26.65,1.9q1,2.93,1.92,6,.78,2.57,1.52,5.27.84,3,1.64,6.18c.1.41.21.82.31,1.23,0,.11,0,.21.08.32.25,1,.49,2.05.73,3.09s.53,2.27.79,3.43l.42,1.94q1.31,6.07,2.47,12.64l.36,2.05c.11.68.23,1.36.34,2a496.61,496.61,0,0,1,6.12,80.44c0,38.46-3.7,71.3-9.31,97.29-.37,1.71-.75,3.38-1.13,5-.15.66-.31,1.31-.46,2-3.88,16.1-8.49,29.25-13.35,39.08-.31.65-.64,1.28-1,1.9-6.45,12.39-13.25,19-19.29,19-11.56,0-25.95-24.17-35.19-66.94H575.51c1.9,9.35,4.1,18.16,6.57,26.32,11,36.39,26.22,55.62,43.95,55.62,15.5,0,29.06-14.69,39.58-42.68q2.28-6.06,4.36-12.94c1.68-5.55,3.24-11.41,4.66-17.53l.45-1.95q.75-3.37,1.46-6.84c5.85-28.6,9-62.18,9-97.29A521.1,521.1,0,0,0,679.58,470.27Z"/><path class="cls-25" d="M215,379c1.82,8.79,3.91,17.1,6.25,24.82,11,36.39,26.22,55.62,44,55.62s32.93-24.23,43.94-60.62c1.73-5.7,3.32-11.72,4.77-18q.94-4.06,1.8-8.3c5.85-28.6,9-62.18,9-97.29a522.4,522.4,0,0,0-5.78-79.34c-.05-.37-.11-.73-.17-1.1a323.57,323.57,0,0,0-9.61-43.17c-11-36.4-26.21-55.63-43.94-55.63s-32.93,19.23-44,55.63c-3.91,12.91-7.13,28.56-9.61,44.27h15.13c8.79-53.22,25.43-84.9,38.43-84.9s29.59,30.58,38.38,83.8l.18,1.1a498.91,498.91,0,0,1,5.94,79.34c0,38.46-3.7,71.3-9.31,97.29-.61,2.83-1.25,5.6-1.9,8.3C289.22,419,276,444.4,265.16,444.4c-11.43,0-25.61-23.61-34.86-65.44"/><path class="cls-26" d="M402.36,225.54H375.93A36.42,36.42,0,0,0,339.5,262h0a36.43,36.43,0,0,0,36.43,36.43H467Z"/><circle class="cls-27" cx="788.94" cy="150.65" r="150.65"/><circle class="cls-28" cx="788.94" cy="158.92" r="105.82"/><rect class="cls-29" x="927.13" y="523.75" width="35.6" height="23.37" rx="11.68" ry="11.68"/><rect class="cls-30" x="913.28" y="624.63" width="66.6" height="23.37" rx="11.68" ry="11.68"/><rect class="cls-31" x="3.14" y="300.29" width="33.3" height="23.37" rx="11.68" ry="11.68"/><rect class="cls-32" x="670.28" y="699.45" width="12.34" height="4.71" rx="2.18" ry="2.18" transform="translate(1178.62 1537.24) rotate(-167.06)"/><rect class="cls-33" x="683.3" y="689.03" width="4.71" height="4.71" rx="2.35" ry="2.35" transform="translate(1199.13 1518.72) rotate(-167.06)"/><rect class="cls-34" x="671.24" y="677.98" width="11.09" height="4.71" rx="2.35" ry="2.35" transform="translate(1184.08 1494.91) rotate(-167.06)"/><rect class="cls-35" x="678.62" y="668.02" width="7.92" height="4.71" rx="2.35" ry="2.35" transform="translate(1197.76 1476.54) rotate(-167.06)"/></g></g></svg>