<svg xmlns="http://www.w3.org/2000/svg" xmlns:xlink="http://www.w3.org/1999/xlink" viewBox="0 0 1005.72 1315.6"><defs><style>.cls-1{fill:#6e3fff;}.cls-2,.cls-3{opacity:0.4;}.cls-3{fill:url(#linear-gradient);}.cls-4{fill:url(#linear-gradient-2);}.cls-5{fill:#ee1733;}.cls-6{fill:#ff4e5b;}.cls-7{fill:#fff;}</style><linearGradient id="linear-gradient" y1="1037.52" x2="301.29" y2="1037.52" gradientUnits="userSpaceOnUse"><stop offset="0" stop-color="#ffc639"/><stop offset="1" stop-color="#f9801c"/></linearGradient><linearGradient id="linear-gradient-2" x1="44.83" y1="1045.79" x2="256.46" y2="1045.79" xlink:href="#linear-gradient"/></defs><title>Asset 69</title><g id="Layer_2" data-name="Layer 2"><g id="Art"><circle class="cls-1" cx="841.79" cy="139.34" r="92.78"/><g class="cls-2"><circle class="cls-1" cx="841.79" cy="132.08" r="132.08"/></g><circle class="cls-3" cx="150.65" cy="1037.52" r="150.65"/><circle class="cls-4" cx="150.65" cy="1045.79" r="105.82"/><g id="Page-1"><g id="Home-Page-Mobile"><g id="Group-22"><g id="ngx-logo"><polygon id="Shape" class="cls-5" points="483.25 212.57 483.25 440.95 576.91 407.54 576.91 287.74 576.91 287.54 576.91 275.3 595.26 278.59 595.26 232.59 483.25 212.57"/><path id="Shape-2" data-name="Shape" class="cls-6" d="M595.26,232.59v46h0l29-5.06v56.11l79.1-20.52V213.28L595.26,232.59ZM718.8,443.43V337.27l-6.37-2.52L607.19,362.09V403.8l45.49-11.43v27.7l65.72,23.51h0Z"/><path id="Shape-3" data-name="Shape" class="cls-5" d="M190.87,160.35V545.23l98.52-35.38a10.17,10.17,0,0,0-.86-1.37V340.06l55.6,150.48,102.67-36.6V205.85l-96.65-17.34V327.17L292.37,178.3l-101.5-18Z"/><path id="Shape-4" data-name="Shape" class="cls-6" d="M799.63,378.52l-73.3-145.83a24.14,24.14,0,0,0-5.05-7.53q-3.94-4.56-6.93-7.64a15.31,15.31,0,0,1-3-3.58l104-19.52L855,289.25l37.66-109.33,104.13-19.57-3,4.7c-.67.75-2,2.43-3.94,5.06a23.75,23.75,0,0,1-5.06,5L923.48,370.84l68.39,153.47a37.84,37.84,0,0,0,4.45,7.63,64,64,0,0,0,6.42,7.53,13.56,13.56,0,0,1,3,3.34l-5.31,1L876.57,499.64l-13.4-32.15-12.69,23-74.71-26.84,8.49-26.54q6.42-20.22,10.42-35.64a223.07,223.07,0,0,0,5.05-23.15h0Z"/><polygon id="Shape-5" data-name="Shape" class="cls-6" points="597.38 442.37 597.38 442.37 597.38 442.37 190.87 587.29 252.89 1124.78 597.38 1315.6 597.38 1315.6 597.38 1315.6 941.83 1124.78 1003.85 587.29 597.38 442.37"/><polygon id="Shape-6" data-name="Shape" class="cls-5" points="597.38 442.37 597.38 539.27 597.38 538.86 597.38 981.12 597.38 981.12 597.38 1315.6 597.38 1315.6 941.83 1124.78 1003.85 587.29 597.38 442.37"/><path id="Shape-7" data-name="Shape" class="cls-7" d="M431.33,1094.55h23.35v-45.49l29.78,45.49H513l-26.34-40.44a29.35,29.35,0,0,0,16.68-11.88,35.39,35.39,0,0,0,7.38-22v-3.59a34,34,0,0,0-11.47-26.84,42.59,42.59,0,0,0-30.33-11.88H431.28v116.62h.05Zm23.25-60.66v-32.81h13.1a20.94,20.94,0,0,1,14.35,4.71,14.62,14.62,0,0,1,4.6,11.42,15.91,15.91,0,0,1-4.6,12.13,13,13,0,0,1-10.71,4.65H454.63ZM523.73,978v116.27h69.91V1071H547.09v-23.4H582v-22.85H547.09v-23.4h46.55V978.08H523.78ZM639,1071.55a11.78,11.78,0,0,1-11.83-11.78H603.7a35.39,35.39,0,1,0,70.77,0,25.87,25.87,0,0,0-5.05-16.22,45,45,0,0,0-22.65-15.17,35.08,35.08,0,0,1-14.51-6.07,10.54,10.54,0,0,1-5-9.55,11.78,11.78,0,1,1,23.55,0h23.51a35.39,35.39,0,0,0-70.77,0,26.58,26.58,0,0,0,4.75,16.13,46.44,46.44,0,0,0,22,16.07c8.19,2.83,6.17,2.07,14.56,5.06a9.07,9.07,0,0,1,6,9.6A11.93,11.93,0,0,1,639,1071.4h0ZM712.84,978H683.72v23.26h29.12v93.26h23.35v-93.21h29.12V978H712.89Z"/><path id="Shape-8" data-name="Shape" class="cls-7" d="M598.6,567.78,431.28,943h62.38l33.61-84H669.32l33.61,84h62.38L598.5,567.78h.1Zm48.88,239.6H549.77L598.65,689.8l48.83,117.58Z"/></g></g></g></g></g></g></svg>