<svg xmlns="http://www.w3.org/2000/svg" xmlns:xlink="http://www.w3.org/1999/xlink" viewBox="0 0 782.65 587.08"><defs><style>.cls-1{opacity:0.4;}.cls-2{fill:#6e3fff;}.cls-3{fill:#4eb4d8;}.cls-4{fill:#a2dff9;}.cls-5{opacity:0.74;}.cls-6{opacity:0.5;}.cls-7{fill:#fca2ad;}.cls-8{fill:url(#linear-gradient);}.cls-9{fill:#6d7b99;}.cls-10{fill:url(#linear-gradient-2);}.cls-11,.cls-12{opacity:0.7;}.cls-11{fill:url(#linear-gradient-3);}.cls-12{fill:url(#linear-gradient-4);}</style><linearGradient id="linear-gradient" x1="349.66" y1="87.63" x2="345.89" y2="522.23" gradientUnits="userSpaceOnUse"><stop offset="0.07" stop-color="#dcdce2"/><stop offset="1" stop-color="#a4a4a5"/></linearGradient><linearGradient id="linear-gradient-2" x1="3404.95" y1="-1401.92" x2="3613.8" y2="-1401.92" gradientTransform="translate(-1551.27 3429.09) rotate(-33.31)" gradientUnits="userSpaceOnUse"><stop offset="0" stop-color="#ffc639"/><stop offset="1" stop-color="#f9801c"/></linearGradient><linearGradient id="linear-gradient-3" x1="3500.39" y1="-1611.12" x2="3505.47" y2="-1259.74" gradientTransform="translate(-1551.27 3429.09) rotate(-33.31)" gradientUnits="userSpaceOnUse"><stop offset="0.05" stop-color="#155dff"/><stop offset="0.2" stop-color="#3d4ffd"/><stop offset="0.37" stop-color="#6342fc"/><stop offset="0.53" stop-color="#8138fb"/><stop offset="0.69" stop-color="#9731fa"/><stop offset="0.85" stop-color="#a42cf9"/><stop offset="1" stop-color="#a82bf9"/></linearGradient><linearGradient id="linear-gradient-4" x1="3502.84" y1="-1478.12" x2="3504.83" y2="-1340.55" xlink:href="#linear-gradient-3"/></defs><title>Asset 77</title><g id="Layer_2" data-name="Layer 2"><g id="Art"><g class="cls-1"><path class="cls-2" d="M521.08,52h-45.2v0H461.5a7,7,0,1,1,0-14h14.38v0h21.27a7,7,0,0,0,0-14H361.51a7,7,0,1,0,0,14h25.72v0h16.35a7,7,0,0,1,0,14H387.23v0H355.67a7,7,0,1,0,0,14h31.56v0H430.1a7,7,0,0,1,0,14H387.23v0H367.35a7,7,0,1,0,0,14h19.88v0h4.67a7,7,0,1,1,0,14h-4.67v0H355.67a7,7,0,1,0,0,14H508.82a7,7,0,1,0,0-14H475.88v0h-20.8a7,7,0,1,1,0-14h20.8v0h15.43a7,7,0,0,0,0-14H475.88v0h-2.7a7,7,0,0,1,0-14h2.7v0h45.2a7,7,0,1,0,0-14Z"/></g><circle class="cls-3" cx="158.52" cy="106.76" r="73.54"/><path class="cls-4" d="M329.27,516.86H256.52v0H233.37c-6.23,0-11.28-3.14-11.28-7s5-7,11.28-7h23.15v0h34.22c6.23,0,11.28-3.14,11.28-7s-5-7-11.28-7H72.43c-6.23,0-11.28,3.13-11.28,7s5.05,7,11.28,7h41.4v0h26.31c6.23,0,11.28,3.14,11.28,7s-5,7-11.28,7H113.83v0H63c-6.23,0-11.27,3.14-11.27,7s5,7,11.27,7h50.8v0h69c6.22,0,11.27,3.14,11.27,7s-5,7-11.27,7h-69v0h-32c-6.23,0-11.28,3.14-11.28,7s5,7,11.28,7h32v0h7.52c6.23,0,11.27,3.14,11.27,7s-5,7-11.27,7h-7.52v0H63c-6.23,0-11.27,3.14-11.27,7s5,7,11.27,7H309.54c6.23,0,11.27-3.14,11.27-7s-5-7-11.27-7h-53v0H223c-6.23,0-11.28-3.13-11.28-7s5.05-7,11.28-7h33.49v0h24.83c6.22,0,11.27-3.13,11.27-7s-5.05-7-11.27-7H256.52v0h-4.34c-6.23,0-11.28-3.13-11.28-7s5-7,11.28-7h4.34v0h72.75c6.23,0,11.28-3.14,11.28-7S335.5,516.86,329.27,516.86Z"/><circle class="cls-2" cx="91.81" cy="446.96" r="64.49"/><g class="cls-5"><circle class="cls-3" cx="158.52" cy="106.76" r="106.76"/></g><g class="cls-6"><circle class="cls-7" cx="259.3" cy="61.26" r="40.77"/></g><circle class="cls-7" cx="259.3" cy="60.95" r="25.03"/><g class="cls-1"><circle class="cls-2" cx="91.81" cy="441.92" r="91.81"/></g><polygon class="cls-8" points="233.94 535.42 233.94 463.35 287.58 453.21 287.58 189.78 238.71 189.78 238.71 88.56 404.61 88.56 404.61 451.65 458.24 461.77 458.24 535.42 233.94 535.42"/><path class="cls-9" d="M402.11,91.06V453.72l4.08.77,49.55,9.35v69.08H236.44v-67.5L286,456.05l4.07-.77v-268H241.21V91.06h160.9m5-5H236.21V192.28h48.87V451.14l-53.64,10.13v76.65h229.3V459.7l-53.63-10.12V86.06Z"/><circle class="cls-10" cx="611.52" cy="330.15" r="104.42"/><path class="cls-11" d="M619.06,226c7.78,1.15,13.17,1.52,20.63,3.68,5.6-1.35,32.22-10.21,55.67-10.25,33.56,0,57.28-3.75,66.76,10.68s4.16,39.48-14.57,68.74c-1.7,2.65-3.48,5.31-5.35,8-2.32,3.3-4.76,6.58-7.36,9.87C713.24,344.25,682.71,371.53,647,395c-29.39,19.31-59.74,34.37-88.46,44-4.35,1.48-8.7,2.83-13,4.06a236.29,236.29,0,0,1-26.73,6c-34.3,5.59-59.4.51-68.88-13.91s-4.17-39.47,14.57-68.74c6.05-9.45,35.7-43.72,43.87-53.13,1.36-8.49,1.56-7.52,3.55-14.69C464.61,347.56,417.17,414.39,436.63,444c18.22,27.72,67.52,30,126,10.48,6.53-2.18,13.18-4.64,19.9-7.37a424,424,0,0,0,73.28-38.79C686.7,388,713.25,365.24,734,342.39c4.63-5.12,9-10.25,13-15.34,32.46-41.08,44.84-80.83,28.49-105.71C757.87,194.57,674.85,208.59,619.06,226Z"/><path class="cls-12" d="M637.11,228.88c5.91,1.92,11.49,2.94,17.1,6,4.52-1.09,12.19-4.48,16.53-5.18,27.64-4.5,47.87-.43,55.51,11.2s3.36,31.82-11.73,55.41c-1.37,2.13-2.81,4.27-4.32,6.4q-2.81,4-5.93,8c-17.41,22.23-42,44.22-70.79,63.13-23.69,15.57-48.15,27.7-71.3,35.5-3.5,1.19-7,2.28-10.45,3.27a189.57,189.57,0,0,1-21.54,4.87c-27.65,4.51-47.88.41-55.51-11.2s-3.37-31.81,11.74-55.4c4.87-7.62,14.28-19.34,20.86-26.93,0-6.76,1.29-10.7,2.41-16.83-38.15,39.4-61.45,82.35-45.76,106.22,14.68,22.34,54.41,24.19,101.51,8.44,5.26-1.75,10.62-3.73,16-5.93a342.55,342.55,0,0,0,59.06-31.26c24.93-16.39,46.33-34.73,63-53.15q5.6-6.19,10.48-12.36c26.16-33.11,36.14-65.15,23-85.2C722.83,212.22,682.08,214.86,637.11,228.88Z"/></g></g></svg>