<svg xmlns="http://www.w3.org/2000/svg" xmlns:xlink="http://www.w3.org/1999/xlink" viewBox="0 0 569.13 1040.08"><defs><style>.cls-1{fill:#020202;opacity:0.3;}.cls-2{fill:url(#linear-gradient);}.cls-3,.cls-4{font-size:36px;fill:#fff;}.cls-3{font-family:Oswald-Heavy, Oswald;}.cls-4{font-family:HelveticaNeue-Bold, Helvetica Neue;font-weight:700;}.cls-5{fill:url(#linear-gradient-2);}.cls-6{fill:url(#linear-gradient-3);}.cls-7{fill:url(#linear-gradient-4);}.cls-8{fill:url(#linear-gradient-5);}.cls-9{fill:url(#linear-gradient-6);}.cls-10{fill:url(#linear-gradient-7);}.cls-11{fill:#6d7b99;}.cls-12{fill:url(#linear-gradient-8);}.cls-13{fill:#00a551;}.cls-14{fill:url(#linear-gradient-9);}.cls-15{fill:url(#linear-gradient-10);}.cls-16{fill:url(#linear-gradient-11);}.cls-17{fill:url(#linear-gradient-12);}.cls-18{fill:url(#linear-gradient-13);}.cls-19{fill:url(#linear-gradient-14);}</style><linearGradient id="linear-gradient" x1="77.33" y1="589.06" x2="74.83" y2="716.24" gradientUnits="userSpaceOnUse"><stop offset="0.03" stop-color="#ff4e5b"/><stop offset="0.24" stop-color="#ff4f57"/><stop offset="0.45" stop-color="#ff544b"/><stop offset="0.67" stop-color="#ff5b36"/><stop offset="0.89" stop-color="#ff661a"/><stop offset="1" stop-color="#ff6c08"/></linearGradient><linearGradient id="linear-gradient-2" x1="471.91" y1="528.4" x2="468.77" y2="688.15" xlink:href="#linear-gradient"/><linearGradient id="linear-gradient-3" x1="1563.47" y1="904.8" x2="1561.47" y2="1006.8" gradientTransform="translate(1406.42 2093.78) rotate(-168.52)" xlink:href="#linear-gradient"/><linearGradient id="linear-gradient-4" x1="988.73" y1="696.28" x2="986.73" y2="798.28" gradientTransform="matrix(-0.77, 0.64, -0.64, -0.77, 1461.99, 705.49)" xlink:href="#linear-gradient"/><linearGradient id="linear-gradient-5" x1="342.71" y1="361.69" x2="340.71" y2="463.7" gradientTransform="matrix(0.99, 0.16, 0.16, -0.99, -19.1, 1139.35)" xlink:href="#linear-gradient"/><linearGradient id="linear-gradient-6" x1="239.03" y1="843.57" x2="235.14" y2="1041.11" xlink:href="#linear-gradient"/><linearGradient id="linear-gradient-7" x1="204.73" y1="515.54" x2="248.92" y2="515.54" gradientUnits="userSpaceOnUse"><stop offset="0" stop-color="#dcdce2"/><stop offset="1" stop-color="#a4a4a5"/></linearGradient><linearGradient id="linear-gradient-8" x1="285.19" y1="515.54" x2="329.37" y2="515.54" xlink:href="#linear-gradient-7"/><linearGradient id="linear-gradient-9" x1="245.22" y1="455.92" x2="288.89" y2="455.92" xlink:href="#linear-gradient-7"/><linearGradient id="linear-gradient-10" x1="234.16" y1="103.11" x2="299.94" y2="103.11" xlink:href="#linear-gradient-7"/><linearGradient id="linear-gradient-11" x1="205.37" y1="404.32" x2="248.28" y2="404.32" xlink:href="#linear-gradient-7"/><linearGradient id="linear-gradient-12" x1="285.83" y1="404.32" x2="328.74" y2="404.32" xlink:href="#linear-gradient-7"/><linearGradient id="linear-gradient-13" x1="245.22" y1="351.29" x2="288.89" y2="351.29" xlink:href="#linear-gradient-7"/><linearGradient id="linear-gradient-14" x1="235.16" y1="163.14" x2="298.94" y2="163.14" xlink:href="#linear-gradient-7"/></defs><title>Asset 82</title><g id="Layer_2" data-name="Layer 2"><g id="Art"><path class="cls-1" d="M33.68,730.8c116.29-1.31,129.09-83.43,129.09-83.43l-23.08-41.72s-12.8,82.12-129.08,83.44Z"/><path class="cls-2" d="M23.08,715.23c116.28-1.32,129.08-83.44,129.08-83.44l-23.07-41.71S116.28,672.2,0,673.51Z"/><text class="cls-3" transform="translate(32.39 705.95) rotate(-6.17)"> </text><text class="cls-4" transform="matrix(0.98, -0.21, 0.21, 0.98, 45.04, 704.75)">h</text><text class="cls-4" transform="translate(69.43 699.06) rotate(-19.77)">t</text><text class="cls-4" transform="translate(84.64 693.38) rotate(-26.93)">t</text><text class="cls-4" transform="translate(100.22 685.5) rotate(-38.03)">p</text><text class="cls-4" transform="matrix(0.61, -0.79, 0.79, 0.61, 121.58, 667.68)">s</text><path class="cls-1" d="M531.11,710c-151-1.71-167.62-108.34-167.62-108.34l30-54.17S396,651.44,547,653.15Z"/><path class="cls-5" d="M569.13,635.35,540,688.05l-.81,1.47-2.33,0c-5.9-.1-11.58-.38-17.07-.8-116.36-8.89-142.55-84.46-147.29-103.27-.68-2.7-.92-4.23-.92-4.23l30-54.17s13.37,85.75,125,104.68c6.3,1.07,12.9,1.93,19.84,2.54Q557.2,635.2,569.13,635.35Z"/><path class="cls-6" d="M84.36,798.08C79.7,859.26,16,849.42,16,849.42L45.73,894s63.76,9.84,68.42-51.34Z"/><path class="cls-1" d="M204.64,730.8c44.86,41.86-2.65,85.5-2.65,85.5l53.4,4.58s47.52-43.64,2.65-85.5Z"/><path class="cls-7" d="M199.15,720.09c44.87,41.86-2.65,85.5-2.65,85.5l53.4,4.57s47.52-43.63,2.65-85.5Z"/><path class="cls-1" d="M371.76,746.39c-17.12,58.93,46,72.1,46,72.1l-43.53,31.27s-63.16-13.17-46-72.1Z"/><path class="cls-8" d="M382.55,734.05c-17.12,58.93,46,72.1,46,72.1l-43.53,31.27s-63.16-13.17-46-72.1Z"/><path class="cls-9" d="M323.29,880.82a63.58,63.58,0,0,1-3.54,17.58c-6.07,18.09-22.54,45.42-67.24,58.44-70.09,20.41-69.7,83.24-69.7,83.24l-31.92-36.22S150.5,941,220.6,920.62a127.62,127.62,0,0,0,24.92-10A98.42,98.42,0,0,0,264,897.79c27-23.88,27.38-53.19,27.38-53.19l27.72,31.46Z"/><path class="cls-10" d="M248.92,692.18H204.73V420.42a206.82,206.82,0,0,1,14.68-76.49h0a8,8,0,0,1,14.83,0h0a206.62,206.62,0,0,1,14.68,76.49Z"/><path class="cls-11" d="M226.83,342.6a4.19,4.19,0,0,1,4,2.7,202.15,202.15,0,0,1,14.41,75.12V688.48H208.43V420.42a202,202,0,0,1,14.42-75.12,4.17,4.17,0,0,1,4-2.7Zm0-3.7a7.88,7.88,0,0,0-7.42,5h0a206.81,206.81,0,0,0-14.67,76.49V692.18h44.18V420.42a206.62,206.62,0,0,0-14.68-76.49h0a7.86,7.86,0,0,0-7.41-5Z"/><path class="cls-11" d="M204.73,692.18V663.52s-10.18,12.29-13.4,28.66Z"/><path class="cls-11" d="M329.37,692.18V663.52s10.19,12.29,13.4,28.66Z"/><path class="cls-12" d="M329.37,692.18H285.19V420.42a206.62,206.62,0,0,1,14.68-76.49h0a8,8,0,0,1,14.83,0h0a206.81,206.81,0,0,1,14.67,76.49Z"/><path class="cls-11" d="M307.28,342.6a4.18,4.18,0,0,1,4,2.7,202,202,0,0,1,14.42,75.12V688.48H288.89V420.42A202.15,202.15,0,0,1,303.3,345.3a4.19,4.19,0,0,1,4-2.7Zm0-3.7a7.85,7.85,0,0,0-7.41,5h0a206.62,206.62,0,0,0-14.68,76.49V692.18h44.18V420.42a206.81,206.81,0,0,0-14.67-76.49h0a7.88,7.88,0,0,0-7.42-5Z"/><path class="cls-13" d="M256.42,692.18H277L270,666.57a3.48,3.48,0,0,0-6.71,0Z"/><rect class="cls-14" x="245.22" y="219.67" width="43.67" height="472.5"/><path class="cls-11" d="M245.22,219.67v472.5h43.67V219.67Zm40,468.81H248.92V223.37h36.27Z"/><path class="cls-15" d="M298.28,73c-.29-.94-.63-1.9-1-2.9L277.94,11.06c-6.51-14.74-18.42-14.74-23.62,0L236.66,69.89A30.33,30.33,0,0,0,235.25,74a40.09,40.09,0,0,0-1.09,9.7V206.22h65.78V84.75A39.24,39.24,0,0,0,298.28,73Z"/><path class="cls-11" d="M265.64,2.7c3.06,0,7.44,4.32,9.85,9.68l19.24,58.91,0,.13.05.12c.35.85.65,1.7.93,2.59a36,36,0,0,1,1.5,10.62l-1,117.77H237.86l-1-118.78a36.56,36.56,0,0,1,1-8.81,26.37,26.37,0,0,1,1.25-3.63l.07-.17,0-.17L256.83,12.2c1.9-5.32,5.81-9.5,8.81-9.5Zm0-2.7c-4.44,0-8.72,3.69-11.32,11.06L236.66,69.89A30.33,30.33,0,0,0,235.25,74a40.09,40.09,0,0,0-1.09,9.7V206.22h65.78V84.75A39.24,39.24,0,0,0,298.28,73c-.29-.94-.63-1.9-1-2.9L277.94,11.06C274.69,3.69,270.08,0,265.64,0Z"/><rect class="cls-16" x="205.37" y="403.39" width="42.91" height="1.85"/><polygon class="cls-11" points="248.28 403.39 205.37 403.39 205.37 405.24 248.28 405.24 248.28 403.39 248.28 403.39"/><rect class="cls-17" x="285.83" y="403.39" width="42.91" height="1.85"/><polygon class="cls-11" points="328.74 403.39 285.83 403.39 285.83 405.24 328.74 405.24 328.74 403.39 328.74 403.39"/><rect class="cls-18" x="245.22" y="350.36" width="43.67" height="1.85"/><polygon class="cls-11" points="288.89 350.37 245.22 350.37 245.22 352.21 288.89 352.21 288.89 350.37 288.89 350.37"/><rect class="cls-11" x="208.36" y="668.36" width="117.24" height="1.85"/><path class="cls-11" d="M216.56,692.18h20.53l-6.91-25.61a3.48,3.48,0,0,0-6.71,0Z"/><path class="cls-11" d="M297,692.18h20.52l-6.9-25.61a3.48,3.48,0,0,0-6.71,0Z"/><path class="cls-11" d="M256.79,692.18h20.53l-6.91-25.61a3.48,3.48,0,0,0-6.71,0Z"/><path class="cls-19" d="M245.79,237.16l-8.07-13.48a18.09,18.09,0,0,1-2.56-9.26V89.12h63.78v125.3a18.08,18.08,0,0,1-2.55,9.26l-8.07,13.48Z"/><path class="cls-11" d="M297.94,90.12v124.3a17,17,0,0,1-2.41,8.74l-7.78,13h-41.4l-7.77-13a17,17,0,0,1-2.42-8.74V90.12h61.78m2-2H234.16v126.3a19.09,19.09,0,0,0,2.7,9.77l8.36,14h43.67l8.36-14a19.08,19.08,0,0,0,2.69-9.77V88.12Z"/><text class="cls-3" transform="translate(420.42 629.56) rotate(36.33)">U</text><text class="cls-3" transform="translate(440.54 644.07) rotate(29.17)">R</text><text class="cls-3" transform="matrix(0.91, 0.41, -0.41, 0.91, 462.51, 656.02)">L</text></g></g></svg>