<svg xmlns="http://www.w3.org/2000/svg" xmlns:xlink="http://www.w3.org/1999/xlink" viewBox="0 0 531.85 796.08"><defs><style>.cls-1,.cls-14{fill:#fff;}.cls-2{fill:#ef4545;}.cls-3{fill:#020202;}.cls-13,.cls-3{opacity:0.7;}.cls-4{fill:url(#linear-gradient);}.cls-5{fill:#6d7b99;}.cls-6{fill:#52536e;}.cls-7{fill:url(#linear-gradient-2);}.cls-8{fill:url(#linear-gradient-3);}.cls-9{fill:url(#linear-gradient-4);}.cls-10{fill:url(#linear-gradient-5);}.cls-11{fill:url(#linear-gradient-6);}.cls-12{fill:#d6d6d6;}.cls-13{fill:#4377f9;}.cls-14{opacity:0.3;}.cls-15{fill:url(#linear-gradient-7);}.cls-16{fill:url(#linear-gradient-8);}.cls-17{fill:url(#linear-gradient-9);}.cls-18{font-size:19.61px;fill:#fcfcfc;font-family:Avenir-Medium, Avenir;}</style><linearGradient id="linear-gradient" x1="1165.04" y1="375.43" x2="1166.44" y2="536.58" gradientTransform="matrix(0.76, -0.65, 0.65, 0.76, -892.6, 810.99)" gradientUnits="userSpaceOnUse"><stop offset="0" stop-color="#dcdce2"/><stop offset="1" stop-color="#b2b2b2"/></linearGradient><linearGradient id="linear-gradient-2" x1="-879.29" y1="1513.11" x2="-877.88" y2="1676.68" gradientTransform="matrix(0.96, 0.28, -0.28, 0.96, 1478.83, -753.8)" xlink:href="#linear-gradient"/><linearGradient id="linear-gradient-3" x1="1188.05" y1="33.14" x2="1180.43" y2="140.63" gradientTransform="translate(-756.11 1336.87) rotate(-42.18)" xlink:href="#linear-gradient"/><linearGradient id="linear-gradient-4" x1="1885.77" y1="1342.03" x2="1887.7" y2="1566.28" gradientTransform="matrix(0.22, -0.98, 0.98, 0.22, -1417.49, 2078.33)" xlink:href="#linear-gradient"/><linearGradient id="linear-gradient-5" x1="1130.17" y1="1010.88" x2="1131.58" y2="1174.45" gradientTransform="matrix(0.65, -0.76, 0.76, 0.65, -1193.69, 612.65)" xlink:href="#linear-gradient"/><linearGradient id="linear-gradient-6" y1="198.83" x2="531.85" y2="198.83" gradientUnits="userSpaceOnUse"><stop offset="0" stop-color="#dcdce2"/><stop offset="1" stop-color="#a3a3a3"/></linearGradient><linearGradient id="linear-gradient-7" x1="272.35" y1="302.74" x2="271.82" y2="278.56" gradientUnits="userSpaceOnUse"><stop offset="0.03" stop-color="#ff4e5b"/><stop offset="0.16" stop-color="#f54d64"/><stop offset="0.17" stop-color="#f44d65"/><stop offset="0.31" stop-color="#e44b74"/><stop offset="0.58" stop-color="#ba479a"/><stop offset="0.96" stop-color="#7640d8"/><stop offset="1" stop-color="#6e3fe0"/></linearGradient><linearGradient id="linear-gradient-8" x1="268.66" y1="265.34" x2="267.1" y2="512.47" gradientUnits="userSpaceOnUse"><stop offset="0.01" stop-color="#ff6c08" stop-opacity="0.8"/><stop offset="0.2" stop-color="#ff661a" stop-opacity="0.65"/><stop offset="0.58" stop-color="#ff593d" stop-opacity="0.36"/><stop offset="0.86" stop-color="#ff5153" stop-opacity="0.17"/><stop offset="1" stop-color="#ff4e5b" stop-opacity="0.1"/></linearGradient><linearGradient id="linear-gradient-9" x1="32.39" y1="2555.8" x2="32.39" y2="2684.05" gradientTransform="matrix(0.8, -0.6, 0.6, 0.8, -1275.51, -1352.55)" xlink:href="#linear-gradient"/></defs><title>Asset 781232</title><g id="Layer_2" data-name="Layer 2"><g id="Art"><rect class="cls-1" x="504.61" y="267.12" width="3.64" height="13.86" transform="translate(522.33 849.65) rotate(-120)"/><rect class="cls-2" x="485.96" y="248.78" width="13.86" height="3.64" transform="translate(-59.26 280.04) rotate(-30)"/><rect class="cls-1" x="477.53" y="220.22" width="3.64" height="13.86" transform="matrix(-0.5, -0.87, 0.87, -0.5, 522.33, 755.84)"/><rect class="cls-1" x="463.99" y="196.76" width="3.64" height="13.86" transform="translate(522.33 708.94) rotate(-120)"/><rect class="cls-2" x="445.34" y="178.42" width="13.86" height="3.64" transform="translate(-29.53 250.3) rotate(-30)"/><rect class="cls-3" x="224.03" y="340.1" width="46.03" height="47.38" rx="1.99" ry="1.99" transform="translate(-177.84 250.45) rotate(-40.88)"/><path class="cls-4" d="M247.25,380.45a1,1,0,0,1-.75-.34L218.1,347.3a1,1,0,0,1-.24-.72,1,1,0,0,1,.34-.68L250,318.38a1,1,0,0,1,.65-.24,1,1,0,0,1,.75.34l28.4,32.81a1,1,0,0,1-.1,1.4L247.9,380.21A1,1,0,0,1,247.25,380.45Z"/><path class="cls-5" d="M250.64,319.14l28.4,32.8-31.78,27.52-28.41-32.8,31.79-27.52m0-2a2,2,0,0,0-1.31.49l-31.78,27.51a2,2,0,0,0-.21,2.82l28.41,32.8a2,2,0,0,0,1.51.69,2,2,0,0,0,1.3-.48l31.78-27.52a2,2,0,0,0,.21-2.81l-28.41-32.81a2,2,0,0,0-1.5-.69Z"/><rect class="cls-6" x="233.09" y="349.24" width="31.13" height="3.08" rx="1.54" ry="1.54" transform="translate(-168.93 248.33) rotate(-40.88)"/><rect class="cls-6" x="237.68" y="339.38" width="20.42" height="3.08" rx="1.54" ry="1.54" transform="translate(-162.67 245.42) rotate(-40.88)"/><rect class="cls-6" x="230.95" y="350.07" width="9.16" height="3.08" rx="1.54" ry="1.54" transform="translate(-172.68 239.95) rotate(-40.88)"/><rect class="cls-6" x="238.68" y="354.91" width="31.13" height="3.08" rx="1.54" ry="1.54" transform="translate(-171.28 253.38) rotate(-40.88)"/><rect class="cls-3" x="177.52" y="458.88" width="46.69" height="48.06" rx="2.02" ry="2.02" transform="translate(143.9 -37) rotate(16.33)"/><path class="cls-7" d="M217.53,501.31a.92.92,0,0,1-.29,0l-40.93-12a1,1,0,0,1-.61-.49,1,1,0,0,1-.08-.78L188,445.77a1,1,0,0,1,1-.74,1,1,0,0,1,.29.05l40.92,12a1,1,0,0,1,.69,1.27l-12.37,42.24A1,1,0,0,1,217.53,501.31Z"/><path class="cls-5" d="M189,444v2l40.94,12-12.4,42.25-40.94-12L189,446.05a0,0,0,0,1,0,0v-2m0,0a2,2,0,0,0-1.94,1.46l-12.38,42.24a2,2,0,0,0,1.37,2.51l40.93,12a1.87,1.87,0,0,0,.57.08,2,2,0,0,0,1.94-1.45l12.37-42.24a2,2,0,0,0-1.37-2.51l-40.92-12A1.93,1.93,0,0,0,189,444Z"/><path class="cls-6" d="M217.64,467.69,194,460.76a2.57,2.57,0,0,0-3.18,1.74l-3.39,11.58a2.55,2.55,0,0,0,1.74,3.17l2.67.78-1.79,6.08,7.86-4.3,14.9,4.37a2.56,2.56,0,0,0,3.18-1.74l3.39-11.57A2.56,2.56,0,0,0,217.64,467.69Z"/><rect class="cls-3" x="139.31" y="588.1" width="71.22" height="71.22" rx="3.86" ry="3.86" transform="matrix(0.79, -0.62, 0.62, 0.79, -347.74, 241.04)"/><path class="cls-8" d="M174.33,653.39a2.85,2.85,0,0,1-2.26-1.1l-39.19-49.95a2.77,2.77,0,0,1-.59-2.11,2.86,2.86,0,0,1,1.07-1.91l49.95-39.19a2.87,2.87,0,0,1,4,.48l39.2,49.95a2.86,2.86,0,0,1,.59,2.11,2.91,2.91,0,0,1-1.08,1.91l-49.95,39.19A2.78,2.78,0,0,1,174.33,653.39Z"/><path class="cls-5" d="M185.07,559.52a1.82,1.82,0,0,1,1.47.71l39.2,49.95a1.82,1.82,0,0,1,.38,1.37,1.87,1.87,0,0,1-.7,1.24L175.47,652a1.81,1.81,0,0,1-1.14.4,1.85,1.85,0,0,1-1.47-.72l-39.2-49.95a1.86,1.86,0,0,1,.32-2.61l50-39.2a1.79,1.79,0,0,1,1.14-.39m0-2a3.82,3.82,0,0,0-2.38.82l-49.95,39.2a3.86,3.86,0,0,0-.65,5.42l39.2,49.95a3.85,3.85,0,0,0,5.42.65l49.95-39.2a3.85,3.85,0,0,0,.65-5.42l-39.2-50a3.84,3.84,0,0,0-3-1.47Z"/><path class="cls-6" d="M193.57,610.56h0a1.18,1.18,0,0,1-1-1.3l1.72-14.21-14.21-1.71a1.17,1.17,0,0,1-1-1.29h0a1.17,1.17,0,0,1,1.3-1l16.52,2-2,16.52A1.16,1.16,0,0,1,193.57,610.56Z"/><rect class="cls-6" x="178.87" y="592.42" width="2.33" height="27.73" rx="1.16" ry="1.16" transform="translate(-222.55 118.52) rotate(-23)"/><path class="cls-6" d="M179.58,621.53l-16.52-2,2-16.52a1.15,1.15,0,0,1,1.29-1h0a1.16,1.16,0,0,1,1,1.29l-1.72,14.21,14.21,1.71a1.18,1.18,0,0,1,1,1.3h0A1.16,1.16,0,0,1,179.58,621.53Z"/><rect class="cls-3" x="302.2" y="517.6" width="63.3" height="65.16" rx="2.74" ry="2.74" transform="translate(-275.82 756.22) rotate(-77.42)"/><path class="cls-9" d="M356.67,573.08a1.69,1.69,0,0,1-.38,0l-58.24-13a1.75,1.75,0,0,1-1.32-2.08l12.59-56.43a1.74,1.74,0,0,1,1.7-1.36,1.69,1.69,0,0,1,.38,0l58.24,13a1.79,1.79,0,0,1,1.09.77,1.73,1.73,0,0,1,.23,1.31l-12.59,56.43A1.74,1.74,0,0,1,356.67,573.08Z"/><path class="cls-5" d="M311,501.18a.44.44,0,0,1,.16,0l58.24,13a.74.74,0,0,1,.56.89L357.4,571.5a.76.76,0,0,1-.73.58h-.16l-58.24-13a.73.73,0,0,1-.56-.88l12.58-56.43a.76.76,0,0,1,.73-.58m0-2a2.75,2.75,0,0,0-2.68,2.14l-12.59,56.43a2.74,2.74,0,0,0,2.08,3.27l58.24,13a3.21,3.21,0,0,0,.6.06,2.74,2.74,0,0,0,2.68-2.14l12.59-56.43a2.74,2.74,0,0,0-2.08-3.27l-58.24-13a2.58,2.58,0,0,0-.6-.07Z"/><path class="cls-6" d="M335,529.25a11.69,11.69,0,1,0-3.43,15.34,15.07,15.07,0,0,0,11.75,15.11l6.52,1.45a1.67,1.67,0,0,0,2-1.26l8-35.87a1.68,1.68,0,0,0-1.27-2l-6.52-1.45A15,15,0,0,0,335,529.25Z"/><rect class="cls-3" x="304.57" y="420.86" width="46.69" height="48.06" rx="2.02" ry="2.02" transform="matrix(0.65, -0.76, 0.76, 0.65, -223.26, 404.04)"/><path class="cls-10" d="M329.86,459.61a1,1,0,0,1-.66-.24L295.79,430.7a1,1,0,0,1-.11-1.44l27.77-32.36a1,1,0,0,1,.78-.36,1,1,0,0,1,.67.25l33.4,28.66a1,1,0,0,1,.11,1.44l-27.77,32.37A1,1,0,0,1,329.86,459.61Z"/><path class="cls-5" d="M324.23,395.54l0,2,33.4,28.69-27.8,32.37-33.41-28.7,27.77-32.36h0v-2m0,0a2,2,0,0,0-1.53.71l-27.78,32.36a2,2,0,0,0,.22,2.85l33.41,28.67a2,2,0,0,0,1.31.48,2,2,0,0,0,1.54-.7l27.77-32.37a2,2,0,0,0-.22-2.85L325.55,396a2,2,0,0,0-1.32-.49Z"/><path class="cls-6" d="M327.05,420.15a5.95,5.95,0,0,1,1.43,11.72l-.82.2-.85,0a5.95,5.95,0,0,1-.38-11.86c.2,0,.41,0,.62,0m0-3c-.31,0-.62,0-.93.05A8.95,8.95,0,0,0,326.7,435l.94,9.15a1,1,0,0,0,1,.89h.1l.53-.06a1,1,0,0,0,.89-1.09l-.95-9.15a8.95,8.95,0,0,0-2.15-17.63Z"/><path class="cls-11" d="M.33,203.63s-13.19,45.9,126.43,72,269.6-1.25,269.6-1.25,101.26-23.14,130.13-62.2a28.16,28.16,0,0,0-3.87-37.35C503.14,157,455.27,124.4,358,114.08c-85-9-164,1.81-211.53,11.27a349.18,349.18,0,0,0-101.72,37C22.08,175,1,190.22.33,203.63Z"/><path class="cls-12" d="M519.36,172C233.55,272.56,12.74,183.9,12.74,183.9S119.8,100.3,285,110.25c40.87,2.47,80.3,2.6,117.5,10.43,21.24,4.47,63.42,16.65,85,29.77l16.79,10.13Z"/><path class="cls-13" d="M435,129.13C272,198.4,106.12,136,106.12,136S129.18,0,267.28,0C408.07,0,435,129.13,435,129.13Z"/><path class="cls-14" d="M141.56,146.44S149.42,51.93,232,3.24C232,3.24,130,17.71,106.12,136l14.65,4.79Z"/><path class="cls-15" d="M216.43,285.63l3.45,2.64A104.9,104.9,0,0,0,323.3,287l4.18-2.92L272,286.86Z"/><path class="cls-16" d="M339.75,312.12,502.49,635l-33.32,58.38s-7.15,15.85-19.23,23.1c-5.38,3.23-5.25,8-42.32,8H124c-25.65-.37-36.74-.75-50.4-25.76L30.23,624.34l186.2-338.71,53.05,1.17,58-2.72"/><rect class="cls-1" x="206.51" y="250.76" width="4.04" height="15.39"/><rect class="cls-2" x="236.59" y="250.76" width="4.04" height="15.39"/><rect class="cls-1" x="266.66" y="250.76" width="4.04" height="15.39"/><rect class="cls-1" x="296.73" y="250.76" width="4.04" height="15.39"/><rect class="cls-2" x="326.8" y="250.76" width="4.04" height="15.39"/><rect class="cls-3" x="204.21" y="684.07" width="210" height="56.18" rx="4.64" ry="4.64" transform="translate(-367.17 330.98) rotate(-37.13)"/><path class="cls-17" d="M243.35,770.08a3.62,3.62,0,0,1-2.9-1.44l-28.31-37.4a3.6,3.6,0,0,1-.71-2.69,3.67,3.67,0,0,1,1.41-2.41L372.88,605a3.64,3.64,0,0,1,5.09.71l28.31,37.4a3.6,3.6,0,0,1,.71,2.69,3.67,3.67,0,0,1-1.41,2.4l-160,121.15A3.62,3.62,0,0,1,243.35,770.08Z"/><path class="cls-5" d="M375.07,605.26h0a2.65,2.65,0,0,1,2.11,1l28.31,37.4a2.64,2.64,0,0,1-.52,3.69l-160,121.15a2.63,2.63,0,0,1-3.7-.51l-28.31-37.39a2.7,2.7,0,0,1-.51-2,2.64,2.64,0,0,1,1-1.74l160-121.15a2.6,2.6,0,0,1,1.59-.53m0-2a4.59,4.59,0,0,0-2.8.94l-160,121.15a4.62,4.62,0,0,0-.9,6.49l28.31,37.4a4.64,4.64,0,0,0,6.5.9L406.18,649a4.64,4.64,0,0,0,.9-6.5l-28.31-37.4a4.63,4.63,0,0,0-3.7-1.83Z"/><rect class="cls-6" x="241.5" y="670.07" width="137.57" height="32.47" rx="14.65" ry="14.65" transform="translate(-351.34 326.39) rotate(-37.13)"/><text class="cls-18" transform="matrix(0.8, -0.6, 0.6, 0.8, 272.3, 722.2)">Restangular</text></g></g></svg>