<svg xmlns="http://www.w3.org/2000/svg" viewBox="0 0 814.85 1155.25"><defs><style>.cls-1{fill:#ee1733;}.cls-2{fill:#ff4e5b;}.cls-3{fill:#fff;}</style></defs><title>Asset 7712</title><g id="Layer_2" data-name="Layer 2"><g id="Art"><g id="Page-1"><g id="Home-Page-Mobile"><g id="Group-22"><g id="ngx-logo"><polygon id="Shape" class="cls-1" points="292.38 52.22 292.38 280.6 386.04 247.19 386.04 127.38 386.04 127.18 386.04 114.95 404.39 118.23 404.39 72.23 292.38 52.22"/><path id="Shape-2" data-name="Shape" class="cls-2" d="M404.39,72.23v46h0l29-5v56.11l79.11-20.52V52.92L404.39,72.23ZM527.93,283.07V176.92l-6.37-2.53L416.32,201.74v41.7L461.82,232v27.7l65.71,23.51h0Z"/><path id="Shape-3" data-name="Shape" class="cls-1" d="M0,0V384.88L98.52,349.5a10.17,10.17,0,0,0-.86-1.37V179.7l55.6,150.49,102.67-36.6V45.49L159.28,28.16V166.81L101.5,17.94,0,0Z"/><path id="Shape-4" data-name="Shape" class="cls-2" d="M608.76,218.17,535.47,72.34a24.38,24.38,0,0,0-5.06-7.54q-3.95-4.54-6.92-7.63a15.16,15.16,0,0,1-3-3.59l104-19.51,39.63,94.83L701.82,19.56,806,0l-3,4.7c-.67.74-2,2.43-3.94,5.06A23.75,23.75,0,0,1,794,14.81L732.61,210.49,801,364a37.92,37.92,0,0,0,4.45,7.64,64,64,0,0,0,6.42,7.53,13.7,13.7,0,0,1,3,3.33l-5.31,1L685.7,339.28l-13.4-32.14-12.69,23L584.9,303.29l8.49-26.53q6.42-20.22,10.42-35.64A223.07,223.07,0,0,0,608.86,218h0Z"/><polygon id="Shape-5" data-name="Shape" class="cls-2" points="406.51 282.01 406.51 282.01 406.51 282.01 0 426.94 62.02 964.42 406.51 1155.25 406.51 1155.25 406.51 1155.25 750.96 964.42 812.98 426.94 406.51 282.01"/><polygon id="Shape-6" data-name="Shape" class="cls-1" points="406.51 282.01 406.51 378.92 406.51 378.51 406.51 820.76 406.51 820.76 406.51 1155.25 406.51 1155.25 750.96 964.42 812.98 426.94 406.51 282.01"/><path id="Shape-7" data-name="Shape" class="cls-3" d="M240.46,934.2h23.36V888.7l29.77,45.5H322.1l-26.34-40.44a29.35,29.35,0,0,0,16.68-11.88,35.39,35.39,0,0,0,7.38-22V856.3a34,34,0,0,0-11.47-26.84A42.55,42.55,0,0,0,278,817.58H240.41V934.2h.05Zm23.25-60.66V840.73h13.1a21,21,0,0,1,14.35,4.7,14.65,14.65,0,0,1,4.6,11.43,15.91,15.91,0,0,1-4.6,12.13,13,13,0,0,1-10.71,4.65H263.76Zm69.16-55.91V933.89h69.9V910.64H356.22v-23.4h34.93V864.39H356.22V841h46.55V817.73H332.92Zm115.3,93.57a11.8,11.8,0,0,1-11.83-11.78H412.83a35.39,35.39,0,0,0,70.77,0,25.9,25.9,0,0,0-5.05-16.23A44.87,44.87,0,0,0,455.9,868,35.22,35.22,0,0,1,441.39,862a10.55,10.55,0,0,1-5.05-9.55,11.78,11.78,0,1,1,23.55,0H483.4a35.39,35.39,0,1,0-70.77,0,26.55,26.55,0,0,0,4.75,16.12,46.4,46.4,0,0,0,22,16.08c8.19,2.83,6.17,2.07,14.56,5a9.11,9.11,0,0,1,6,9.61A11.93,11.93,0,0,1,448.12,911h0ZM522,817.63H492.85v23.25H522v93.27h23.35V840.93h29.12V817.68H522Z"/><path id="Shape-8" data-name="Shape" class="cls-3" d="M407.73,407.42,240.41,782.6h62.38l33.61-84H478.45l33.61,84h62.38L407.63,407.42h.1ZM456.61,647H358.9l48.88-117.58L456.61,647Z"/></g></g></g></g></g></g></svg>