<?xml version="1.0" encoding="UTF-8"?>
<svg width="26px" height="22px" viewBox="0 0 26 22" version="1.1" xmlns="http://www.w3.org/2000/svg" xmlns:xlink="http://www.w3.org/1999/xlink">
    <!-- Generator: Sketch 47.1 (45422) - http://www.bohemiancoding.com/sketch -->
    <title>twitter-logo-silhouette</title>
    <desc>Created with Sketch.</desc>
    <defs></defs>
    <g id="Page-1" stroke="none" stroke-width="1" fill="none" fill-rule="evenodd">
        <g id="Artboard-Copy-7" transform="translate(-1077.000000, -38.000000)" fill-rule="nonzero" fill="#FFFFFF">
            <g id="Group-8" transform="translate(1077.000000, 33.000000)">
                <g id="twitter-logo-silhouette" transform="translate(0.000000, 5.000000)">
                    <path d="M26,2.52466909 C25.0430556,2.94990656 24.016268,3.23829775 22.9374379,3.36704914 C24.0389967,2.70552602 24.8822124,1.65625756 25.2818562,0.409814573 C24.2485686,1.0224275 23.1080098,1.46726313 21.8927222,1.70840571 C20.919549,0.667274752 19.5353039,0.018788671 17.9999444,0.018788671 C15.0543824,0.018788671 12.6660784,2.41389688 12.6660784,5.36623191 C12.6660784,5.78495086 12.7131928,6.19391334 12.8041928,6.58498184 C8.37204248,6.36173324 4.44192157,4.23222271 1.81154575,0.996353425 C1.3517451,1.78496635 1.0901732,2.70386444 1.0901732,3.68475236 C1.0901732,5.54057032 2.03250327,7.17803922 3.46224837,8.13604841 C2.58814706,8.10673638 1.76604575,7.8655938 1.04633007,7.46476882 L1.04633007,7.53157298 C1.04633007,10.1221941 2.8854902,12.2842973 5.32413725,12.7763815 C4.8773366,12.8969528 4.40619281,12.963757 3.91877778,12.963757 C3.57436275,12.963757 3.24129085,12.9295454 2.91471895,12.8643602 C3.59382026,14.9906328 5.56298039,16.5368424 7.89605556,16.5792341 C6.0715098,18.0130525 3.77093464,18.8651891 1.2721732,18.8651891 C0.841643791,18.8651891 0.417571895,18.839115 4.24836601e-05,18.7918664 C2.36073203,20.3120445 5.1633366,21.1983926 8.17551307,21.1983926 C17.9870294,21.1983926 23.3501667,13.0484977 23.3501667,5.98050641 L23.332281,5.28805229 C24.380183,4.53850787 25.2867418,3.59677366 26,2.52466909 Z" id="Shape"></path>
                </g>
            </g>
        </g>
    </g>
</svg>